# SCP CB Converted Room Mesh

v -256.0 3.552713678800501e-15 256.0
v 256.0 3.552713678800501e-15 256.0
v 256.0 3.552713678800501e-15 -256.0
v -256.0 3.552713678800501e-15 -256.0
v 3.0517578125e-05 416.00006103515625 224.0
v 3.0517578125e-05 448.0 224.0
v 256.0 448.0 224.0
v 256.0 342.857177734375 224.0
v 256.0 342.857177734375 256.0
v 3.0517578125e-05 416.0 256.0
v 3.0517578125e-05 416.00006103515625 224.0
v 256.0 342.857177734375 224.0
v 208.0 200.00003051757812 224.0
v 167.4074249267578 368.1693115234375 224.0
v 256.0 342.857177734375 224.0
v 256.0 200.00003051757812 224.0
v 208.0 200.00003051757812 256.0
v 167.4074249267578 368.1693115234375 256.0
v 167.4074249267578 368.1693115234375 224.0
v 208.0 200.00003051757812 224.0
v 100.79998779296875 387.20001220703125 224.0
v 167.4074249267578 368.1693115234375 224.0
v 182.5454559326172 305.45458984375 224.0
v 182.5454559326172 305.45458984375 256.0
v 100.80000305175781 387.20001220703125 256.0
v 100.79998779296875 387.20001220703125 224.0
v 182.5454559326172 305.45458984375 224.0
v 0.0 448.0 224.0
v 0.0 416.00006103515625 224.0
v -255.99996948242188 342.857177734375 224.0
v -255.99996948242188 448.0 224.0
v 0.0 416.0 256.0
v -255.99996948242188 342.857177734375 256.0
v -255.99996948242188 342.857177734375 224.0
v 0.0 416.00006103515625 224.0
v -167.4073944091797 368.1693115234375 224.0
v -207.99996948242188 200.00003051757812 224.0
v -255.99996948242188 200.00003051757812 224.0
v -255.99996948242188 342.857177734375 224.0
v -167.4073944091797 368.1693115234375 256.0
v -207.99996948242188 200.00003051757812 256.0
v -207.99996948242188 200.00003051757812 224.0
v -167.4073944091797 368.1693115234375 224.0
v -182.54542541503906 305.45458984375 224.0
v -167.4073944091797 368.1693115234375 224.0
v -100.79995727539062 387.20001220703125 224.0
v -100.79997253417969 387.20001220703125 256.0
v -182.54542541503906 305.45458984375 256.0
v -182.54542541503906 305.45458984375 224.0
v -100.79995727539062 387.20001220703125 224.0
v 3.0517578125e-05 -47.999969482421875 224.0
v 3.0517578125e-05 -16.0 224.0
v 256.0 57.14288330078125 224.0
v 256.0 -47.999969482421875 224.0
v 3.0517578125e-05 -15.999969482421875 256.0
v 256.0 57.14288330078125 256.0
v 256.0 57.14288330078125 224.0
v 3.0517578125e-05 -16.0 224.0
v 167.4074249267578 31.830718994140625 224.0
v 208.0 200.00001525878906 224.0
v 256.0 200.00001525878906 224.0
v 256.0 57.14288330078125 224.0
v 167.4074249267578 31.830718994140625 256.0
v 208.0 200.00001525878906 256.0
v 208.0 200.00001525878906 224.0
v 167.4074249267578 31.830718994140625 224.0
v 182.5454559326172 94.54544067382812 224.0
v 167.4074249267578 31.830718994140625 224.0
v 100.79998779296875 12.800018310546875 224.0
v 100.80000305175781 12.800018310546875 256.0
v 182.5454559326172 94.54544067382812 256.0
v 182.5454559326172 94.54544067382812 224.0
v 100.79998779296875 12.800018310546875 224.0
v 0.0 -16.0 224.0
v 0.0 -47.999969482421875 224.0
v -255.99996948242188 -47.999969482421875 224.0
v -255.99996948242188 57.14288330078125 224.0
v -255.99996948242188 57.14288330078125 256.0
v 0.0 -15.999969482421875 256.0
v 0.0 -16.0 224.0
v -255.99996948242188 57.14288330078125 224.0
v -207.99996948242188 200.00001525878906 224.0
v -167.4073944091797 31.830718994140625 224.0
v -255.99996948242188 57.14288330078125 224.0
v -255.99996948242188 200.00001525878906 224.0
v -207.99996948242188 200.00001525878906 256.0
v -167.4073944091797 31.830718994140625 256.0
v -167.4073944091797 31.830718994140625 224.0
v -207.99996948242188 200.00001525878906 224.0
v -100.79995727539062 12.800018310546875 224.0
v -167.4073944091797 31.830718994140625 224.0
v -182.54542541503906 94.54544067382812 224.0
v -182.54542541503906 94.54544067382812 256.0
v -100.79997253417969 12.800018310546875 256.0
v -100.79995727539062 12.800018310546875 224.0
v -182.54542541503906 94.54544067382812 224.0
v 256.0 448.0 256.0
v 256.0 -47.999969482421875 256.0
v -256.0 -47.999969482421875 256.0
v -256.0 448.0 256.0
v -84.0 4.0 256.0
v 84.0 4.0 256.0
v 84.0 4.0 -256.0
v -84.0 4.0 -256.0
v -84.0 4.0 256.0
v -84.0 4.0 -256.0
v -84.0 0.0 -256.0
v -84.0 0.0 256.0
v 84.0 4.0 -256.0
v 84.0 4.0 256.0
v 84.0 0.0 256.0
v 84.0 0.0 -256.0
v -111.99999237060547 401.142822265625 -256.0
v 3.337860107421875e-05 432.0 -256.0
v 3.337860107421875e-05 432.0 256.0
v -111.99999237060547 401.142822265625 256.0
v 112.00000762939453 401.142822265625 256.0
v 1.9550323486328125e-05 432.0 256.0
v 1.9550323486328125e-05 432.0 -256.0
v 112.00000762939453 401.142822265625 -256.0
v 224.0 286.3929138183594 256.0
v 112.0000228881836 401.14288330078125 256.0
v 112.0 401.14288330078125 -256.0
v 223.99998474121094 286.3929138183594 -256.0
v -223.99996948242188 286.3929138183594 -256.0
v -112.00001525878906 401.14288330078125 -256.0
v -112.00000762939453 401.14288330078125 256.0
v -224.0 286.3929138183594 256.0
v -223.99996948242188 200.57144165039062 -256.0
v -193.70208740234375 317.4346923828125 -256.0
v -193.70208740234375 317.4347229003906 256.0
v -223.99998474121094 200.57142639160156 256.0
v 223.99998474121094 200.57159423828125 256.0
v 193.70211791992188 317.4346923828125 256.0
v 193.70211791992188 317.4346618652344 -256.0
v 223.99996948242188 200.5716094970703 -256.0
v -112.0000228881836 -1.430511474609375e-06 -256.0
v -223.99996948242188 115.71426391601562 -256.0
v -224.0 115.71426391601562 256.0
v -112.0000228881836 -1.430511474609375e-06 256.0
v -193.95118713378906 84.66896057128906 -256.0
v -223.99996948242188 200.57147216796875 -256.0
v -223.99998474121094 200.5714569091797 256.0
v -193.951171875 84.66893768310547 256.0
v 112.00004577636719 -1.430511474609375e-06 256.0
v 223.99998474121094 115.71424865722656 256.0
v 223.99996948242188 115.71424865722656 -256.0
v 112.00004577636719 -1.430511474609375e-06 -256.0
v 193.95120239257812 84.6689453125 256.0
v 223.99998474121094 200.57162475585938 256.0
v 223.99996948242188 200.57164001464844 -256.0
v 193.95120239257812 84.6689682006836 -256.0
v 64.0 392.0 -232.0
v 64.0 388.0 -232.0
v -64.0 388.0 -232.0
v -64.0 392.0 -232.0
v 64.0 388.0 232.0
v 64.0 392.0 232.0
v -64.0 392.0 232.0
v -64.0 388.0 232.0
v 64.0 388.0 232.0
v -64.0 388.0 232.0
v -64.0 388.0 -232.0
v 64.0 388.0 -232.0
v -64.0 392.0 232.0
v -64.0 392.0 -232.0
v -64.0 388.0 -232.0
v -64.0 388.0 232.0
v 64.0 392.0 -232.0
v 64.0 392.0 232.0
v 64.0 388.0 232.0
v 64.0 388.0 -232.0
v 56.0 392.0 248.0
v 56.0 388.0 248.0
v -56.0 388.0 248.0
v -56.0 392.0 248.0
v 64.0 388.0 256.0
v 64.0 392.0 256.0
v -64.0 392.0 256.0
v -64.0 388.0 256.0
v 64.0 388.0 256.0
v -64.0 388.0 256.0
v -56.0 388.0 248.0
v 56.0 388.0 248.0
v -56.0 388.0 248.0
v -64.0 388.0 256.0
v -64.0 388.0 232.0
v -56.0 388.0 232.0
v -64.0 392.0 256.0
v -64.0 392.0 232.0
v -64.0 388.0 232.0
v -64.0 388.0 256.0
v -56.0 392.0 232.0
v -56.0 392.0 248.0
v -56.0 388.0 248.0
v -56.0 388.0 232.0
v 64.0 388.0 256.0
v 56.0 388.0 248.0
v 56.0 388.0 232.0
v 64.0 388.0 232.0
v 56.0 392.0 248.0
v 56.0 392.0 232.0
v 56.0 388.0 232.0
v 56.0 388.0 248.0
v 64.0 392.0 232.0
v 64.0 392.0 256.0
v 64.0 388.0 256.0
v 64.0 388.0 232.0
v -56.0 392.0 -248.0
v -56.0 388.0 -248.0
v 56.0 388.0 -248.0
v 56.0 392.0 -248.0
v -64.0 388.0 -256.0
v -64.0 392.0 -256.0
v 64.0 392.0 -256.0
v 64.0 388.0 -256.0
v -64.0 388.0 -256.0
v 64.0 388.0 -256.0
v 56.0 388.0 -248.0
v -56.0 388.0 -248.0
v 56.0 388.0 -248.0
v 64.0 388.0 -256.0
v 64.0 388.0 -232.0
v 56.0 388.0 -232.0
v 64.0 392.0 -256.0
v 64.0 392.0 -232.0
v 64.0 388.0 -232.0
v 64.0 388.0 -256.0
v 56.0 392.0 -232.0
v 56.0 392.0 -248.0
v 56.0 388.0 -248.0
v 56.0 388.0 -232.0
v -64.0 388.0 -256.0
v -56.0 388.0 -248.0
v -56.0 388.0 -232.0
v -64.0 388.0 -232.0
v -56.0 392.0 -248.0
v -56.0 392.0 -232.0
v -56.0 388.0 -232.0
v -56.0 388.0 -248.0
v -64.0 392.0 -232.0
v -64.0 392.0 -256.0
v -64.0 388.0 -256.0
v -64.0 388.0 -232.0
v 24.0 388.0 -16.0
v 24.0 384.0 -16.0
v -24.0 384.0 -16.0
v -24.0 388.0 -16.0
v 24.0 384.0 16.0
v 24.0 388.0 16.0
v -24.0 388.0 16.0
v -24.0 384.0 16.0
v 24.0 384.0 16.0
v -24.0 384.0 16.0
v -24.0 384.0 -16.0
v 24.0 384.0 -16.0
v -24.0 388.0 16.0
v -24.0 388.0 -16.0
v -24.0 384.0 -16.0
v -24.0 384.0 16.0
v 24.0 388.0 -16.0
v 24.0 388.0 16.0
v 24.0 384.0 16.0
v 24.0 384.0 -16.0
vt -1.0 2.0
vt 1.0 2.0
vt 1.0 0.0
vt -1.0 0.0
vt 1.1920928955078125e-07 2.625000238418579
vt 1.1920928955078125e-07 2.75
vt 1.0 2.75
vt 1.0 2.3392858505249023
vt 1.0 6.0
vt 1.1920928955078125e-07 6.0
vt 1.1920928955078125e-07 5.875
vt 1.0 5.875
vt 0.8125 1.7812500596046448
vt 0.6539352536201477 2.4381613731384277
vt 1.0 2.3392858505249023
vt 1.0 1.7812500596046448
vt 5.0 1.7812500596046448
vt 5.0 2.4381613731384277
vt 4.875 2.4381613731384277
vt 4.875 1.7812500596046448
vt 0.3937499523162842 2.512500047683716
vt 0.6539352536201477 2.4381613731384277
vt 0.7130681872367859 2.1931819915771484
vt 0.7130681872367859 6.0
vt 0.39375001192092896 6.0
vt 0.3937499523162842 5.875
vt 0.7130681872367859 5.875
vt 1.0 2.75
vt 1.0 2.625000238418579
vt 1.1920928955078125e-07 2.3392858505249023
vt 1.1920928955078125e-07 2.75
vt 1.0 6.0
vt 1.1920928955078125e-07 6.0
vt 1.1920928955078125e-07 5.875
vt 1.0 5.875
vt 0.34606486558914185 2.4381613731384277
vt 0.18750011920928955 1.7812500596046448
vt 1.1920928955078125e-07 1.7812500596046448
vt 1.1920928955078125e-07 2.3392858505249023
vt 5.0 2.4381613731384277
vt 5.0 1.7812500596046448
vt 4.875 1.7812500596046448
vt 4.875 2.4381613731384277
vt 0.28693193197250366 2.1931819915771484
vt 0.34606486558914185 2.4381613731384277
vt 0.6062501668930054 2.512500047683716
vt 0.6062501072883606 6.0
vt 0.28693193197250366 6.0
vt 0.28693193197250366 5.875
vt 0.6062501668930054 5.875
vt 1.1920928955078125e-07 1.7812500596046448
vt 1.1920928955078125e-07 1.9062499403953552
vt 1.0 2.1919643878936768
vt 1.0 1.7812500596046448
vt 1.1920928955078125e-07 6.0
vt 1.0 6.0
vt 1.0 5.875
vt 1.1920928955078125e-07 5.875
vt 0.6539352536201477 2.0930886268615723
vt 0.8125 2.75
vt 1.0 2.75
vt 1.0 2.1919643878936768
vt 5.0 2.0930886268615723
vt 5.0 2.75
vt 4.875 2.75
vt 4.875 2.0930886268615723
vt 0.7130681872367859 2.3380680084228516
vt 0.6539352536201477 2.0930886268615723
vt 0.3937499523162842 2.018749952316284
vt 0.39375001192092896 6.0
vt 0.7130681872367859 6.0
vt 0.7130681872367859 5.875
vt 0.3937499523162842 5.875
vt 1.0 1.9062499403953552
vt 1.0 1.7812500596046448
vt 1.1920928955078125e-07 1.7812500596046448
vt 1.1920928955078125e-07 2.1919643878936768
vt 1.1920928955078125e-07 6.0
vt 1.0 6.0
vt 1.0 5.875
vt 1.1920928955078125e-07 5.875
vt 0.18750011920928955 2.75
vt 0.34606486558914185 2.0930886268615723
vt 1.1920928955078125e-07 2.1919643878936768
vt 1.1920928955078125e-07 2.75
vt 5.0 2.75
vt 5.0 2.0930886268615723
vt 4.875 2.0930886268615723
vt 4.875 2.75
vt 0.6062501668930054 2.018749952316284
vt 0.34606486558914185 2.0930886268615723
vt 0.28693193197250366 2.3380680084228516
vt 0.28693193197250366 6.0
vt 0.6062501072883606 6.0
vt 0.6062501668930054 5.875
vt 0.28693193197250366 5.875
vt 1.0 2.75
vt 1.0 0.8125001192092896
vt -1.0 0.8125001192092896
vt -1.0 2.75
vt -0.9927161335945129 3.00305438041687
vt -0.005874037742614746 3.00305438041687
vt -0.005874037742614746 -0.004464268684387207
vt -0.9927161335945129 -0.004464268684387207
vt 1.0044642686843872 1.52279132604599
vt -2.00305438041687 1.52279132604599
vt -2.00305438041687 1.4992950856685638
vt 1.0044642686843872 1.4992950856685638
vt -2.00305438041687 1.52279132604599
vt 1.0044642686843872 1.52279132604599
vt 1.0044642686843872 1.4992950856685638
vt -2.00305438041687 1.4992950856685638
vt -0.2187499850988388 0.5
vt 6.51925802230835e-08 0.5
vt 6.51925802230835e-08 1.5
vt -0.2187499850988388 1.5
vt 0.2187500149011612 1.5
vt 3.818422555923462e-08 1.5
vt 3.818422555923462e-08 0.5
vt 0.2187500149011612 0.5
vt 0.5 1.5593611598014832
vt 0.5 1.7834821939468384
vt -0.5 1.7834821939468384
vt -0.5 1.5593611598014832
vt -0.5 1.5593611598014832
vt -0.5 1.7834821939468384
vt 0.5 1.7834821939468384
vt 0.5 1.5593611598014832
vt -0.5 1.3917410969734192
vt -0.5 1.6199896335601807
vt 0.5 1.6199896931648254
vt 0.5 1.3917410671710968
vt 0.5 1.391741394996643
vt 0.5 1.6199896335601807
vt -0.5 1.6199895739555359
vt -0.5 1.3917414247989655
vt -0.5 0.9999999972060323
vt -0.5 1.226004421710968
vt 0.5 1.226004421710968
vt 0.5 0.9999999972060323
vt -0.5 1.165369063615799
vt -0.5 1.391741156578064
vt 0.5 1.3917411267757416
vt 0.5 1.1653690189123154
vt 0.5 0.9999999972060323
vt 0.5 1.2260043919086456
vt -0.5 1.2260043919086456
vt -0.5 0.9999999972060323
vt 0.5 1.1653690338134766
vt 0.5 1.3917414546012878
vt -0.5 1.3917414844036102
vt -0.5 1.1653690785169601
vt 0.125 1.7578125
vt 0.125 1.75
vt -0.125 1.75
vt -0.125 1.7578125
vt 0.125 1.75
vt 0.125 1.7578125
vt -0.125 1.7578125
vt -0.125 1.75
vt 0.125 1.4375
vt -0.125 1.4375
vt -0.125 0.53125
vt 0.125 0.53125
vt 0.4375 1.7578125
vt -0.46875 1.7578125
vt -0.46875 1.75
vt 0.4375 1.75
vt -0.46875 1.7578125
vt 0.4375 1.7578125
vt 0.4375 1.75
vt -0.46875 1.75
vt 0.109375 1.765625
vt 0.109375 1.7578125
vt -0.109375 1.7578125
vt -0.109375 1.765625
vt 0.125 1.7578125
vt 0.125 1.765625
vt -0.125 1.765625
vt -0.125 1.7578125
vt 0.125 1.5
vt -0.125 1.5
vt -0.109375 1.484375
vt 0.109375 1.484375
vt -0.109375 1.484375
vt -0.125 1.5
vt -0.125 1.453125
vt -0.109375 1.453125
vt 0.5 1.765625
vt 0.453125 1.765625
vt 0.453125 1.7578125
vt 0.5 1.7578125
vt 0.453125 1.765625
vt 0.484375 1.765625
vt 0.484375 1.7578125
vt 0.453125 1.7578125
vt 0.125 1.5
vt 0.109375 1.484375
vt 0.109375 1.453125
vt 0.125 1.453125
vt 0.484375 1.765625
vt 0.453125 1.765625
vt 0.453125 1.7578125
vt 0.484375 1.7578125
vt 0.453125 1.765625
vt 0.5 1.765625
vt 0.5 1.7578125
vt 0.453125 1.7578125
vt -0.109375 1.765625
vt -0.109375 1.7578125
vt 0.109375 1.7578125
vt 0.109375 1.765625
vt -0.125 1.7578125
vt -0.125 1.765625
vt 0.125 1.765625
vt 0.125 1.7578125
vt -0.125 0.5
vt 0.125 0.5
vt 0.109375 0.515625
vt -0.109375 0.515625
vt 0.109375 0.515625
vt 0.125 0.5
vt 0.125 0.546875
vt 0.109375 0.546875
vt -0.5 1.765625
vt -0.453125 1.765625
vt -0.453125 1.7578125
vt -0.5 1.7578125
vt -0.453125 1.765625
vt -0.484375 1.765625
vt -0.484375 1.7578125
vt -0.453125 1.7578125
vt -0.125 0.5
vt -0.109375 0.515625
vt -0.109375 0.546875
vt -0.125 0.546875
vt -0.484375 1.765625
vt -0.453125 1.765625
vt -0.453125 1.7578125
vt -0.484375 1.7578125
vt -0.453125 1.765625
vt -0.5 1.765625
vt -0.5 1.7578125
vt -0.453125 1.7578125
vt 0.34375 2.53125
vt 0.34375 2.515625
vt 0.15625 2.515625
vt 0.15625 2.53125
vt 0.34375 2.515625
vt 0.34375 2.53125
vt 0.15625 2.53125
vt 0.15625 2.515625
vt 0.34375 0.8671875
vt 0.15625 0.8671875
vt 0.15625 0.7421875
vt 0.34375 0.7421875
vt -0.1328125 2.53125
vt -0.2578125 2.53125
vt -0.2578125 2.515625
vt -0.1328125 2.515625
vt -0.2578125 2.53125
vt -0.1328125 2.53125
vt -0.1328125 2.515625
vt -0.2578125 2.515625

g RoomMesh_Geometry
f 1/1 2/2 3/3
f 4/4 1/1 3/3
f 5/5 6/6 7/7
f 8/8 5/5 7/7
f 9/9 10/10 11/11
f 12/12 9/9 11/11
f 13/13 14/14 15/15
f 16/16 13/13 15/15
f 17/17 18/18 19/19
f 20/20 17/17 19/19
f 21/21 22/22 23/23
f 24/24 25/25 26/26
f 27/27 24/24 26/26
f 28/28 29/29 30/30
f 31/31 28/28 30/30
f 32/32 33/33 34/34
f 35/35 32/32 34/34
f 36/36 37/37 38/38
f 39/39 36/36 38/38
f 40/40 41/41 42/42
f 43/43 40/40 42/42
f 44/44 45/45 46/46
f 47/47 48/48 49/49
f 50/50 47/47 49/49
f 51/51 52/52 53/53
f 54/54 51/51 53/53
f 55/55 56/56 57/57
f 58/58 55/55 57/57
f 59/59 60/60 61/61
f 62/62 59/59 61/61
f 63/63 64/64 65/65
f 66/66 63/63 65/65
f 67/67 68/68 69/69
f 70/70 71/71 72/72
f 73/73 70/70 72/72
f 74/74 75/75 76/76
f 77/77 74/74 76/76
f 78/78 79/79 80/80
f 81/81 78/78 80/80
f 82/82 83/83 84/84
f 85/85 82/82 84/84
f 86/86 87/87 88/88
f 89/89 86/86 88/88
f 90/90 91/91 92/92
f 93/93 94/94 95/95
f 96/96 93/93 95/95
f 97/97 98/98 99/99
f 100/100 97/97 99/99
f 101/101 102/102 103/103
f 104/104 101/101 103/103
f 105/105 106/106 107/107
f 108/108 105/105 107/107
f 109/109 110/110 111/111
f 112/112 109/109 111/111
f 113/113 114/114 115/115
f 116/116 113/113 115/115
f 117/117 118/118 119/119
f 120/120 117/117 119/119
f 121/121 122/122 123/123
f 124/124 121/121 123/123
f 125/125 126/126 127/127
f 128/128 125/125 127/127
f 129/129 130/130 131/131
f 132/132 129/129 131/131
f 133/133 134/134 135/135
f 136/136 133/133 135/135
f 137/137 138/138 139/139
f 140/140 137/137 139/139
f 141/141 142/142 143/143
f 144/144 141/141 143/143
f 145/145 146/146 147/147
f 148/148 145/145 147/147
f 149/149 150/150 151/151
f 152/152 149/149 151/151
f 153/153 154/154 155/155
f 156/156 153/153 155/155
f 157/157 158/158 159/159
f 160/160 157/157 159/159
f 161/161 162/162 163/163
f 164/164 161/161 163/163
f 165/165 166/166 167/167
f 168/168 165/165 167/167
f 169/169 170/170 171/171
f 172/172 169/169 171/171
f 173/173 174/174 175/175
f 176/176 173/173 175/175
f 177/177 178/178 179/179
f 180/180 177/177 179/179
f 181/181 182/182 183/183
f 184/184 181/181 183/183
f 185/185 186/186 187/187
f 188/188 185/185 187/187
f 189/189 190/190 191/191
f 192/192 189/189 191/191
f 193/193 194/194 195/195
f 196/196 193/193 195/195
f 197/197 198/198 199/199
f 200/200 197/197 199/199
f 201/201 202/202 203/203
f 204/204 201/201 203/203
f 205/205 206/206 207/207
f 208/208 205/205 207/207
f 209/209 210/210 211/211
f 212/212 209/209 211/211
f 213/213 214/214 215/215
f 216/216 213/213 215/215
f 217/217 218/218 219/219
f 220/220 217/217 219/219
f 221/221 222/222 223/223
f 224/224 221/221 223/223
f 225/225 226/226 227/227
f 228/228 225/225 227/227
f 229/229 230/230 231/231
f 232/232 229/229 231/231
f 233/233 234/234 235/235
f 236/236 233/233 235/235
f 237/237 238/238 239/239
f 240/240 237/237 239/239
f 241/241 242/242 243/243
f 244/244 241/241 243/243
f 245/245 246/246 247/247
f 248/248 245/245 247/247
f 249/249 250/250 251/251
f 252/252 249/249 251/251
f 253/253 254/254 255/255
f 256/256 253/253 255/255
f 257/257 258/258 259/259
f 260/260 257/257 259/259
f 261/261 262/262 263/263
f 264/264 261/261 263/263
