# SCP CB Converted Room Mesh

v -256.0 0.0 256.0
v 256.0 0.0 256.0
v 256.0 0.0 -256.0
v -256.0 0.0 -256.0
v -84.0 4.0 256.0
v 84.0 4.0 256.0
v 84.0 4.0 -256.0
v -84.0 4.0 -256.0
v -84.0 4.0 256.0
v -84.0 4.0 -256.0
v -84.0 0.0 -256.0
v -84.0 0.0 256.0
v 84.0 4.0 -256.0
v 84.0 4.0 256.0
v 84.0 0.0 256.0
v 84.0 0.0 -256.0
v -111.99999237060547 401.142822265625 -256.0
v 3.337860107421875e-05 432.0 -256.0
v 3.337860107421875e-05 432.0 256.0
v -111.99999237060547 401.142822265625 256.0
v 112.00000762939453 401.142822265625 256.0
v 1.9550323486328125e-05 432.0 256.0
v 1.9550323486328125e-05 432.0 -256.0
v 112.00000762939453 401.142822265625 -256.0
v 224.0 286.3929138183594 256.0
v 112.0000228881836 401.14288330078125 256.0
v 112.0 401.14288330078125 -256.0
v 223.99998474121094 286.3929138183594 -256.0
v -223.99996948242188 286.3929138183594 -256.0
v -112.00001525878906 401.14288330078125 -256.0
v -112.00000762939453 401.14288330078125 256.0
v -224.0 286.3929138183594 256.0
v -223.99996948242188 200.57144165039062 -256.0
v -193.70208740234375 317.4346923828125 -256.0
v -193.70208740234375 317.4347229003906 256.0
v -223.99998474121094 200.57142639160156 256.0
v 223.99998474121094 200.57159423828125 256.0
v 193.70211791992188 317.4346923828125 256.0
v 193.70211791992188 317.4346618652344 -256.0
v 223.99996948242188 200.5716094970703 -256.0
v -112.0000228881836 -1.430511474609375e-06 -256.0
v -223.99996948242188 115.71426391601562 -256.0
v -224.0 115.71426391601562 256.0
v -112.0000228881836 -1.430511474609375e-06 256.0
v -193.95118713378906 84.66896057128906 -256.0
v -223.99996948242188 200.57147216796875 -256.0
v -223.99998474121094 200.5714569091797 256.0
v -193.951171875 84.66893768310547 256.0
v 112.00004577636719 -1.430511474609375e-06 256.0
v 223.99998474121094 115.71424865722656 256.0
v 223.99996948242188 115.71424865722656 -256.0
v 112.00004577636719 -1.430511474609375e-06 -256.0
v 193.95120239257812 84.6689453125 256.0
v 223.99998474121094 200.57162475585938 256.0
v 223.99996948242188 200.57164001464844 -256.0
v 193.95120239257812 84.6689682006836 -256.0
v 64.0 392.0 -232.0
v 64.0 388.0 -232.0
v -64.0 388.0 -232.0
v -64.0 392.0 -232.0
v 64.0 388.0 232.0
v 64.0 392.0 232.0
v -64.0 392.0 232.0
v -64.0 388.0 232.0
v 64.0 388.0 232.0
v -64.0 388.0 232.0
v -64.0 388.0 -232.0
v 64.0 388.0 -232.0
v -64.0 392.0 232.0
v -64.0 392.0 -232.0
v -64.0 388.0 -232.0
v -64.0 388.0 232.0
v 64.0 392.0 -232.0
v 64.0 392.0 232.0
v 64.0 388.0 232.0
v 64.0 388.0 -232.0
v 56.0 392.0 248.0
v 56.0 388.0 248.0
v -56.0 388.0 248.0
v -56.0 392.0 248.0
v 64.0 388.0 256.0
v 64.0 392.0 256.0
v -64.0 392.0 256.0
v -64.0 388.0 256.0
v 64.0 388.0 256.0
v -64.0 388.0 256.0
v -56.0 388.0 248.0
v 56.0 388.0 248.0
v -56.0 388.0 248.0
v -64.0 388.0 256.0
v -64.0 388.0 232.0
v -56.0 388.0 232.0
v -64.0 392.0 256.0
v -64.0 392.0 232.0
v -64.0 388.0 232.0
v -64.0 388.0 256.0
v -56.0 392.0 232.0
v -56.0 392.0 248.0
v -56.0 388.0 248.0
v -56.0 388.0 232.0
v 64.0 388.0 256.0
v 56.0 388.0 248.0
v 56.0 388.0 232.0
v 64.0 388.0 232.0
v 56.0 392.0 248.0
v 56.0 392.0 232.0
v 56.0 388.0 232.0
v 56.0 388.0 248.0
v 64.0 392.0 232.0
v 64.0 392.0 256.0
v 64.0 388.0 256.0
v 64.0 388.0 232.0
v -56.0 392.0 -248.0
v -56.0 388.0 -248.0
v 56.0 388.0 -248.0
v 56.0 392.0 -248.0
v -64.0 388.0 -256.0
v -64.0 392.0 -256.0
v 64.0 392.0 -256.0
v 64.0 388.0 -256.0
v -64.0 388.0 -256.0
v 64.0 388.0 -256.0
v 56.0 388.0 -248.0
v -56.0 388.0 -248.0
v 56.0 388.0 -248.0
v 64.0 388.0 -256.0
v 64.0 388.0 -232.0
v 56.0 388.0 -232.0
v 64.0 392.0 -256.0
v 64.0 392.0 -232.0
v 64.0 388.0 -232.0
v 64.0 388.0 -256.0
v 56.0 392.0 -232.0
v 56.0 392.0 -248.0
v 56.0 388.0 -248.0
v 56.0 388.0 -232.0
v -64.0 388.0 -256.0
v -56.0 388.0 -248.0
v -56.0 388.0 -232.0
v -64.0 388.0 -232.0
v -56.0 392.0 -248.0
v -56.0 392.0 -232.0
v -56.0 388.0 -232.0
v -56.0 388.0 -248.0
v -64.0 392.0 -232.0
v -64.0 392.0 -256.0
v -64.0 388.0 -256.0
v -64.0 388.0 -232.0
v 24.0 388.0 -16.0
v 24.0 384.0 -16.0
v -24.0 384.0 -16.0
v -24.0 388.0 -16.0
v 24.0 384.0 16.0
v 24.0 388.0 16.0
v -24.0 388.0 16.0
v -24.0 384.0 16.0
v 24.0 384.0 16.0
v -24.0 384.0 16.0
v -24.0 384.0 -16.0
v 24.0 384.0 -16.0
v -24.0 388.0 16.0
v -24.0 388.0 -16.0
v -24.0 384.0 -16.0
v -24.0 384.0 16.0
v 24.0 388.0 -16.0
v 24.0 388.0 16.0
v 24.0 384.0 16.0
v 24.0 384.0 -16.0
vt -1.0 2.0
vt 1.0 2.0
vt 1.0 0.0
vt -1.0 0.0
vt -0.9927161335945129 3.00305438041687
vt -0.005874037742614746 3.00305438041687
vt -0.005874037742614746 -0.004464268684387207
vt -0.9927161335945129 -0.004464268684387207
vt 1.0044642686843872 1.52279132604599
vt -2.00305438041687 1.52279132604599
vt -2.00305438041687 1.4992950856685638
vt 1.0044642686843872 1.4992950856685638
vt -2.00305438041687 1.52279132604599
vt 1.0044642686843872 1.52279132604599
vt 1.0044642686843872 1.4992950856685638
vt -2.00305438041687 1.4992950856685638
vt -0.2187499850988388 0.5
vt 6.51925802230835e-08 0.5
vt 6.51925802230835e-08 1.5
vt -0.2187499850988388 1.5
vt 0.2187500149011612 1.5
vt 3.818422555923462e-08 1.5
vt 3.818422555923462e-08 0.5
vt 0.2187500149011612 0.5
vt 0.5 1.5593611598014832
vt 0.5 1.7834821939468384
vt -0.5 1.7834821939468384
vt -0.5 1.5593611598014832
vt -0.5 1.5593611598014832
vt -0.5 1.7834821939468384
vt 0.5 1.7834821939468384
vt 0.5 1.5593611598014832
vt -0.5 1.3917410969734192
vt -0.5 1.6199896335601807
vt 0.5 1.6199896931648254
vt 0.5 1.3917410671710968
vt 0.5 1.391741394996643
vt 0.5 1.6199896335601807
vt -0.5 1.6199895739555359
vt -0.5 1.3917414247989655
vt -0.5 0.9999999972060323
vt -0.5 1.226004421710968
vt 0.5 1.226004421710968
vt 0.5 0.9999999972060323
vt -0.5 1.165369063615799
vt -0.5 1.391741156578064
vt 0.5 1.3917411267757416
vt 0.5 1.1653690189123154
vt 0.5 0.9999999972060323
vt 0.5 1.2260043919086456
vt -0.5 1.2260043919086456
vt -0.5 0.9999999972060323
vt 0.5 1.1653690338134766
vt 0.5 1.3917414546012878
vt -0.5 1.3917414844036102
vt -0.5 1.1653690785169601
vt 0.125 1.7578125
vt 0.125 1.75
vt -0.125 1.75
vt -0.125 1.7578125
vt 0.125 1.75
vt 0.125 1.7578125
vt -0.125 1.7578125
vt -0.125 1.75
vt 0.125 1.4375
vt -0.125 1.4375
vt -0.125 0.53125
vt 0.125 0.53125
vt 0.4375 1.7578125
vt -0.46875 1.7578125
vt -0.46875 1.75
vt 0.4375 1.75
vt -0.46875 1.7578125
vt 0.4375 1.7578125
vt 0.4375 1.75
vt -0.46875 1.75
vt 0.109375 1.765625
vt 0.109375 1.7578125
vt -0.109375 1.7578125
vt -0.109375 1.765625
vt 0.125 1.7578125
vt 0.125 1.765625
vt -0.125 1.765625
vt -0.125 1.7578125
vt 0.125 1.5
vt -0.125 1.5
vt -0.109375 1.484375
vt 0.109375 1.484375
vt -0.109375 1.484375
vt -0.125 1.5
vt -0.125 1.453125
vt -0.109375 1.453125
vt 0.5 1.765625
vt 0.453125 1.765625
vt 0.453125 1.7578125
vt 0.5 1.7578125
vt 0.453125 1.765625
vt 0.484375 1.765625
vt 0.484375 1.7578125
vt 0.453125 1.7578125
vt 0.125 1.5
vt 0.109375 1.484375
vt 0.109375 1.453125
vt 0.125 1.453125
vt 0.484375 1.765625
vt 0.453125 1.765625
vt 0.453125 1.7578125
vt 0.484375 1.7578125
vt 0.453125 1.765625
vt 0.5 1.765625
vt 0.5 1.7578125
vt 0.453125 1.7578125
vt -0.109375 1.765625
vt -0.109375 1.7578125
vt 0.109375 1.7578125
vt 0.109375 1.765625
vt -0.125 1.7578125
vt -0.125 1.765625
vt 0.125 1.765625
vt 0.125 1.7578125
vt -0.125 0.5
vt 0.125 0.5
vt 0.109375 0.515625
vt -0.109375 0.515625
vt 0.109375 0.515625
vt 0.125 0.5
vt 0.125 0.546875
vt 0.109375 0.546875
vt -0.5 1.765625
vt -0.453125 1.765625
vt -0.453125 1.7578125
vt -0.5 1.7578125
vt -0.453125 1.765625
vt -0.484375 1.765625
vt -0.484375 1.7578125
vt -0.453125 1.7578125
vt -0.125 0.5
vt -0.109375 0.515625
vt -0.109375 0.546875
vt -0.125 0.546875
vt -0.484375 1.765625
vt -0.453125 1.765625
vt -0.453125 1.7578125
vt -0.484375 1.7578125
vt -0.453125 1.765625
vt -0.5 1.765625
vt -0.5 1.7578125
vt -0.453125 1.7578125
vt 0.34375 2.53125
vt 0.34375 2.515625
vt 0.15625 2.515625
vt 0.15625 2.53125
vt 0.34375 2.515625
vt 0.34375 2.53125
vt 0.15625 2.53125
vt 0.15625 2.515625
vt 0.34375 0.8671875
vt 0.15625 0.8671875
vt 0.15625 0.7421875
vt 0.34375 0.7421875
vt -0.1328125 2.53125
vt -0.2578125 2.53125
vt -0.2578125 2.515625
vt -0.1328125 2.515625
vt -0.2578125 2.53125
vt -0.1328125 2.53125
vt -0.1328125 2.515625
vt -0.2578125 2.515625

g RoomMesh_Geometry
f 1/1 2/2 3/3
f 4/4 1/1 3/3
f 5/5 6/6 7/7
f 8/8 5/5 7/7
f 9/9 10/10 11/11
f 12/12 9/9 11/11
f 13/13 14/14 15/15
f 16/16 13/13 15/15
f 17/17 18/18 19/19
f 20/20 17/17 19/19
f 21/21 22/22 23/23
f 24/24 21/21 23/23
f 25/25 26/26 27/27
f 28/28 25/25 27/27
f 29/29 30/30 31/31
f 32/32 29/29 31/31
f 33/33 34/34 35/35
f 36/36 33/33 35/35
f 37/37 38/38 39/39
f 40/40 37/37 39/39
f 41/41 42/42 43/43
f 44/44 41/41 43/43
f 45/45 46/46 47/47
f 48/48 45/45 47/47
f 49/49 50/50 51/51
f 52/52 49/49 51/51
f 53/53 54/54 55/55
f 56/56 53/53 55/55
f 57/57 58/58 59/59
f 60/60 57/57 59/59
f 61/61 62/62 63/63
f 64/64 61/61 63/63
f 65/65 66/66 67/67
f 68/68 65/65 67/67
f 69/69 70/70 71/71
f 72/72 69/69 71/71
f 73/73 74/74 75/75
f 76/76 73/73 75/75
f 77/77 78/78 79/79
f 80/80 77/77 79/79
f 81/81 82/82 83/83
f 84/84 81/81 83/83
f 85/85 86/86 87/87
f 88/88 85/85 87/87
f 89/89 90/90 91/91
f 92/92 89/89 91/91
f 93/93 94/94 95/95
f 96/96 93/93 95/95
f 97/97 98/98 99/99
f 100/100 97/97 99/99
f 101/101 102/102 103/103
f 104/104 101/101 103/103
f 105/105 106/106 107/107
f 108/108 105/105 107/107
f 109/109 110/110 111/111
f 112/112 109/109 111/111
f 113/113 114/114 115/115
f 116/116 113/113 115/115
f 117/117 118/118 119/119
f 120/120 117/117 119/119
f 121/121 122/122 123/123
f 124/124 121/121 123/123
f 125/125 126/126 127/127
f 128/128 125/125 127/127
f 129/129 130/130 131/131
f 132/132 129/129 131/131
f 133/133 134/134 135/135
f 136/136 133/133 135/135
f 137/137 138/138 139/139
f 140/140 137/137 139/139
f 141/141 142/142 143/143
f 144/144 141/141 143/143
f 145/145 146/146 147/147
f 148/148 145/145 147/147
f 149/149 150/150 151/151
f 152/152 149/149 151/151
f 153/153 154/154 155/155
f 156/156 153/153 155/155
f 157/157 158/158 159/159
f 160/160 157/157 159/159
f 161/161 162/162 163/163
f 164/164 161/161 163/163
f 165/165 166/166 167/167
f 168/168 165/165 167/167
