# SCP CB Converted Room Mesh

v -256.0 1.52587890625e-05 256.0
v 256.0 1.52587890625e-05 256.0
v 256.0 1.52587890625e-05 -256.0
v -256.0 1.52587890625e-05 -256.0
v 3.0517578125e-05 416.00006103515625 224.0
v 3.0517578125e-05 448.0 224.0
v 256.0 448.0 224.0
v 256.0 342.857177734375 224.0
v 256.0 448.0 256.0
v 3.0517578125e-05 448.0 256.0
v 3.0517578125e-05 416.0 256.0
v 256.0 342.857177734375 256.0
v 256.0 342.857177734375 256.0
v 3.0517578125e-05 416.0 256.0
v 3.0517578125e-05 416.00006103515625 224.0
v 256.0 342.857177734375 224.0
v 208.0 200.00003051757812 224.0
v 167.4074249267578 368.1693115234375 224.0
v 256.0 342.857177734375 224.0
v 256.0 200.00003051757812 224.0
v 208.0 200.00003051757812 256.0
v 256.0 200.00003051757812 256.0
v 256.0 342.857177734375 256.0
v 167.4074249267578 368.1693115234375 256.0
v 208.0 200.00003051757812 256.0
v 167.4074249267578 368.1693115234375 256.0
v 167.4074249267578 368.1693115234375 224.0
v 208.0 200.00003051757812 224.0
v 100.79998779296875 387.20001220703125 224.0
v 167.4074249267578 368.1693115234375 224.0
v 182.5454559326172 305.45458984375 224.0
v 100.80000305175781 387.20001220703125 256.0
v 182.5454559326172 305.45458984375 256.0
v 167.4074249267578 368.1693115234375 256.0
v 182.5454559326172 305.45458984375 256.0
v 100.80000305175781 387.20001220703125 256.0
v 100.79998779296875 387.20001220703125 224.0
v 182.5454559326172 305.45458984375 224.0
v 0.0 448.0 224.0
v 0.0 416.00006103515625 224.0
v -255.99996948242188 342.857177734375 224.0
v -255.99996948242188 448.0 224.0
v 0.0 448.0 256.0
v -255.99996948242188 448.0 256.0
v -255.99996948242188 342.857177734375 256.0
v 0.0 416.0 256.0
v 0.0 416.0 256.0
v -255.99996948242188 342.857177734375 256.0
v -255.99996948242188 342.857177734375 224.0
v 0.0 416.00006103515625 224.0
v -167.4073944091797 368.1693115234375 224.0
v -207.99996948242188 200.00003051757812 224.0
v -255.99996948242188 200.00003051757812 224.0
v -255.99996948242188 342.857177734375 224.0
v -255.99996948242188 200.00003051757812 256.0
v -207.99996948242188 200.00003051757812 256.0
v -167.4073944091797 368.1693115234375 256.0
v -255.99996948242188 342.857177734375 256.0
v -167.4073944091797 368.1693115234375 256.0
v -207.99996948242188 200.00003051757812 256.0
v -207.99996948242188 200.00003051757812 224.0
v -167.4073944091797 368.1693115234375 224.0
v -182.54542541503906 305.45458984375 224.0
v -167.4073944091797 368.1693115234375 224.0
v -100.79995727539062 387.20001220703125 224.0
v -167.4073944091797 368.1693115234375 256.0
v -182.54542541503906 305.45458984375 256.0
v -100.79997253417969 387.20001220703125 256.0
v -100.79997253417969 387.20001220703125 256.0
v -182.54542541503906 305.45458984375 256.0
v -182.54542541503906 305.45458984375 224.0
v -100.79995727539062 387.20001220703125 224.0
v 3.0517578125e-05 -47.999969482421875 224.0
v 3.0517578125e-05 -16.0 224.0
v 256.0 57.14288330078125 224.0
v 256.0 -47.999969482421875 224.0
v 3.0517578125e-05 -47.999969482421875 256.0
v 256.0 -47.999969482421875 256.0
v 256.0 57.14288330078125 256.0
v 3.0517578125e-05 -15.999969482421875 256.0
v 3.0517578125e-05 -15.999969482421875 256.0
v 256.0 57.14288330078125 256.0
v 256.0 57.14288330078125 224.0
v 3.0517578125e-05 -16.0 224.0
v 167.4074249267578 31.830718994140625 224.0
v 208.0 200.00001525878906 224.0
v 256.0 200.00001525878906 224.0
v 256.0 57.14288330078125 224.0
v 256.0 200.00001525878906 256.0
v 208.0 200.00001525878906 256.0
v 167.4074249267578 31.830718994140625 256.0
v 256.0 57.14288330078125 256.0
v 167.4074249267578 31.830718994140625 256.0
v 208.0 200.00001525878906 256.0
v 208.0 200.00001525878906 224.0
v 167.4074249267578 31.830718994140625 224.0
v 182.5454559326172 94.54544067382812 224.0
v 167.4074249267578 31.830718994140625 224.0
v 100.79998779296875 12.800018310546875 224.0
v 167.4074249267578 31.830718994140625 256.0
v 182.5454559326172 94.54544067382812 256.0
v 100.80000305175781 12.800018310546875 256.0
v 100.80000305175781 12.800018310546875 256.0
v 182.5454559326172 94.54544067382812 256.0
v 182.5454559326172 94.54544067382812 224.0
v 100.79998779296875 12.800018310546875 224.0
v 0.0 -16.0 224.0
v 0.0 -47.999969482421875 224.0
v -255.99996948242188 -47.999969482421875 224.0
v -255.99996948242188 57.14288330078125 224.0
v -255.99996948242188 -47.999969482421875 256.0
v 0.0 -47.999969482421875 256.0
v 0.0 -15.999969482421875 256.0
v -255.99996948242188 57.14288330078125 256.0
v -255.99996948242188 57.14288330078125 256.0
v 0.0 -15.999969482421875 256.0
v 0.0 -16.0 224.0
v -255.99996948242188 57.14288330078125 224.0
v -207.99996948242188 200.00001525878906 224.0
v -167.4073944091797 31.830718994140625 224.0
v -255.99996948242188 57.14288330078125 224.0
v -255.99996948242188 200.00001525878906 224.0
v -207.99996948242188 200.00001525878906 256.0
v -255.99996948242188 200.00001525878906 256.0
v -255.99996948242188 57.14288330078125 256.0
v -167.4073944091797 31.830718994140625 256.0
v -207.99996948242188 200.00001525878906 256.0
v -167.4073944091797 31.830718994140625 256.0
v -167.4073944091797 31.830718994140625 224.0
v -207.99996948242188 200.00001525878906 224.0
v -100.79995727539062 12.800018310546875 224.0
v -167.4073944091797 31.830718994140625 224.0
v -182.54542541503906 94.54544067382812 224.0
v -100.79997253417969 12.800018310546875 256.0
v -182.54542541503906 94.54544067382812 256.0
v -167.4073944091797 31.830718994140625 256.0
v -182.54542541503906 94.54544067382812 256.0
v -100.79997253417969 12.800018310546875 256.0
v -100.79995727539062 12.800018310546875 224.0
v -182.54542541503906 94.54544067382812 224.0
v 224.0 416.00006103515625 0.0
v 224.0 448.0 0.0
v 224.0 448.0 -256.0
v 224.0 342.857177734375 -256.0
v 256.0 448.0 -256.0
v 256.0 448.0 0.0
v 256.0 416.0 0.0
v 256.0 342.857177734375 -256.0
v 256.0 342.857177734375 -256.0
v 256.0 416.0 0.0
v 224.0 416.00006103515625 0.0
v 224.0 342.857177734375 -256.0
v 224.0 200.0000457763672 -208.0
v 224.0 368.1693115234375 -167.40740966796875
v 224.0 342.857177734375 -256.0
v 224.0 200.0000457763672 -256.0
v 256.0 200.0000457763672 -208.0
v 256.0 200.0000457763672 -256.0
v 256.0 342.857177734375 -256.0
v 256.0 368.1693115234375 -167.40740966796875
v 256.0 200.0000457763672 -208.0
v 256.0 368.1693115234375 -167.40740966796875
v 224.0 368.1693115234375 -167.40740966796875
v 224.0 200.0000457763672 -208.0
v 224.0 387.20001220703125 -100.79998779296875
v 224.0 368.1693115234375 -167.40740966796875
v 224.0 305.45458984375 -182.54547119140625
v 256.0 387.20001220703125 -100.79998779296875
v 256.0 305.45458984375 -182.54547119140625
v 256.0 368.1693115234375 -167.40740966796875
v 256.0 305.45458984375 -182.54547119140625
v 256.0 387.20001220703125 -100.79998779296875
v 224.0 387.20001220703125 -100.79998779296875
v 224.0 305.45458984375 -182.54547119140625
v 224.0 448.0 0.0
v 224.0 416.00006103515625 0.0
v 224.0 342.857177734375 255.99996948242188
v 224.0 448.0 255.99996948242188
v 256.0 448.0 0.0
v 256.0 448.0 255.99996948242188
v 256.0 342.857177734375 255.99996948242188
v 256.0 416.0 0.0
v 256.0 416.0 0.0
v 256.0 342.857177734375 255.99996948242188
v 224.0 342.857177734375 255.99996948242188
v 224.0 416.00006103515625 0.0
v 224.0 368.1693115234375 167.40740966796875
v 224.0 200.0000457763672 207.99993896484375
v 224.0 200.0000457763672 255.99993896484375
v 224.0 342.857177734375 255.99993896484375
v 256.0 200.0000457763672 255.99993896484375
v 256.0 200.0000457763672 207.99993896484375
v 256.0 368.1693115234375 167.40740966796875
v 256.0 342.857177734375 255.99993896484375
v 256.0 368.1693115234375 167.40740966796875
v 256.0 200.0000457763672 207.99993896484375
v 224.0 200.0000457763672 207.99993896484375
v 224.0 368.1693115234375 167.40740966796875
v 224.0 305.45458984375 182.54541015625
v 224.0 368.1693115234375 167.40740966796875
v 224.0 387.20001220703125 100.7999267578125
v 256.0 368.1693115234375 167.40740966796875
v 256.0 305.45458984375 182.54541015625
v 256.0 387.20001220703125 100.79998779296875
v 256.0 387.20001220703125 100.79998779296875
v 256.0 305.45458984375 182.54541015625
v 224.0 305.45458984375 182.54541015625
v 224.0 387.20001220703125 100.7999267578125
v 224.0 -47.99995422363281 0.0
v 224.0 -15.999984741210938 0.0
v 224.0 57.14289855957031 -256.0
v 224.0 -47.99995422363281 -256.0
v 256.0 -47.99995422363281 0.0
v 256.0 -47.99995422363281 -256.0
v 256.0 57.14289855957031 -256.0
v 256.0 -15.999954223632812 0.0
v 256.0 -15.999954223632812 0.0
v 256.0 57.14289855957031 -256.0
v 224.0 57.14289855957031 -256.0
v 224.0 -15.999984741210938 0.0
v 224.0 31.830734252929688 -167.40740966796875
v 224.0 200.00003051757812 -208.0
v 224.0 200.00003051757812 -256.0
v 224.0 57.14289855957031 -256.0
v 256.0 200.00003051757812 -256.0
v 256.0 200.00003051757812 -208.0
v 256.0 31.830734252929688 -167.40740966796875
v 256.0 57.14289855957031 -256.0
v 256.0 31.830734252929688 -167.40740966796875
v 256.0 200.00003051757812 -208.0
v 224.0 200.00003051757812 -208.0
v 224.0 31.830734252929688 -167.40740966796875
v 224.0 94.54545593261719 -182.54547119140625
v 224.0 31.830734252929688 -167.40740966796875
v 224.0 12.800033569335938 -100.79998779296875
v 256.0 31.830734252929688 -167.40740966796875
v 256.0 94.54545593261719 -182.54547119140625
v 256.0 12.800033569335938 -100.79998779296875
v 256.0 12.800033569335938 -100.79998779296875
v 256.0 94.54545593261719 -182.54547119140625
v 224.0 94.54545593261719 -182.54547119140625
v 224.0 12.800033569335938 -100.79998779296875
v 224.0 -15.999984741210938 0.0
v 224.0 -47.99995422363281 0.0
v 224.0 -47.99995422363281 255.99996948242188
v 224.0 57.14289855957031 255.99996948242188
v 256.0 -47.99995422363281 255.99996948242188
v 256.0 -47.99995422363281 0.0
v 256.0 -15.999954223632812 0.0
v 256.0 57.14289855957031 255.99996948242188
v 256.0 57.14289855957031 255.99996948242188
v 256.0 -15.999954223632812 0.0
v 224.0 -15.999984741210938 0.0
v 224.0 57.14289855957031 255.99996948242188
v 224.0 200.00003051757812 207.99993896484375
v 224.0 31.830734252929688 167.40740966796875
v 224.0 57.14289855957031 255.99993896484375
v 224.0 200.00003051757812 255.99993896484375
v 256.0 200.00003051757812 207.99993896484375
v 256.0 200.00003051757812 255.99993896484375
v 256.0 57.14289855957031 255.99993896484375
v 256.0 31.830734252929688 167.40740966796875
v 256.0 200.00003051757812 207.99993896484375
v 256.0 31.830734252929688 167.40740966796875
v 224.0 31.830734252929688 167.40740966796875
v 224.0 200.00003051757812 207.99993896484375
v 224.0 12.800033569335938 100.7999267578125
v 224.0 31.830734252929688 167.40740966796875
v 224.0 94.54545593261719 182.54541015625
v 256.0 12.800033569335938 100.79998779296875
v 256.0 94.54545593261719 182.54541015625
v 256.0 31.830734252929688 167.40740966796875
v 256.0 94.54545593261719 182.54541015625
v 256.0 12.800033569335938 100.79998779296875
v 224.0 12.800033569335938 100.7999267578125
v 224.0 94.54545593261719 182.54541015625
v -256.0 448.0 -256.0
v -256.0 448.0 224.0
v -256.0 -47.99995422363281 224.0
v -256.0 -47.99995422363281 -256.0
v 224.0 -47.99995422363281 -256.0
v 224.0 448.0 -256.0
v -256.0 448.0 -256.0
v -256.0 -47.99995422363281 -256.0
v 256.0 432.0 256.0
v -256.0 432.0 256.0
v -256.0 432.0 -256.0
v 256.0 432.0 -256.0
v 84.00003051757812 4.0000152587890625 84.00006103515625
v 255.99996948242188 4.0000152587890625 84.00006103515625
v 255.99996948242188 4.0000152587890625 -83.99993896484375
v -84.00009155273438 4.0000152587890625 -83.99993896484375
v 255.99996948242188 4.0000152587890625 -83.99993896484375
v 255.99996948242188 1.5139579772949219e-05 -83.99993896484375
v -84.00009155273438 1.5139579772949219e-05 -83.99993896484375
v -84.00009155273438 4.0000152587890625 -83.99993896484375
v 84.00003051757812 4.0000152587890625 84.00006103515625
v 84.00003051757812 1.5139579772949219e-05 84.00006103515625
v 255.99996948242188 1.5139579772949219e-05 84.00006103515625
v 255.99996948242188 4.0000152587890625 84.00006103515625
v -84.0000228881836 4.00001335144043 256.0000305175781
v 83.9999771118164 4.000017166137695 256.0000305175781
v 83.9999771118164 4.000017166137695 84.0001220703125
v -84.0000228881836 4.00001335144043 -84.0
v 83.9999771118164 1.704692840576172e-05 84.0001220703125
v 83.9999771118164 4.000017166137695 84.0001220703125
v 83.9999771118164 4.000017166137695 256.0000305175781
v 83.9999771118164 1.704692840576172e-05 256.0000305175781
v -84.0000228881836 1.3113021850585938e-05 256.0000305175781
v -84.0000228881836 4.00001335144043 256.0000305175781
v -84.0000228881836 4.00001335144043 -84.0
v -84.0000228881836 1.3113021850585938e-05 -84.0
v 24.0 432.0 -16.0
v 24.0 428.0 -16.0
v -24.0 428.0 -16.0
v -24.0 432.0 -16.0
v 24.0 428.0 16.0
v 24.0 432.0 16.0
v -24.0 432.0 16.0
v -24.0 428.0 16.0
v 24.0 428.0 16.0
v -24.0 428.0 16.0
v -24.0 428.0 -16.0
v 24.0 428.0 -16.0
v -24.0 432.0 16.0
v -24.0 432.0 -16.0
v -24.0 428.0 -16.0
v -24.0 428.0 16.0
v 24.0 432.0 -16.0
v 24.0 432.0 16.0
v 24.0 428.0 16.0
v 24.0 428.0 -16.0
vt -1.0 2.0
vt 1.0 2.0
vt 1.0 0.0
vt -1.0 0.0
vt 1.1920928955078125e-07 2.625000238418579
vt 1.1920928955078125e-07 2.75
vt 1.0 2.75
vt 1.0 2.3392858505249023
vt 1.0 2.75
vt 1.1920928955078125e-07 2.75
vt 1.1920928955078125e-07 2.625
vt 1.0 2.3392858505249023
vt 1.0 0.0
vt 1.1920928955078125e-07 0.0
vt 1.1920928955078125e-07 -0.125
vt 1.0 -0.125
vt 0.8125 1.7812500596046448
vt 0.6539352536201477 2.4381613731384277
vt 1.0 2.3392858505249023
vt 1.0 1.7812500596046448
vt 0.8125 1.7812500596046448
vt 1.0 1.7812500596046448
vt 1.0 2.3392858505249023
vt 0.6539352536201477 2.4381613731384277
vt -1.0 1.7812500596046448
vt -1.0 2.4381613731384277
vt -1.125 2.4381613731384277
vt -1.125 1.7812500596046448
vt 0.3937499523162842 2.512500047683716
vt 0.6539352536201477 2.4381613731384277
vt 0.7130681872367859 2.1931819915771484
vt 0.39375001192092896 2.512500047683716
vt 0.7130681872367859 2.1931819915771484
vt 0.6539352536201477 2.4381613731384277
vt 0.7130681872367859 0.0
vt 0.39375001192092896 0.0
vt 0.3937499523162842 -0.125
vt 0.7130681872367859 -0.125
vt 1.0 2.75
vt 1.0 2.625000238418579
vt 1.1920928955078125e-07 2.3392858505249023
vt 1.1920928955078125e-07 2.75
vt 1.0 2.75
vt 1.1920928955078125e-07 2.75
vt 1.1920928955078125e-07 2.3392858505249023
vt 1.0 2.625
vt 1.0 0.0
vt 1.1920928955078125e-07 0.0
vt 1.1920928955078125e-07 -0.125
vt 1.0 -0.125
vt 0.34606486558914185 2.4381613731384277
vt 0.18750011920928955 1.7812500596046448
vt 1.1920928955078125e-07 1.7812500596046448
vt 1.1920928955078125e-07 2.3392858505249023
vt 1.1920928955078125e-07 1.7812500596046448
vt 0.18750011920928955 1.7812500596046448
vt 0.34606486558914185 2.4381613731384277
vt 1.1920928955078125e-07 2.3392858505249023
vt -1.0 2.4381613731384277
vt -1.0 1.7812500596046448
vt -1.125 1.7812500596046448
vt -1.125 2.4381613731384277
vt 0.28693193197250366 2.1931819915771484
vt 0.34606486558914185 2.4381613731384277
vt 0.6062501668930054 2.512500047683716
vt 0.34606486558914185 2.4381613731384277
vt 0.28693193197250366 2.1931819915771484
vt 0.6062501072883606 2.512500047683716
vt 0.6062501072883606 0.0
vt 0.28693193197250366 0.0
vt 0.28693193197250366 -0.125
vt 0.6062501668930054 -0.125
vt 1.1920928955078125e-07 1.7812500596046448
vt 1.1920928955078125e-07 1.9062499403953552
vt 1.0 2.1919643878936768
vt 1.0 1.7812500596046448
vt 1.1920928955078125e-07 1.7812500596046448
vt 1.0 1.7812500596046448
vt 1.0 2.1919643878936768
vt 1.1920928955078125e-07 1.9062500596046448
vt 1.1920928955078125e-07 0.0
vt 1.0 0.0
vt 1.0 -0.125
vt 1.1920928955078125e-07 -0.125
vt 0.6539352536201477 2.0930886268615723
vt 0.8125 2.75
vt 1.0 2.75
vt 1.0 2.1919643878936768
vt 1.0 2.75
vt 0.8125 2.75
vt 0.6539352536201477 2.0930886268615723
vt 1.0 2.1919643878936768
vt -1.0 2.0930886268615723
vt -1.0 2.75
vt -1.125 2.75
vt -1.125 2.0930886268615723
vt 0.7130681872367859 2.3380680084228516
vt 0.6539352536201477 2.0930886268615723
vt 0.3937499523162842 2.018749952316284
vt 0.6539352536201477 2.0930886268615723
vt 0.7130681872367859 2.3380680084228516
vt 0.39375001192092896 2.018749952316284
vt 0.39375001192092896 0.0
vt 0.7130681872367859 0.0
vt 0.7130681872367859 -0.125
vt 0.3937499523162842 -0.125
vt 1.0 1.9062499403953552
vt 1.0 1.7812500596046448
vt 1.1920928955078125e-07 1.7812500596046448
vt 1.1920928955078125e-07 2.1919643878936768
vt 1.1920928955078125e-07 1.7812500596046448
vt 1.0 1.7812500596046448
vt 1.0 1.9062500596046448
vt 1.1920928955078125e-07 2.1919643878936768
vt 1.1920928955078125e-07 0.0
vt 1.0 0.0
vt 1.0 -0.125
vt 1.1920928955078125e-07 -0.125
vt 0.18750011920928955 2.75
vt 0.34606486558914185 2.0930886268615723
vt 1.1920928955078125e-07 2.1919643878936768
vt 1.1920928955078125e-07 2.75
vt 0.18750011920928955 2.75
vt 1.1920928955078125e-07 2.75
vt 1.1920928955078125e-07 2.1919643878936768
vt 0.34606486558914185 2.0930886268615723
vt -1.0 2.75
vt -1.0 2.0930886268615723
vt -1.125 2.0930886268615723
vt -1.125 2.75
vt 0.6062501668930054 2.018749952316284
vt 0.34606486558914185 2.0930886268615723
vt 0.28693193197250366 2.3380680084228516
vt 0.6062501072883606 2.018749952316284
vt 0.28693193197250366 2.3380680084228516
vt 0.34606486558914185 2.0930886268615723
vt 0.28693193197250366 0.0
vt 0.6062501072883606 0.0
vt 0.6062501668930054 -0.125
vt 0.28693193197250366 -0.125
vt -4.0 2.625000238418579
vt -4.0 2.75
vt -5.0 2.75
vt -5.0 2.3392858505249023
vt -5.0 2.75
vt -4.0 2.75
vt -4.0 2.625
vt -5.0 2.3392858505249023
vt -1.0 -4.0
vt -1.0 -3.0
vt -1.125 -3.0
vt -1.125 -4.0
vt -4.8125 1.7812501192092896
vt -4.653935432434082 2.4381613731384277
vt -5.0 2.3392858505249023
vt -5.0 1.7812501192092896
vt -4.8125 1.7812501192092896
vt -5.0 1.7812501192092896
vt -5.0 2.3392858505249023
vt -4.653935432434082 2.4381613731384277
vt -1.0 1.7812501192092896
vt -1.0 2.4381613731384277
vt -1.125 2.4381613731384277
vt -1.125 1.7812501192092896
vt -4.393750190734863 2.5124998092651367
vt -4.653935432434082 2.4381611347198486
vt -4.713068008422852 2.1931817531585693
vt -4.393750190734863 2.5124998092651367
vt -4.713068008422852 2.1931817531585693
vt -4.653935432434082 2.4381611347198486
vt -1.0 -3.7130680084228516
vt -1.0 -3.3937501907348633
vt -1.125 -3.3937501907348633
vt -1.125 -3.7130680084228516
vt -3.0 2.75
vt -3.0 2.625000238418579
vt -2.0 2.3392858505249023
vt -2.0 2.75
vt -3.0 2.75
vt -2.0 2.75
vt -2.0 2.3392858505249023
vt -3.0 2.625
vt 0.0 -3.0
vt 0.0 -2.0
vt -0.125 -2.0
vt -0.125 -3.0
vt -2.346064805984497 2.4381613731384277
vt -2.187500238418579 1.7812501192092896
vt -2.000000238418579 1.7812501192092896
vt -2.000000238418579 2.3392858505249023
vt -2.000000238418579 1.7812501192092896
vt -2.187500238418579 1.7812501192092896
vt -2.346064805984497 2.4381613731384277
vt -2.000000238418579 2.3392858505249023
vt -1.0 2.4381613731384277
vt -1.0 1.7812501192092896
vt -1.125 1.7812501192092896
vt -1.125 2.4381613731384277
vt -2.2869319915771484 2.1931817531585693
vt -2.346064805984497 2.4381611347198486
vt -2.606250286102295 2.5124998092651367
vt -2.346064805984497 2.4381611347198486
vt -2.2869319915771484 2.1931817531585693
vt -2.606250047683716 2.5124998092651367
vt 0.0 0.5125000476837158
vt 0.0 0.19318199157714844
vt -0.125 0.19318199157714844
vt -0.125 0.5125000476837158
vt -4.0 1.7812500596046448
vt -4.0 1.9062499403953552
vt -5.0 2.1919643878936768
vt -5.0 1.7812500596046448
vt -4.0 1.7812500596046448
vt -5.0 1.7812500596046448
vt -5.0 2.1919643878936768
vt -4.0 1.9062500596046448
vt -1.0 -3.0
vt -1.0 -4.0
vt -1.125 -4.0
vt -1.125 -3.0
vt -4.653935432434082 2.0930886268615723
vt -4.8125 2.75
vt -5.0 2.75
vt -5.0 2.191964268684387
vt -5.0 2.75
vt -4.8125 2.75
vt -4.653935432434082 2.0930886268615723
vt -5.0 2.191964268684387
vt -1.0 2.0930886268615723
vt -1.0 2.75
vt -1.125 2.75
vt -1.125 2.0930886268615723
vt -4.713068008422852 2.338068127632141
vt -4.653935432434082 2.093088746070862
vt -4.393750190734863 2.0187500715255737
vt -4.653935432434082 2.093088746070862
vt -4.713068008422852 2.338068127632141
vt -4.393750190734863 2.0187500715255737
vt -1.0 -3.3937501907348633
vt -1.0 -3.7130680084228516
vt -1.125 -3.7130680084228516
vt -1.125 -3.3937501907348633
vt -3.0 1.9062499403953552
vt -3.0 1.7812500596046448
vt -2.0 1.7812500596046448
vt -2.0 2.1919643878936768
vt -2.0 1.7812500596046448
vt -3.0 1.7812500596046448
vt -3.0 1.9062500596046448
vt -2.0 2.1919643878936768
vt 0.0 -2.0
vt 0.0 -3.0
vt -0.125 -3.0
vt -0.125 -2.0
vt -2.187500238418579 2.75
vt -2.346064805984497 2.0930886268615723
vt -2.000000238418579 2.191964268684387
vt -2.000000238418579 2.75
vt -2.187500238418579 2.75
vt -2.000000238418579 2.75
vt -2.000000238418579 2.191964268684387
vt -2.346064805984497 2.0930886268615723
vt -1.0 2.75
vt -1.0 2.0930886268615723
vt -1.125 2.0930886268615723
vt -1.125 2.75
vt -2.606250286102295 2.0187500715255737
vt -2.346064805984497 2.093088746070862
vt -2.2869319915771484 2.338068127632141
vt -2.606250047683716 2.0187500715255737
vt -2.2869319915771484 2.338068127632141
vt -2.346064805984497 2.093088746070862
vt 0.0 -0.6306817531585693
vt 0.0 -0.9499998092651367
vt -0.125 -0.9499998092651367
vt -0.125 -0.6306817531585693
vt -3.0 2.75
vt -1.125 2.75
vt -1.125 0.8125001192092896
vt -3.0 0.8125001192092896
vt 0.875 0.8125001192092896
vt 0.875 2.75
vt -1.0 2.75
vt -1.0 0.8125001192092896
vt 4.875 4.125
vt 2.875 4.125
vt 2.875 2.125
vt 4.875 2.125
vt -0.005873858463019133 -1.0148022174835205
vt 1.0044641494750977 -1.0148022174835205
vt 1.0044641494750977 -2.0016441345214844
vt -0.9927166700363159 -2.0016441345214844
vt 1.0044641494750977 1.52279132604599
vt 1.0044641494750977 1.4992950856685638
vt -0.9927166700363159 1.4992950856685638
vt -0.9927166700363159 1.52279132604599
vt -0.005873858463019133 1.52279132604599
vt -0.005873858463019133 1.4992950856685638
vt 1.0044641494750977 1.4992950856685638
vt 1.0044641494750977 1.52279132604599
vt -0.9927162528038025 -0.004463911056518555
vt -0.005874172318726778 -0.004463911056518555
vt -0.005874172318726778 -1.0148017406463623
vt -0.9927162528038025 -2.0016446113586426
vt -3.0133919715881348 1.4992950856685638
vt -3.0133919715881348 1.52279132604599
vt -2.003054141998291 1.52279132604599
vt -2.003054141998291 1.4992950856685638
vt -2.003054141998291 1.4992950856685638
vt -2.003054141998291 1.52279132604599
vt -4.000234603881836 1.52279132604599
vt -4.000234603881836 1.4992950856685638
vt 0.34375 2.53125
vt 0.34375 2.515625
vt 0.15625 2.515625
vt 0.15625 2.53125
vt 0.34375 2.515625
vt 0.34375 2.53125
vt 0.15625 2.53125
vt 0.15625 2.515625
vt 0.34375 0.8671875
vt 0.15625 0.8671875
vt 0.15625 0.7421875
vt 0.34375 0.7421875
vt -0.1328125 2.53125
vt -0.2578125 2.53125
vt -0.2578125 2.515625
vt -0.1328125 2.515625
vt -0.2578125 2.53125
vt -0.1328125 2.53125
vt -0.1328125 2.515625
vt -0.2578125 2.515625

g RoomMesh_Geometry
f 1/1 2/2 3/3
f 4/4 1/1 3/3
f 5/5 6/6 7/7
f 8/8 5/5 7/7
f 9/9 10/10 11/11
f 12/12 9/9 11/11
f 13/13 14/14 15/15
f 16/16 13/13 15/15
f 17/17 18/18 19/19
f 20/20 17/17 19/19
f 21/21 22/22 23/23
f 24/24 21/21 23/23
f 25/25 26/26 27/27
f 28/28 25/25 27/27
f 29/29 30/30 31/31
f 32/32 33/33 34/34
f 35/35 36/36 37/37
f 38/38 35/35 37/37
f 39/39 40/40 41/41
f 42/42 39/39 41/41
f 43/43 44/44 45/45
f 46/46 43/43 45/45
f 47/47 48/48 49/49
f 50/50 47/47 49/49
f 51/51 52/52 53/53
f 54/54 51/51 53/53
f 55/55 56/56 57/57
f 58/58 55/55 57/57
f 59/59 60/60 61/61
f 62/62 59/59 61/61
f 63/63 64/64 65/65
f 66/66 67/67 68/68
f 69/69 70/70 71/71
f 72/72 69/69 71/71
f 73/73 74/74 75/75
f 76/76 73/73 75/75
f 77/77 78/78 79/79
f 80/80 77/77 79/79
f 81/81 82/82 83/83
f 84/84 81/81 83/83
f 85/85 86/86 87/87
f 88/88 85/85 87/87
f 89/89 90/90 91/91
f 92/92 89/89 91/91
f 93/93 94/94 95/95
f 96/96 93/93 95/95
f 97/97 98/98 99/99
f 100/100 101/101 102/102
f 103/103 104/104 105/105
f 106/106 103/103 105/105
f 107/107 108/108 109/109
f 110/110 107/107 109/109
f 111/111 112/112 113/113
f 114/114 111/111 113/113
f 115/115 116/116 117/117
f 118/118 115/115 117/117
f 119/119 120/120 121/121
f 122/122 119/119 121/121
f 123/123 124/124 125/125
f 126/126 123/123 125/125
f 127/127 128/128 129/129
f 130/130 127/127 129/129
f 131/131 132/132 133/133
f 134/134 135/135 136/136
f 137/137 138/138 139/139
f 140/140 137/137 139/139
f 141/141 142/142 143/143
f 144/144 141/141 143/143
f 145/145 146/146 147/147
f 148/148 145/145 147/147
f 149/149 150/150 151/151
f 152/152 149/149 151/151
f 153/153 154/154 155/155
f 156/156 153/153 155/155
f 157/157 158/158 159/159
f 160/160 157/157 159/159
f 161/161 162/162 163/163
f 164/164 161/161 163/163
f 165/165 166/166 167/167
f 168/168 169/169 170/170
f 171/171 172/172 173/173
f 174/174 171/171 173/173
f 175/175 176/176 177/177
f 178/178 175/175 177/177
f 179/179 180/180 181/181
f 182/182 179/179 181/181
f 183/183 184/184 185/185
f 186/186 183/183 185/185
f 187/187 188/188 189/189
f 190/190 187/187 189/189
f 191/191 192/192 193/193
f 194/194 191/191 193/193
f 195/195 196/196 197/197
f 198/198 195/195 197/197
f 199/199 200/200 201/201
f 202/202 203/203 204/204
f 205/205 206/206 207/207
f 208/208 205/205 207/207
f 209/209 210/210 211/211
f 212/212 209/209 211/211
f 213/213 214/214 215/215
f 216/216 213/213 215/215
f 217/217 218/218 219/219
f 220/220 217/217 219/219
f 221/221 222/222 223/223
f 224/224 221/221 223/223
f 225/225 226/226 227/227
f 228/228 225/225 227/227
f 229/229 230/230 231/231
f 232/232 229/229 231/231
f 233/233 234/234 235/235
f 236/236 237/237 238/238
f 239/239 240/240 241/241
f 242/242 239/239 241/241
f 243/243 244/244 245/245
f 246/246 243/243 245/245
f 247/247 248/248 249/249
f 250/250 247/247 249/249
f 251/251 252/252 253/253
f 254/254 251/251 253/253
f 255/255 256/256 257/257
f 258/258 255/255 257/257
f 259/259 260/260 261/261
f 262/262 259/259 261/261
f 263/263 264/264 265/265
f 266/266 263/263 265/265
f 267/267 268/268 269/269
f 270/270 271/271 272/272
f 273/273 274/274 275/275
f 276/276 273/273 275/275
f 277/277 278/278 279/279
f 280/280 277/277 279/279
f 281/281 282/282 283/283
f 284/284 281/281 283/283
f 285/285 286/286 287/287
f 288/288 285/285 287/287
f 289/289 290/290 291/291
f 292/292 289/289 291/291
f 293/293 294/294 295/295
f 296/296 293/293 295/295
f 297/297 298/298 299/299
f 300/300 297/297 299/299
f 301/301 302/302 303/303
f 304/304 301/301 303/303
f 305/305 306/306 307/307
f 308/308 305/305 307/307
f 309/309 310/310 311/311
f 312/312 309/309 311/311
f 313/313 314/314 315/315
f 316/316 313/313 315/315
f 317/317 318/318 319/319
f 320/320 317/317 319/319
f 321/321 322/322 323/323
f 324/324 321/321 323/323
f 325/325 326/326 327/327
f 328/328 325/325 327/327
f 329/329 330/330 331/331
f 332/332 329/329 331/331
