# SCP CB Converted Room Mesh

v -256.0 1.52587890625e-05 256.0
v 256.0 1.52587890625e-05 256.0
v 256.0 1.52587890625e-05 -256.0
v -256.0 1.52587890625e-05 -256.0
v 0.0 416.00006103515625 224.0
v 0.0 448.0 224.0
v 256.0 448.0 224.0
v 256.0 342.857177734375 224.0
v 256.0 448.0 256.0
v 0.0 448.0 256.0
v 0.0 416.0 256.0
v 256.0 342.857177734375 256.0
v 256.0 342.857177734375 256.0
v 0.0 416.0 256.0
v 0.0 416.00006103515625 224.0
v 256.0 342.857177734375 224.0
v 208.0 200.00003051757812 224.0
v 167.407470703125 368.1693115234375 224.0
v 256.0 342.857177734375 224.0
v 256.0 200.00003051757812 224.0
v 208.0 200.00003051757812 256.0
v 256.0 200.00003051757812 256.0
v 256.0 342.857177734375 256.0
v 167.407470703125 368.1693115234375 256.0
v 208.0 200.00003051757812 256.0
v 167.407470703125 368.1693115234375 256.0
v 167.407470703125 368.1693115234375 224.0
v 208.0 200.00003051757812 224.0
v 100.800048828125 387.20001220703125 224.0
v 167.407470703125 368.1693115234375 224.0
v 182.54541015625 305.45458984375 224.0
v 100.800048828125 387.20001220703125 256.0
v 182.54541015625 305.45458984375 256.0
v 167.407470703125 368.1693115234375 256.0
v 182.54541015625 305.45458984375 256.0
v 100.800048828125 387.20001220703125 256.0
v 100.800048828125 387.20001220703125 224.0
v 182.54541015625 305.45458984375 224.0
v 0.0 448.0 224.0
v 0.0 416.00006103515625 224.0
v -256.0 342.857177734375 224.0
v -256.0 448.0 224.0
v 0.0 448.0 256.0
v -256.0 448.0 256.0
v -256.0 342.857177734375 256.0
v 0.0 416.0 256.0
v 0.0 416.0 256.0
v -256.0 342.857177734375 256.0
v -256.0 342.857177734375 224.0
v 0.0 416.00006103515625 224.0
v -167.40740966796875 368.1693115234375 224.0
v -208.0 200.00003051757812 224.0
v -256.0 200.00003051757812 224.0
v -256.0 342.857177734375 224.0
v -256.0 200.00003051757812 256.0
v -208.0 200.00003051757812 256.0
v -167.40740966796875 368.1693115234375 256.0
v -256.0 342.857177734375 256.0
v -167.40740966796875 368.1693115234375 256.0
v -208.0 200.00003051757812 256.0
v -208.0 200.00003051757812 224.0
v -167.40740966796875 368.1693115234375 224.0
v -182.54541015625 305.45458984375 224.0
v -167.40740966796875 368.1693115234375 224.0
v -100.7999267578125 387.20001220703125 224.0
v -167.40740966796875 368.1693115234375 256.0
v -182.54541015625 305.45458984375 256.0
v -100.79998779296875 387.20001220703125 256.0
v -100.79998779296875 387.20001220703125 256.0
v -182.54541015625 305.45458984375 256.0
v -182.54541015625 305.45458984375 224.0
v -100.7999267578125 387.20001220703125 224.0
v 0.0 -47.999969482421875 224.0
v 0.0 -16.0 224.0
v 256.0 57.14288330078125 224.0
v 256.0 -47.999969482421875 224.0
v 0.0 -47.999969482421875 256.0
v 256.0 -47.999969482421875 256.0
v 256.0 57.14288330078125 256.0
v 0.0 -15.999969482421875 256.0
v 0.0 -15.999969482421875 256.0
v 256.0 57.14288330078125 256.0
v 256.0 57.14288330078125 224.0
v 0.0 -16.0 224.0
v 167.407470703125 31.830718994140625 224.0
v 208.0 200.00001525878906 224.0
v 256.0 200.00001525878906 224.0
v 256.0 57.14288330078125 224.0
v 256.0 200.00001525878906 256.0
v 208.0 200.00001525878906 256.0
v 167.407470703125 31.830718994140625 256.0
v 256.0 57.14288330078125 256.0
v 167.407470703125 31.830718994140625 256.0
v 208.0 200.00001525878906 256.0
v 208.0 200.00001525878906 224.0
v 167.407470703125 31.830718994140625 224.0
v 182.54541015625 94.54544067382812 224.0
v 167.407470703125 31.830718994140625 224.0
v 100.800048828125 12.800018310546875 224.0
v 167.407470703125 31.830718994140625 256.0
v 182.54541015625 94.54544067382812 256.0
v 100.800048828125 12.800018310546875 256.0
v 100.800048828125 12.800018310546875 256.0
v 182.54541015625 94.54544067382812 256.0
v 182.54541015625 94.54544067382812 224.0
v 100.800048828125 12.800018310546875 224.0
v 0.0 -16.0 224.0
v 0.0 -47.999969482421875 224.0
v -256.0 -47.999969482421875 224.0
v -256.0 57.14288330078125 224.0
v -256.0 -47.999969482421875 256.0
v 0.0 -47.999969482421875 256.0
v 0.0 -15.999969482421875 256.0
v -256.0 57.14288330078125 256.0
v -256.0 57.14288330078125 256.0
v 0.0 -15.999969482421875 256.0
v 0.0 -16.0 224.0
v -256.0 57.14288330078125 224.0
v -208.0 200.00001525878906 224.0
v -167.40740966796875 31.830718994140625 224.0
v -256.0 57.14288330078125 224.0
v -256.0 200.00001525878906 224.0
v -208.0 200.00001525878906 256.0
v -256.0 200.00001525878906 256.0
v -256.0 57.14288330078125 256.0
v -167.40740966796875 31.830718994140625 256.0
v -208.0 200.00001525878906 256.0
v -167.40740966796875 31.830718994140625 256.0
v -167.40740966796875 31.830718994140625 224.0
v -208.0 200.00001525878906 224.0
v -100.7999267578125 12.800018310546875 224.0
v -167.40740966796875 31.830718994140625 224.0
v -182.54541015625 94.54544067382812 224.0
v -100.79998779296875 12.800018310546875 256.0
v -182.54541015625 94.54544067382812 256.0
v -167.40740966796875 31.830718994140625 256.0
v -182.54541015625 94.54544067382812 256.0
v -100.79998779296875 12.800018310546875 256.0
v -100.7999267578125 12.800018310546875 224.0
v -182.54541015625 94.54544067382812 224.0
v 224.0 416.00006103515625 0.0
v 224.0 448.0 0.0
v 224.0 448.0 -256.0
v 224.0 342.857177734375 -256.0
v 256.0 448.0 -256.0
v 256.0 448.0 0.0
v 256.0 416.0 0.0
v 256.0 342.857177734375 -256.0
v 256.0 342.857177734375 -256.0
v 256.0 416.0 0.0
v 224.0 416.00006103515625 0.0
v 224.0 342.857177734375 -256.0
v 224.0 200.00003051757812 -208.0
v 224.0 368.1693115234375 -167.40740966796875
v 224.0 342.857177734375 -256.0
v 224.0 200.00003051757812 -256.0
v 256.0 200.00003051757812 -208.0
v 256.0 200.00003051757812 -256.0
v 256.0 342.857177734375 -256.0
v 256.0 368.1693115234375 -167.40740966796875
v 256.0 200.00003051757812 -208.0
v 256.0 368.1693115234375 -167.40740966796875
v 224.0 368.1693115234375 -167.40740966796875
v 224.0 200.00003051757812 -208.0
v 224.0 387.20001220703125 -100.79998779296875
v 224.0 368.1693115234375 -167.40740966796875
v 224.0 305.45458984375 -182.54547119140625
v 256.0 387.20001220703125 -100.79998779296875
v 256.0 305.45458984375 -182.54547119140625
v 256.0 368.1693115234375 -167.40740966796875
v 256.0 305.45458984375 -182.54547119140625
v 256.0 387.20001220703125 -100.79998779296875
v 224.0 387.20001220703125 -100.79998779296875
v 224.0 305.45458984375 -182.54547119140625
v 224.0 448.0 0.0
v 224.0 416.00006103515625 0.0
v 224.0 342.857177734375 256.0
v 224.0 448.0 256.0
v 256.0 448.0 0.0
v 256.0 448.0 256.0
v 256.0 342.857177734375 256.0
v 256.0 416.0 0.0
v 256.0 416.0 0.0
v 256.0 342.857177734375 256.0
v 224.0 342.857177734375 256.0
v 224.0 416.00006103515625 0.0
v 224.0 368.1693115234375 167.40740966796875
v 224.0 200.00003051757812 207.99993896484375
v 224.0 200.00003051757812 255.99993896484375
v 224.0 342.857177734375 255.99993896484375
v 256.0 200.00003051757812 255.99993896484375
v 256.0 200.00003051757812 207.99993896484375
v 256.0 368.1693115234375 167.40740966796875
v 256.0 342.857177734375 255.99993896484375
v 256.0 368.1693115234375 167.40740966796875
v 256.0 200.00003051757812 207.99993896484375
v 224.0 200.00003051757812 207.99993896484375
v 224.0 368.1693115234375 167.40740966796875
v 224.0 305.45458984375 182.54541015625
v 224.0 368.1693115234375 167.40740966796875
v 224.0 387.20001220703125 100.7999267578125
v 256.0 368.1693115234375 167.40740966796875
v 256.0 305.45458984375 182.54541015625
v 256.0 387.20001220703125 100.79998779296875
v 256.0 387.20001220703125 100.79998779296875
v 256.0 305.45458984375 182.54541015625
v 224.0 305.45458984375 182.54541015625
v 224.0 387.20001220703125 100.7999267578125
v 224.0 -47.999969482421875 0.0
v 224.0 -16.0 0.0
v 224.0 57.14288330078125 -256.0
v 224.0 -47.999969482421875 -256.0
v 256.0 -47.999969482421875 0.0
v 256.0 -47.999969482421875 -256.0
v 256.0 57.14288330078125 -256.0
v 256.0 -15.999969482421875 0.0
v 256.0 -15.999969482421875 0.0
v 256.0 57.14288330078125 -256.0
v 224.0 57.14288330078125 -256.0
v 224.0 -16.0 0.0
v 224.0 31.830718994140625 -167.40740966796875
v 224.0 200.00001525878906 -208.0
v 224.0 200.00001525878906 -256.0
v 224.0 57.14288330078125 -256.0
v 256.0 200.00001525878906 -256.0
v 256.0 200.00001525878906 -208.0
v 256.0 31.830718994140625 -167.40740966796875
v 256.0 57.14288330078125 -256.0
v 256.0 31.830718994140625 -167.40740966796875
v 256.0 200.00001525878906 -208.0
v 224.0 200.00001525878906 -208.0
v 224.0 31.830718994140625 -167.40740966796875
v 224.0 94.54544067382812 -182.54547119140625
v 224.0 31.830718994140625 -167.40740966796875
v 224.0 12.800018310546875 -100.79998779296875
v 256.0 31.830718994140625 -167.40740966796875
v 256.0 94.54544067382812 -182.54547119140625
v 256.0 12.800018310546875 -100.79998779296875
v 256.0 12.800018310546875 -100.79998779296875
v 256.0 94.54544067382812 -182.54547119140625
v 224.0 94.54544067382812 -182.54547119140625
v 224.0 12.800018310546875 -100.79998779296875
v 224.0 -16.0 0.0
v 224.0 -47.999969482421875 0.0
v 224.0 -47.999969482421875 256.0
v 224.0 57.14288330078125 256.0
v 256.0 -47.999969482421875 256.0
v 256.0 -47.999969482421875 0.0
v 256.0 -15.999969482421875 0.0
v 256.0 57.14288330078125 256.0
v 256.0 57.14288330078125 256.0
v 256.0 -15.999969482421875 0.0
v 224.0 -16.0 0.0
v 224.0 57.14288330078125 256.0
v 224.0 200.00001525878906 207.99993896484375
v 224.0 31.830718994140625 167.40740966796875
v 224.0 57.14288330078125 255.99993896484375
v 224.0 200.00001525878906 255.99993896484375
v 256.0 200.00001525878906 207.99993896484375
v 256.0 200.00001525878906 255.99993896484375
v 256.0 57.14288330078125 255.99993896484375
v 256.0 31.830718994140625 167.40740966796875
v 256.0 200.00001525878906 207.99993896484375
v 256.0 31.830718994140625 167.40740966796875
v 224.0 31.830718994140625 167.40740966796875
v 224.0 200.00001525878906 207.99993896484375
v 224.0 12.800018310546875 100.7999267578125
v 224.0 31.830718994140625 167.40740966796875
v 224.0 94.54544067382812 182.54541015625
v 256.0 12.800018310546875 100.79998779296875
v 256.0 94.54544067382812 182.54541015625
v 256.0 31.830718994140625 167.40740966796875
v 256.0 94.54544067382812 182.54541015625
v 256.0 12.800018310546875 100.79998779296875
v 224.0 12.800018310546875 100.7999267578125
v 224.0 94.54544067382812 182.54541015625
v 0.0 416.00006103515625 -256.0
v 0.0 448.0 -256.0
v 256.0 448.0 -256.0
v 256.0 342.857177734375 -256.0
v 256.0 448.0 -224.0
v 0.0 448.0 -224.0
v 0.0 416.0 -224.0
v 256.0 342.857177734375 -224.0
v 256.0 342.857177734375 -224.0
v 0.0 416.0 -224.0
v 0.0 416.00006103515625 -256.0
v 256.0 342.857177734375 -256.0
v 208.0 200.00003051757812 -256.0
v 167.407470703125 368.1693115234375 -256.0
v 256.0 342.857177734375 -256.0
v 256.0 200.00003051757812 -256.0
v 208.0 200.00003051757812 -224.0
v 256.0 200.00003051757812 -224.0
v 256.0 342.857177734375 -224.0
v 167.407470703125 368.1693115234375 -224.0
v 208.0 200.00003051757812 -224.0
v 167.407470703125 368.1693115234375 -224.0
v 167.407470703125 368.1693115234375 -256.0
v 208.0 200.00003051757812 -256.0
v 100.800048828125 387.20001220703125 -256.0
v 167.407470703125 368.1693115234375 -256.0
v 182.54541015625 305.45458984375 -256.0
v 100.800048828125 387.20001220703125 -224.0
v 182.54541015625 305.45458984375 -224.0
v 167.407470703125 368.1693115234375 -224.0
v 182.54541015625 305.45458984375 -224.0
v 100.800048828125 387.20001220703125 -224.0
v 100.800048828125 387.20001220703125 -256.0
v 182.54541015625 305.45458984375 -256.0
v 0.0 448.0 -256.0
v 0.0 416.00006103515625 -256.0
v -256.0 342.857177734375 -256.0
v -256.0 448.0 -256.0
v 0.0 448.0 -224.0
v -256.0 448.0 -224.0
v -256.0 342.857177734375 -224.0
v 0.0 416.0 -224.0
v 0.0 416.0 -224.0
v -256.0 342.857177734375 -224.0
v -256.0 342.857177734375 -256.0
v 0.0 416.00006103515625 -256.0
v -167.40740966796875 368.1693115234375 -256.0
v -208.0 200.00003051757812 -256.0
v -256.0 200.00003051757812 -256.0
v -256.0 342.857177734375 -256.0
v -256.0 200.00003051757812 -224.0
v -208.0 200.00003051757812 -224.0
v -167.40740966796875 368.1693115234375 -224.0
v -256.0 342.857177734375 -224.0
v -167.40740966796875 368.1693115234375 -224.0
v -208.0 200.00003051757812 -224.0
v -208.0 200.00003051757812 -256.0
v -167.40740966796875 368.1693115234375 -256.0
v -182.54541015625 305.45458984375 -256.0
v -167.40740966796875 368.1693115234375 -256.0
v -100.7999267578125 387.20001220703125 -256.0
v -167.40740966796875 368.1693115234375 -224.0
v -182.54541015625 305.45458984375 -224.0
v -100.79998779296875 387.20001220703125 -224.0
v -100.79998779296875 387.20001220703125 -224.0
v -182.54541015625 305.45458984375 -224.0
v -182.54541015625 305.45458984375 -256.0
v -100.7999267578125 387.20001220703125 -256.0
v 0.0 -47.999969482421875 -256.0
v 0.0 -16.0 -256.0
v 256.0 57.14288330078125 -256.0
v 256.0 -47.999969482421875 -256.0
v 0.0 -47.999969482421875 -224.0
v 256.0 -47.999969482421875 -224.0
v 256.0 57.14288330078125 -224.0
v 0.0 -15.999969482421875 -224.0
v 0.0 -15.999969482421875 -224.0
v 256.0 57.14288330078125 -224.0
v 256.0 57.14288330078125 -256.0
v 0.0 -16.0 -256.0
v 167.407470703125 31.830718994140625 -256.0
v 208.0 200.00001525878906 -256.0
v 256.0 200.00001525878906 -256.0
v 256.0 57.14288330078125 -256.0
v 256.0 200.00001525878906 -224.0
v 208.0 200.00001525878906 -224.0
v 167.407470703125 31.830718994140625 -224.0
v 256.0 57.14288330078125 -224.0
v 167.407470703125 31.830718994140625 -224.0
v 208.0 200.00001525878906 -224.0
v 208.0 200.00001525878906 -256.0
v 167.407470703125 31.830718994140625 -256.0
v 182.54541015625 94.54544067382812 -256.0
v 167.407470703125 31.830718994140625 -256.0
v 100.800048828125 12.800018310546875 -256.0
v 167.407470703125 31.830718994140625 -224.0
v 182.54541015625 94.54544067382812 -224.0
v 100.800048828125 12.800018310546875 -224.0
v 100.800048828125 12.800018310546875 -224.0
v 182.54541015625 94.54544067382812 -224.0
v 182.54541015625 94.54544067382812 -256.0
v 100.800048828125 12.800018310546875 -256.0
v 0.0 -16.0 -256.0
v 0.0 -47.999969482421875 -256.0
v -256.0 -47.999969482421875 -256.0
v -256.0 57.14288330078125 -256.0
v -256.0 -47.999969482421875 -224.0
v 0.0 -47.999969482421875 -224.0
v 0.0 -15.999969482421875 -224.0
v -256.0 57.14288330078125 -224.0
v -256.0 57.14288330078125 -224.0
v 0.0 -15.999969482421875 -224.0
v 0.0 -16.0 -256.0
v -256.0 57.14288330078125 -256.0
v -208.0 200.00001525878906 -256.0
v -167.40740966796875 31.830718994140625 -256.0
v -256.0 57.14288330078125 -256.0
v -256.0 200.00001525878906 -256.0
v -208.0 200.00001525878906 -224.0
v -256.0 200.00001525878906 -224.0
v -256.0 57.14288330078125 -224.0
v -167.40740966796875 31.830718994140625 -224.0
v -208.0 200.00001525878906 -224.0
v -167.40740966796875 31.830718994140625 -224.0
v -167.40740966796875 31.830718994140625 -256.0
v -208.0 200.00001525878906 -256.0
v -100.7999267578125 12.800018310546875 -256.0
v -167.40740966796875 31.830718994140625 -256.0
v -182.54541015625 94.54544067382812 -256.0
v -100.79998779296875 12.800018310546875 -224.0
v -182.54541015625 94.54544067382812 -224.0
v -167.40740966796875 31.830718994140625 -224.0
v -182.54541015625 94.54544067382812 -224.0
v -100.79998779296875 12.800018310546875 -224.0
v -100.7999267578125 12.800018310546875 -256.0
v -182.54541015625 94.54544067382812 -256.0
v -256.0 416.00006103515625 0.0
v -256.0 448.0 0.0
v -256.0 448.0 -256.0
v -256.0 342.857177734375 -256.0
v -224.0 448.0 -256.0
v -224.0 448.0 0.0
v -224.0 416.0 0.0
v -224.0 342.857177734375 -256.0
v -224.0 342.857177734375 -256.0
v -224.0 416.0 0.0
v -256.0 416.00006103515625 0.0
v -256.0 342.857177734375 -256.0
v -256.0 200.00003051757812 -208.0
v -256.0 368.1693115234375 -167.40740966796875
v -256.0 342.857177734375 -256.0
v -256.0 200.00003051757812 -256.0
v -224.0 200.00003051757812 -208.0
v -224.0 200.00003051757812 -256.0
v -224.0 342.857177734375 -256.0
v -224.0 368.1693115234375 -167.40740966796875
v -224.0 200.00003051757812 -208.0
v -224.0 368.1693115234375 -167.40740966796875
v -256.0 368.1693115234375 -167.40740966796875
v -256.0 200.00003051757812 -208.0
v -256.0 387.20001220703125 -100.79998779296875
v -256.0 368.1693115234375 -167.40740966796875
v -256.0 305.45458984375 -182.54547119140625
v -224.0 387.20001220703125 -100.79998779296875
v -224.0 305.45458984375 -182.54547119140625
v -224.0 368.1693115234375 -167.40740966796875
v -224.0 305.45458984375 -182.54547119140625
v -224.0 387.20001220703125 -100.79998779296875
v -256.0 387.20001220703125 -100.79998779296875
v -256.0 305.45458984375 -182.54547119140625
v -256.0 448.0 0.0
v -256.0 416.00006103515625 0.0
v -256.0 342.857177734375 256.0
v -256.0 448.0 256.0
v -224.0 448.0 0.0
v -224.0 448.0 256.0
v -224.0 342.857177734375 256.0
v -224.0 416.0 0.0
v -224.0 416.0 0.0
v -224.0 342.857177734375 256.0
v -256.0 342.857177734375 256.0
v -256.0 416.00006103515625 0.0
v -256.0 368.1693115234375 167.40740966796875
v -256.0 200.00003051757812 207.99993896484375
v -256.0 200.00003051757812 255.99993896484375
v -256.0 342.857177734375 255.99993896484375
v -224.0 200.00003051757812 255.99993896484375
v -224.0 200.00003051757812 207.99993896484375
v -224.0 368.1693115234375 167.40740966796875
v -224.0 342.857177734375 255.99993896484375
v -224.0 368.1693115234375 167.40740966796875
v -224.0 200.00003051757812 207.99993896484375
v -256.0 200.00003051757812 207.99993896484375
v -256.0 368.1693115234375 167.40740966796875
v -256.0 305.45458984375 182.54541015625
v -256.0 368.1693115234375 167.40740966796875
v -256.0 387.20001220703125 100.7999267578125
v -224.0 368.1693115234375 167.40740966796875
v -224.0 305.45458984375 182.54541015625
v -224.0 387.20001220703125 100.79998779296875
v -224.0 387.20001220703125 100.79998779296875
v -224.0 305.45458984375 182.54541015625
v -256.0 305.45458984375 182.54541015625
v -256.0 387.20001220703125 100.7999267578125
v -256.0 -47.999969482421875 0.0
v -256.0 -16.0 0.0
v -256.0 57.14288330078125 -256.0
v -256.0 -47.999969482421875 -256.0
v -224.0 -47.999969482421875 0.0
v -224.0 -47.999969482421875 -256.0
v -224.0 57.14288330078125 -256.0
v -224.0 -15.999969482421875 0.0
v -224.0 -15.999969482421875 0.0
v -224.0 57.14288330078125 -256.0
v -256.0 57.14288330078125 -256.0
v -256.0 -16.0 0.0
v -256.0 31.830718994140625 -167.40740966796875
v -256.0 200.00001525878906 -208.0
v -256.0 200.00001525878906 -256.0
v -256.0 57.14288330078125 -256.0
v -224.0 200.00001525878906 -256.0
v -224.0 200.00001525878906 -208.0
v -224.0 31.830718994140625 -167.40740966796875
v -224.0 57.14288330078125 -256.0
v -224.0 31.830718994140625 -167.40740966796875
v -224.0 200.00001525878906 -208.0
v -256.0 200.00001525878906 -208.0
v -256.0 31.830718994140625 -167.40740966796875
v -256.0 94.54544067382812 -182.54547119140625
v -256.0 31.830718994140625 -167.40740966796875
v -256.0 12.800018310546875 -100.79998779296875
v -224.0 31.830718994140625 -167.40740966796875
v -224.0 94.54544067382812 -182.54547119140625
v -224.0 12.800018310546875 -100.79998779296875
v -224.0 12.800018310546875 -100.79998779296875
v -224.0 94.54544067382812 -182.54547119140625
v -256.0 94.54544067382812 -182.54547119140625
v -256.0 12.800018310546875 -100.79998779296875
v -256.0 -16.0 0.0
v -256.0 -47.999969482421875 0.0
v -256.0 -47.999969482421875 256.0
v -256.0 57.14288330078125 256.0
v -224.0 -47.999969482421875 256.0
v -224.0 -47.999969482421875 0.0
v -224.0 -15.999969482421875 0.0
v -224.0 57.14288330078125 256.0
v -224.0 57.14288330078125 256.0
v -224.0 -15.999969482421875 0.0
v -256.0 -16.0 0.0
v -256.0 57.14288330078125 256.0
v -256.0 200.00001525878906 207.99993896484375
v -256.0 31.830718994140625 167.40740966796875
v -256.0 57.14288330078125 255.99993896484375
v -256.0 200.00001525878906 255.99993896484375
v -224.0 200.00001525878906 207.99993896484375
v -224.0 200.00001525878906 255.99993896484375
v -224.0 57.14288330078125 255.99993896484375
v -224.0 31.830718994140625 167.40740966796875
v -224.0 200.00001525878906 207.99993896484375
v -224.0 31.830718994140625 167.40740966796875
v -256.0 31.830718994140625 167.40740966796875
v -256.0 200.00001525878906 207.99993896484375
v -256.0 12.800018310546875 100.7999267578125
v -256.0 31.830718994140625 167.40740966796875
v -256.0 94.54544067382812 182.54541015625
v -224.0 12.800018310546875 100.79998779296875
v -224.0 94.54544067382812 182.54541015625
v -224.0 31.830718994140625 167.40740966796875
v -224.0 94.54544067382812 182.54541015625
v -224.0 12.800018310546875 100.79998779296875
v -256.0 12.800018310546875 100.7999267578125
v -256.0 94.54544067382812 182.54541015625
v 256.0 432.0 256.0
v -256.0 432.0 256.0
v -256.0 432.0 -256.0
v 256.0 432.0 -256.0
v -84.0 4.0 256.0
v 84.0 4.0 256.0
v 84.0 4.0 -256.0
v -84.0 4.0 -256.0
v -84.0 4.0 256.0
v -84.0 4.0 -256.0
v -84.0 0.0 -256.0
v -84.0 0.0 256.0
v 84.0 4.0 -256.0
v 84.0 4.0 256.0
v 84.0 0.0 256.0
v 84.0 0.0 -256.0
v 256.0 4.0 84.0
v 256.0 4.0 -84.0
v 84.0 4.0 -84.0
v 84.0 4.0 84.0
v 256.0 4.0 84.0
v 84.0 4.0 84.0
v 84.0 0.0 84.0
v 256.0 0.0 84.0
v 84.0 4.0 -84.0
v 256.0 4.0 -84.0
v 256.0 0.0 -84.0
v 84.0 0.0 -84.0
v -84.0 4.0 88.0
v -84.0 4.0 -80.0
v -256.0 4.0 -80.0
v -256.0 4.0 88.0
v -84.0 4.0 88.0
v -256.0 4.0 88.0
v -256.0 0.0 88.0
v -84.0 0.0 88.0
v -256.0 4.0 -80.0
v -84.0 4.0 -80.0
v -84.0 0.0 -80.0
v -256.0 0.0 -80.0
v 24.0 432.0 -16.0
v 24.0 428.0 -16.0
v -24.0 428.0 -16.0
v -24.0 432.0 -16.0
v 24.0 428.0 16.0
v 24.0 432.0 16.0
v -24.0 432.0 16.0
v -24.0 428.0 16.0
v 24.0 428.0 16.0
v -24.0 428.0 16.0
v -24.0 428.0 -16.0
v 24.0 428.0 -16.0
v -24.0 432.0 16.0
v -24.0 432.0 -16.0
v -24.0 428.0 -16.0
v -24.0 428.0 16.0
v 24.0 432.0 -16.0
v 24.0 432.0 16.0
v 24.0 428.0 16.0
v 24.0 428.0 -16.0
vt -1.0 2.0
vt 1.0 2.0
vt 1.0 0.0
vt -1.0 0.0
vt 0.0 2.625000238418579
vt 0.0 2.75
vt 1.0 2.75
vt 1.0 2.3392858505249023
vt 1.0 2.75
vt 0.0 2.75
vt 0.0 2.625
vt 1.0 2.3392858505249023
vt 1.0 0.0
vt 0.0 0.0
vt 0.0 -0.125
vt 1.0 -0.125
vt 0.8125 1.7812500596046448
vt 0.653935432434082 2.4381613731384277
vt 1.0 2.3392858505249023
vt 1.0 1.7812500596046448
vt 0.8125 1.7812500596046448
vt 1.0 1.7812500596046448
vt 1.0 2.3392858505249023
vt 0.653935432434082 2.4381613731384277
vt -1.0 1.7812500596046448
vt -1.0 2.4381613731384277
vt -1.125 2.4381613731384277
vt -1.125 1.7812500596046448
vt 0.3937501907348633 2.512500047683716
vt 0.653935432434082 2.4381613731384277
vt 0.7130680084228516 2.1931819915771484
vt 0.3937501907348633 2.512500047683716
vt 0.7130680084228516 2.1931819915771484
vt 0.653935432434082 2.4381613731384277
vt 0.7130680084228516 0.0
vt 0.3937501907348633 0.0
vt 0.3937501907348633 -0.125
vt 0.7130680084228516 -0.125
vt 1.0 2.75
vt 1.0 2.625000238418579
vt 0.0 2.3392858505249023
vt 0.0 2.75
vt 1.0 2.75
vt 0.0 2.75
vt 0.0 2.3392858505249023
vt 1.0 2.625
vt 1.0 0.0
vt 0.0 0.0
vt 0.0 -0.125
vt 1.0 -0.125
vt 0.34606480598449707 2.4381613731384277
vt 0.1875 1.7812500596046448
vt 0.0 1.7812500596046448
vt 0.0 2.3392858505249023
vt 0.0 1.7812500596046448
vt 0.1875 1.7812500596046448
vt 0.34606480598449707 2.4381613731384277
vt 0.0 2.3392858505249023
vt -1.0 2.4381613731384277
vt -1.0 1.7812500596046448
vt -1.125 1.7812500596046448
vt -1.125 2.4381613731384277
vt 0.28693199157714844 2.1931819915771484
vt 0.34606480598449707 2.4381613731384277
vt 0.6062502861022949 2.512500047683716
vt 0.34606480598449707 2.4381613731384277
vt 0.28693199157714844 2.1931819915771484
vt 0.6062500476837158 2.512500047683716
vt 0.6062500476837158 0.0
vt 0.28693199157714844 0.0
vt 0.28693199157714844 -0.125
vt 0.6062502861022949 -0.125
vt 0.0 1.7812500596046448
vt 0.0 1.9062499403953552
vt 1.0 2.1919643878936768
vt 1.0 1.7812500596046448
vt 0.0 1.7812500596046448
vt 1.0 1.7812500596046448
vt 1.0 2.1919643878936768
vt 0.0 1.9062500596046448
vt 0.0 0.0
vt 1.0 0.0
vt 1.0 -0.125
vt 0.0 -0.125
vt 0.653935432434082 2.0930886268615723
vt 0.8125 2.75
vt 1.0 2.75
vt 1.0 2.1919643878936768
vt 1.0 2.75
vt 0.8125 2.75
vt 0.653935432434082 2.0930886268615723
vt 1.0 2.1919643878936768
vt -1.0 2.0930886268615723
vt -1.0 2.75
vt -1.125 2.75
vt -1.125 2.0930886268615723
vt 0.7130680084228516 2.3380680084228516
vt 0.653935432434082 2.0930886268615723
vt 0.3937501907348633 2.018749952316284
vt 0.653935432434082 2.0930886268615723
vt 0.7130680084228516 2.3380680084228516
vt 0.3937501907348633 2.018749952316284
vt 0.3937501907348633 0.0
vt 0.7130680084228516 0.0
vt 0.7130680084228516 -0.125
vt 0.3937501907348633 -0.125
vt 1.0 1.9062499403953552
vt 1.0 1.7812500596046448
vt 0.0 1.7812500596046448
vt 0.0 2.1919643878936768
vt 0.0 1.7812500596046448
vt 1.0 1.7812500596046448
vt 1.0 1.9062500596046448
vt 0.0 2.1919643878936768
vt 0.0 0.0
vt 1.0 0.0
vt 1.0 -0.125
vt 0.0 -0.125
vt 0.1875 2.75
vt 0.34606480598449707 2.0930886268615723
vt 0.0 2.1919643878936768
vt 0.0 2.75
vt 0.1875 2.75
vt 0.0 2.75
vt 0.0 2.1919643878936768
vt 0.34606480598449707 2.0930886268615723
vt -1.0 2.75
vt -1.0 2.0930886268615723
vt -1.125 2.0930886268615723
vt -1.125 2.75
vt 0.6062502861022949 2.018749952316284
vt 0.34606480598449707 2.0930886268615723
vt 0.28693199157714844 2.3380680084228516
vt 0.6062500476837158 2.018749952316284
vt 0.28693199157714844 2.3380680084228516
vt 0.34606480598449707 2.0930886268615723
vt 0.28693199157714844 0.0
vt 0.6062500476837158 0.0
vt 0.6062502861022949 -0.125
vt 0.28693199157714844 -0.125
vt 4.0 2.625000238418579
vt 4.0 2.75
vt 3.0 2.75
vt 3.0 2.3392858505249023
vt 3.0 2.75
vt 4.0 2.75
vt 4.0 2.625
vt 3.0 2.3392858505249023
vt 3.0 0.0
vt 3.0 1.0
vt 2.875 1.0
vt 2.875 0.0
vt 3.1875 1.7812501192092896
vt 3.346064805984497 2.4381613731384277
vt 3.0 2.3392858505249023
vt 3.0 1.7812501192092896
vt 3.1875 1.7812501192092896
vt 3.0 1.7812501192092896
vt 3.0 2.3392858505249023
vt 3.346064805984497 2.4381613731384277
vt -1.0 1.7812501192092896
vt -1.0 2.4381613731384277
vt -1.125 2.4381613731384277
vt -1.125 1.7812501192092896
vt 3.606250047683716 2.5124999284744263
vt 3.346064805984497 2.438161253929138
vt 3.2869317531585693 2.193181872367859
vt 3.606250047683716 2.5124999284744263
vt 3.2869317531585693 2.193181872367859
vt 3.346064805984497 2.438161253929138
vt 3.0 0.28693175315856934
vt 3.0 0.6062500476837158
vt 2.875 0.6062500476837158
vt 2.875 0.28693175315856934
vt 5.0 2.75
vt 5.0 2.625000238418579
vt 6.0 2.3392858505249023
vt 6.0 2.75
vt 5.0 2.75
vt 6.0 2.75
vt 6.0 2.3392858505249023
vt 5.0 2.625
vt 4.0 1.0
vt 4.0 2.0
vt 3.875 2.0
vt 3.875 1.0
vt 5.653935432434082 2.4381613731384277
vt 5.8125 1.7812501192092896
vt 6.0 1.7812501192092896
vt 6.0 2.3392858505249023
vt 6.0 1.7812501192092896
vt 5.8125 1.7812501192092896
vt 5.653935432434082 2.4381613731384277
vt 6.0 2.3392858505249023
vt -1.0 2.4381613731384277
vt -1.0 1.7812501192092896
vt -1.125 1.7812501192092896
vt -1.125 2.4381613731384277
vt 5.713068008422852 2.193181872367859
vt 5.653935432434082 2.438161253929138
vt 5.393749713897705 2.5124999284744263
vt 5.653935432434082 2.438161253929138
vt 5.713068008422852 2.193181872367859
vt 5.393750190734863 2.5124999284744263
vt 4.0 0.5125000476837158
vt 4.0 0.19318199157714844
vt 3.875 0.19318199157714844
vt 3.875 0.5125000476837158
vt 4.0 1.7812500596046448
vt 4.0 1.9062499403953552
vt 3.0 2.1919643878936768
vt 3.0 1.7812500596046448
vt 4.0 1.7812500596046448
vt 3.0 1.7812500596046448
vt 3.0 2.1919643878936768
vt 4.0 1.9062500596046448
vt 3.0 1.0
vt 3.0 0.0
vt 2.875 0.0
vt 2.875 1.0
vt 3.346064805984497 2.0930886268615723
vt 3.1875 2.75
vt 3.0 2.75
vt 3.0 2.191964268684387
vt 3.0 2.75
vt 3.1875 2.75
vt 3.346064805984497 2.0930886268615723
vt 3.0 2.191964268684387
vt -1.0 2.0930886268615723
vt -1.0 2.75
vt -1.125 2.75
vt -1.125 2.0930886268615723
vt 3.2869317531585693 2.338068127632141
vt 3.346064805984497 2.093088746070862
vt 3.606250047683716 2.0187500715255737
vt 3.346064805984497 2.093088746070862
vt 3.2869317531585693 2.338068127632141
vt 3.606250047683716 2.0187500715255737
vt 3.0 0.6062500476837158
vt 3.0 0.28693175315856934
vt 2.875 0.28693175315856934
vt 2.875 0.6062500476837158
vt 5.0 1.9062499403953552
vt 5.0 1.7812500596046448
vt 6.0 1.7812500596046448
vt 6.0 2.1919643878936768
vt 6.0 1.7812500596046448
vt 5.0 1.7812500596046448
vt 5.0 1.9062500596046448
vt 6.0 2.1919643878936768
vt 4.0 2.0
vt 4.0 1.0
vt 3.875 1.0
vt 3.875 2.0
vt 5.8125 2.75
vt 5.653935432434082 2.0930886268615723
vt 6.0 2.191964268684387
vt 6.0 2.75
vt 5.8125 2.75
vt 6.0 2.75
vt 6.0 2.191964268684387
vt 5.653935432434082 2.0930886268615723
vt -1.0 2.75
vt -1.0 2.0930886268615723
vt -1.125 2.0930886268615723
vt -1.125 2.75
vt 5.393749713897705 2.0187500715255737
vt 5.653935432434082 2.093088746070862
vt 5.713068008422852 2.338068127632141
vt 5.393750190734863 2.0187500715255737
vt 5.713068008422852 2.338068127632141
vt 5.653935432434082 2.093088746070862
vt 4.0 -0.6306818723678589
vt 4.0 -0.9499999284744263
vt 3.875 -0.9499999284744263
vt 3.875 -0.6306818723678589
vt 0.0 2.625000238418579
vt 0.0 2.75
vt 1.0 2.75
vt 1.0 2.3392858505249023
vt 1.0 2.75
vt 0.0 2.75
vt 0.0 2.625
vt 1.0 2.3392858505249023
vt 1.0 0.0
vt 0.0 0.0
vt 0.0 -0.125
vt 1.0 -0.125
vt 0.8125 1.7812500596046448
vt 0.653935432434082 2.4381613731384277
vt 1.0 2.3392858505249023
vt 1.0 1.7812500596046448
vt 0.8125 1.7812500596046448
vt 1.0 1.7812500596046448
vt 1.0 2.3392858505249023
vt 0.653935432434082 2.4381613731384277
vt -1.0 1.7812500596046448
vt -1.0 2.4381613731384277
vt -1.125 2.4381613731384277
vt -1.125 1.7812500596046448
vt 0.3937501907348633 2.512500047683716
vt 0.653935432434082 2.4381613731384277
vt 0.7130680084228516 2.1931819915771484
vt 0.3937501907348633 2.512500047683716
vt 0.7130680084228516 2.1931819915771484
vt 0.653935432434082 2.4381613731384277
vt 0.7130680084228516 0.0
vt 0.3937501907348633 0.0
vt 0.3937501907348633 -0.125
vt 0.7130680084228516 -0.125
vt 1.0 2.75
vt 1.0 2.625000238418579
vt 0.0 2.3392858505249023
vt 0.0 2.75
vt 1.0 2.75
vt 0.0 2.75
vt 0.0 2.3392858505249023
vt 1.0 2.625
vt 1.0 0.0
vt 0.0 0.0
vt 0.0 -0.125
vt 1.0 -0.125
vt 0.34606480598449707 2.4381613731384277
vt 0.1875 1.7812500596046448
vt 0.0 1.7812500596046448
vt 0.0 2.3392858505249023
vt 0.0 1.7812500596046448
vt 0.1875 1.7812500596046448
vt 0.34606480598449707 2.4381613731384277
vt 0.0 2.3392858505249023
vt -1.0 2.4381613731384277
vt -1.0 1.7812500596046448
vt -1.125 1.7812500596046448
vt -1.125 2.4381613731384277
vt 0.28693199157714844 2.1931819915771484
vt 0.34606480598449707 2.4381613731384277
vt 0.6062502861022949 2.512500047683716
vt 0.34606480598449707 2.4381613731384277
vt 0.28693199157714844 2.1931819915771484
vt 0.6062500476837158 2.512500047683716
vt 0.6062500476837158 0.0
vt 0.28693199157714844 0.0
vt 0.28693199157714844 -0.125
vt 0.6062502861022949 -0.125
vt 0.0 1.7812500596046448
vt 0.0 1.9062499403953552
vt 1.0 2.1919643878936768
vt 1.0 1.7812500596046448
vt 0.0 1.7812500596046448
vt 1.0 1.7812500596046448
vt 1.0 2.1919643878936768
vt 0.0 1.9062500596046448
vt 0.0 0.0
vt 1.0 0.0
vt 1.0 -0.125
vt 0.0 -0.125
vt 0.653935432434082 2.0930886268615723
vt 0.8125 2.75
vt 1.0 2.75
vt 1.0 2.1919643878936768
vt 1.0 2.75
vt 0.8125 2.75
vt 0.653935432434082 2.0930886268615723
vt 1.0 2.1919643878936768
vt -1.0 2.0930886268615723
vt -1.0 2.75
vt -1.125 2.75
vt -1.125 2.0930886268615723
vt 0.7130680084228516 2.3380680084228516
vt 0.653935432434082 2.0930886268615723
vt 0.3937501907348633 2.018749952316284
vt 0.653935432434082 2.0930886268615723
vt 0.7130680084228516 2.3380680084228516
vt 0.3937501907348633 2.018749952316284
vt 0.3937501907348633 0.0
vt 0.7130680084228516 0.0
vt 0.7130680084228516 -0.125
vt 0.3937501907348633 -0.125
vt 1.0 1.9062499403953552
vt 1.0 1.7812500596046448
vt 0.0 1.7812500596046448
vt 0.0 2.1919643878936768
vt 0.0 1.7812500596046448
vt 1.0 1.7812500596046448
vt 1.0 1.9062500596046448
vt 0.0 2.1919643878936768
vt 0.0 0.0
vt 1.0 0.0
vt 1.0 -0.125
vt 0.0 -0.125
vt 0.1875 2.75
vt 0.34606480598449707 2.0930886268615723
vt 0.0 2.1919643878936768
vt 0.0 2.75
vt 0.1875 2.75
vt 0.0 2.75
vt 0.0 2.1919643878936768
vt 0.34606480598449707 2.0930886268615723
vt -1.0 2.75
vt -1.0 2.0930886268615723
vt -1.125 2.0930886268615723
vt -1.125 2.75
vt 0.6062502861022949 2.018749952316284
vt 0.34606480598449707 2.0930886268615723
vt 0.28693199157714844 2.3380680084228516
vt 0.6062500476837158 2.018749952316284
vt 0.28693199157714844 2.3380680084228516
vt 0.34606480598449707 2.0930886268615723
vt 0.28693199157714844 0.0
vt 0.6062500476837158 0.0
vt 0.6062502861022949 -0.125
vt 0.28693199157714844 -0.125
vt 4.0 2.625000238418579
vt 4.0 2.75
vt 3.0 2.75
vt 3.0 2.3392858505249023
vt 3.0 2.75
vt 4.0 2.75
vt 4.0 2.625
vt 3.0 2.3392858505249023
vt 3.0 0.0
vt 3.0 1.0
vt 2.875 1.0
vt 2.875 0.0
vt 3.1875 1.7812501192092896
vt 3.346064805984497 2.4381613731384277
vt 3.0 2.3392858505249023
vt 3.0 1.7812501192092896
vt 3.1875 1.7812501192092896
vt 3.0 1.7812501192092896
vt 3.0 2.3392858505249023
vt 3.346064805984497 2.4381613731384277
vt -1.0 1.7812501192092896
vt -1.0 2.4381613731384277
vt -1.125 2.4381613731384277
vt -1.125 1.7812501192092896
vt 3.606250047683716 2.5124999284744263
vt 3.346064805984497 2.438161253929138
vt 3.2869317531585693 2.193181872367859
vt 3.606250047683716 2.5124999284744263
vt 3.2869317531585693 2.193181872367859
vt 3.346064805984497 2.438161253929138
vt 3.0 0.28693175315856934
vt 3.0 0.6062500476837158
vt 2.875 0.6062500476837158
vt 2.875 0.28693175315856934
vt 5.0 2.75
vt 5.0 2.625000238418579
vt 6.0 2.3392858505249023
vt 6.0 2.75
vt 5.0 2.75
vt 6.0 2.75
vt 6.0 2.3392858505249023
vt 5.0 2.625
vt 4.0 1.0
vt 4.0 2.0
vt 3.875 2.0
vt 3.875 1.0
vt 5.653935432434082 2.4381613731384277
vt 5.8125 1.7812501192092896
vt 6.0 1.7812501192092896
vt 6.0 2.3392858505249023
vt 6.0 1.7812501192092896
vt 5.8125 1.7812501192092896
vt 5.653935432434082 2.4381613731384277
vt 6.0 2.3392858505249023
vt -1.0 2.4381613731384277
vt -1.0 1.7812501192092896
vt -1.125 1.7812501192092896
vt -1.125 2.4381613731384277
vt 5.713068008422852 2.193181872367859
vt 5.653935432434082 2.438161253929138
vt 5.393749713897705 2.5124999284744263
vt 5.653935432434082 2.438161253929138
vt 5.713068008422852 2.193181872367859
vt 5.393750190734863 2.5124999284744263
vt 4.0 0.5125000476837158
vt 4.0 0.19318199157714844
vt 3.875 0.19318199157714844
vt 3.875 0.5125000476837158
vt 4.0 1.7812500596046448
vt 4.0 1.9062499403953552
vt 3.0 2.1919643878936768
vt 3.0 1.7812500596046448
vt 4.0 1.7812500596046448
vt 3.0 1.7812500596046448
vt 3.0 2.1919643878936768
vt 4.0 1.9062500596046448
vt 3.0 1.0
vt 3.0 0.0
vt 2.875 0.0
vt 2.875 1.0
vt 3.346064805984497 2.0930886268615723
vt 3.1875 2.75
vt 3.0 2.75
vt 3.0 2.191964268684387
vt 3.0 2.75
vt 3.1875 2.75
vt 3.346064805984497 2.0930886268615723
vt 3.0 2.191964268684387
vt -1.0 2.0930886268615723
vt -1.0 2.75
vt -1.125 2.75
vt -1.125 2.0930886268615723
vt 3.2869317531585693 2.338068127632141
vt 3.346064805984497 2.093088746070862
vt 3.606250047683716 2.0187500715255737
vt 3.346064805984497 2.093088746070862
vt 3.2869317531585693 2.338068127632141
vt 3.606250047683716 2.0187500715255737
vt 3.0 0.6062500476837158
vt 3.0 0.28693175315856934
vt 2.875 0.28693175315856934
vt 2.875 0.6062500476837158
vt 5.0 1.9062499403953552
vt 5.0 1.7812500596046448
vt 6.0 1.7812500596046448
vt 6.0 2.1919643878936768
vt 6.0 1.7812500596046448
vt 5.0 1.7812500596046448
vt 5.0 1.9062500596046448
vt 6.0 2.1919643878936768
vt 4.0 2.0
vt 4.0 1.0
vt 3.875 1.0
vt 3.875 2.0
vt 5.8125 2.75
vt 5.653935432434082 2.0930886268615723
vt 6.0 2.191964268684387
vt 6.0 2.75
vt 5.8125 2.75
vt 6.0 2.75
vt 6.0 2.191964268684387
vt 5.653935432434082 2.0930886268615723
vt -1.0 2.75
vt -1.0 2.0930886268615723
vt -1.125 2.0930886268615723
vt -1.125 2.75
vt 5.393749713897705 2.0187500715255737
vt 5.653935432434082 2.093088746070862
vt 5.713068008422852 2.338068127632141
vt 5.393750190734863 2.0187500715255737
vt 5.713068008422852 2.338068127632141
vt 5.653935432434082 2.093088746070862
vt 4.0 -0.6306818723678589
vt 4.0 -0.9499999284744263
vt 3.875 -0.9499999284744263
vt 3.875 -0.6306818723678589
vt 4.875 4.125
vt 2.875 4.125
vt 2.875 2.125
vt 4.875 2.125
vt -0.9927161335945129 3.00305438041687
vt -0.005874037742614746 3.00305438041687
vt -0.005874037742614746 -0.004464268684387207
vt -0.9927161335945129 -0.004464268684387207
vt 1.0044642686843872 1.52279132604599
vt -2.00305438041687 1.52279132604599
vt -2.00305438041687 1.4992950856685638
vt 1.0044642686843872 1.4992950856685638
vt -2.00305438041687 1.52279132604599
vt 1.0044642686843872 1.52279132604599
vt 1.0044642686843872 1.4992950856685638
vt -2.00305438041687 1.4992950856685638
vt 6.0091633796691895 -2.0016446113586426
vt 5.0223212242126465 -2.0016448497772217
vt 5.0223212242126465 -0.9913064241409302
vt 6.0091633796691895 -0.9913064241409302
vt -2.4729793071746826 -0.004464268684387207
vt -2.4729793071746826 1.005874038208276
vt -2.4964754581451416 1.0058740377426147
vt -2.4964754581451416 -0.004464268684387207
vt -2.4729793071746826 1.005874038208276
vt -2.4729793071746826 -0.004464268684387207
vt -2.4964754581451416 -0.004464268684387207
vt -2.4964754581451416 1.0058740377426147
vt 6.0091633796691895 -2.0016446113586426
vt 5.0223212242126465 -2.0016446113586426
vt 5.0223212242126465 -0.9913063049316406
vt 6.0091633796691895 -0.9913063049316406
vt -2.4729793071746826 -0.004464268684387207
vt -2.4729793071746826 1.005874038208276
vt -2.4964754581451416 1.0058740377426147
vt -2.4964754581451416 -0.004464268684387207
vt -2.4729793071746826 1.005874038208276
vt -2.4729793071746826 -0.004464268684387207
vt -2.4964754581451416 -0.004464268684387207
vt -2.4964754581451416 1.0058740377426147
vt 0.34375 2.53125
vt 0.34375 2.515625
vt 0.15625 2.515625
vt 0.15625 2.53125
vt 0.34375 2.515625
vt 0.34375 2.53125
vt 0.15625 2.53125
vt 0.15625 2.515625
vt 0.34375 0.8671875
vt 0.15625 0.8671875
vt 0.15625 0.7421875
vt 0.34375 0.7421875
vt -0.1328125 2.53125
vt -0.2578125 2.53125
vt -0.2578125 2.515625
vt -0.1328125 2.515625
vt -0.2578125 2.53125
vt -0.1328125 2.53125
vt -0.1328125 2.515625
vt -0.2578125 2.515625

g RoomMesh_Geometry
f 1/1 2/2 3/3
f 4/4 1/1 3/3
f 5/5 6/6 7/7
f 8/8 5/5 7/7
f 9/9 10/10 11/11
f 12/12 9/9 11/11
f 13/13 14/14 15/15
f 16/16 13/13 15/15
f 17/17 18/18 19/19
f 20/20 17/17 19/19
f 21/21 22/22 23/23
f 24/24 21/21 23/23
f 25/25 26/26 27/27
f 28/28 25/25 27/27
f 29/29 30/30 31/31
f 32/32 33/33 34/34
f 35/35 36/36 37/37
f 38/38 35/35 37/37
f 39/39 40/40 41/41
f 42/42 39/39 41/41
f 43/43 44/44 45/45
f 46/46 43/43 45/45
f 47/47 48/48 49/49
f 50/50 47/47 49/49
f 51/51 52/52 53/53
f 54/54 51/51 53/53
f 55/55 56/56 57/57
f 58/58 55/55 57/57
f 59/59 60/60 61/61
f 62/62 59/59 61/61
f 63/63 64/64 65/65
f 66/66 67/67 68/68
f 69/69 70/70 71/71
f 72/72 69/69 71/71
f 73/73 74/74 75/75
f 76/76 73/73 75/75
f 77/77 78/78 79/79
f 80/80 77/77 79/79
f 81/81 82/82 83/83
f 84/84 81/81 83/83
f 85/85 86/86 87/87
f 88/88 85/85 87/87
f 89/89 90/90 91/91
f 92/92 89/89 91/91
f 93/93 94/94 95/95
f 96/96 93/93 95/95
f 97/97 98/98 99/99
f 100/100 101/101 102/102
f 103/103 104/104 105/105
f 106/106 103/103 105/105
f 107/107 108/108 109/109
f 110/110 107/107 109/109
f 111/111 112/112 113/113
f 114/114 111/111 113/113
f 115/115 116/116 117/117
f 118/118 115/115 117/117
f 119/119 120/120 121/121
f 122/122 119/119 121/121
f 123/123 124/124 125/125
f 126/126 123/123 125/125
f 127/127 128/128 129/129
f 130/130 127/127 129/129
f 131/131 132/132 133/133
f 134/134 135/135 136/136
f 137/137 138/138 139/139
f 140/140 137/137 139/139
f 141/141 142/142 143/143
f 144/144 141/141 143/143
f 145/145 146/146 147/147
f 148/148 145/145 147/147
f 149/149 150/150 151/151
f 152/152 149/149 151/151
f 153/153 154/154 155/155
f 156/156 153/153 155/155
f 157/157 158/158 159/159
f 160/160 157/157 159/159
f 161/161 162/162 163/163
f 164/164 161/161 163/163
f 165/165 166/166 167/167
f 168/168 169/169 170/170
f 171/171 172/172 173/173
f 174/174 171/171 173/173
f 175/175 176/176 177/177
f 178/178 175/175 177/177
f 179/179 180/180 181/181
f 182/182 179/179 181/181
f 183/183 184/184 185/185
f 186/186 183/183 185/185
f 187/187 188/188 189/189
f 190/190 187/187 189/189
f 191/191 192/192 193/193
f 194/194 191/191 193/193
f 195/195 196/196 197/197
f 198/198 195/195 197/197
f 199/199 200/200 201/201
f 202/202 203/203 204/204
f 205/205 206/206 207/207
f 208/208 205/205 207/207
f 209/209 210/210 211/211
f 212/212 209/209 211/211
f 213/213 214/214 215/215
f 216/216 213/213 215/215
f 217/217 218/218 219/219
f 220/220 217/217 219/219
f 221/221 222/222 223/223
f 224/224 221/221 223/223
f 225/225 226/226 227/227
f 228/228 225/225 227/227
f 229/229 230/230 231/231
f 232/232 229/229 231/231
f 233/233 234/234 235/235
f 236/236 237/237 238/238
f 239/239 240/240 241/241
f 242/242 239/239 241/241
f 243/243 244/244 245/245
f 246/246 243/243 245/245
f 247/247 248/248 249/249
f 250/250 247/247 249/249
f 251/251 252/252 253/253
f 254/254 251/251 253/253
f 255/255 256/256 257/257
f 258/258 255/255 257/257
f 259/259 260/260 261/261
f 262/262 259/259 261/261
f 263/263 264/264 265/265
f 266/266 263/263 265/265
f 267/267 268/268 269/269
f 270/270 271/271 272/272
f 273/273 274/274 275/275
f 276/276 273/273 275/275
f 277/277 278/278 279/279
f 280/280 277/277 279/279
f 281/281 282/282 283/283
f 284/284 281/281 283/283
f 285/285 286/286 287/287
f 288/288 285/285 287/287
f 289/289 290/290 291/291
f 292/292 289/289 291/291
f 293/293 294/294 295/295
f 296/296 293/293 295/295
f 297/297 298/298 299/299
f 300/300 297/297 299/299
f 301/301 302/302 303/303
f 304/304 305/305 306/306
f 307/307 308/308 309/309
f 310/310 307/307 309/309
f 311/311 312/312 313/313
f 314/314 311/311 313/313
f 315/315 316/316 317/317
f 318/318 315/315 317/317
f 319/319 320/320 321/321
f 322/322 319/319 321/321
f 323/323 324/324 325/325
f 326/326 323/323 325/325
f 327/327 328/328 329/329
f 330/330 327/327 329/329
f 331/331 332/332 333/333
f 334/334 331/331 333/333
f 335/335 336/336 337/337
f 338/338 339/339 340/340
f 341/341 342/342 343/343
f 344/344 341/341 343/343
f 345/345 346/346 347/347
f 348/348 345/345 347/347
f 349/349 350/350 351/351
f 352/352 349/349 351/351
f 353/353 354/354 355/355
f 356/356 353/353 355/355
f 357/357 358/358 359/359
f 360/360 357/357 359/359
f 361/361 362/362 363/363
f 364/364 361/361 363/363
f 365/365 366/366 367/367
f 368/368 365/365 367/367
f 369/369 370/370 371/371
f 372/372 373/373 374/374
f 375/375 376/376 377/377
f 378/378 375/375 377/377
f 379/379 380/380 381/381
f 382/382 379/379 381/381
f 383/383 384/384 385/385
f 386/386 383/383 385/385
f 387/387 388/388 389/389
f 390/390 387/387 389/389
f 391/391 392/392 393/393
f 394/394 391/391 393/393
f 395/395 396/396 397/397
f 398/398 395/395 397/397
f 399/399 400/400 401/401
f 402/402 399/399 401/401
f 403/403 404/404 405/405
f 406/406 407/407 408/408
f 409/409 410/410 411/411
f 412/412 409/409 411/411
f 413/413 414/414 415/415
f 416/416 413/413 415/415
f 417/417 418/418 419/419
f 420/420 417/417 419/419
f 421/421 422/422 423/423
f 424/424 421/421 423/423
f 425/425 426/426 427/427
f 428/428 425/425 427/427
f 429/429 430/430 431/431
f 432/432 429/429 431/431
f 433/433 434/434 435/435
f 436/436 433/433 435/435
f 437/437 438/438 439/439
f 440/440 441/441 442/442
f 443/443 444/444 445/445
f 446/446 443/443 445/445
f 447/447 448/448 449/449
f 450/450 447/447 449/449
f 451/451 452/452 453/453
f 454/454 451/451 453/453
f 455/455 456/456 457/457
f 458/458 455/455 457/457
f 459/459 460/460 461/461
f 462/462 459/459 461/461
f 463/463 464/464 465/465
f 466/466 463/463 465/465
f 467/467 468/468 469/469
f 470/470 467/467 469/469
f 471/471 472/472 473/473
f 474/474 475/475 476/476
f 477/477 478/478 479/479
f 480/480 477/477 479/479
f 481/481 482/482 483/483
f 484/484 481/481 483/483
f 485/485 486/486 487/487
f 488/488 485/485 487/487
f 489/489 490/490 491/491
f 492/492 489/489 491/491
f 493/493 494/494 495/495
f 496/496 493/493 495/495
f 497/497 498/498 499/499
f 500/500 497/497 499/499
f 501/501 502/502 503/503
f 504/504 501/501 503/503
f 505/505 506/506 507/507
f 508/508 509/509 510/510
f 511/511 512/512 513/513
f 514/514 511/511 513/513
f 515/515 516/516 517/517
f 518/518 515/515 517/517
f 519/519 520/520 521/521
f 522/522 519/519 521/521
f 523/523 524/524 525/525
f 526/526 523/523 525/525
f 527/527 528/528 529/529
f 530/530 527/527 529/529
f 531/531 532/532 533/533
f 534/534 531/531 533/533
f 535/535 536/536 537/537
f 538/538 535/535 537/537
f 539/539 540/540 541/541
f 542/542 543/543 544/544
f 545/545 546/546 547/547
f 548/548 545/545 547/547
f 549/549 550/550 551/551
f 552/552 549/549 551/551
f 553/553 554/554 555/555
f 556/556 553/553 555/555
f 557/557 558/558 559/559
f 560/560 557/557 559/559
f 561/561 562/562 563/563
f 564/564 561/561 563/563
f 565/565 566/566 567/567
f 568/568 565/565 567/567
f 569/569 570/570 571/571
f 572/572 569/569 571/571
f 573/573 574/574 575/575
f 576/576 573/573 575/575
f 577/577 578/578 579/579
f 580/580 577/577 579/579
f 581/581 582/582 583/583
f 584/584 581/581 583/583
f 585/585 586/586 587/587
f 588/588 585/585 587/587
f 589/589 590/590 591/591
f 592/592 589/589 591/591
f 593/593 594/594 595/595
f 596/596 593/593 595/595
f 597/597 598/598 599/599
f 600/600 597/597 599/599
f 601/601 602/602 603/603
f 604/604 601/601 603/603
f 605/605 606/606 607/607
f 608/608 605/605 607/607
