# SCP CB Converted Room Mesh

v 224.0 0.0 -256.0
v -256.0 0.0 -256.0
v -256.0 0.0 256.0
v 224.0 0.0 256.0
v 84.0 4.0 -256.0
v -84.0 4.0 -256.0
v -84.0 4.0 256.0
v 84.0 4.0 256.0
v 84.0 4.0 -256.0
v 84.0 4.0 256.0
v 84.0 0.0 256.0
v 84.0 0.0 -256.0
v -84.0 4.0 256.0
v -84.0 4.0 -256.0
v -84.0 0.0 -256.0
v -84.0 0.0 256.0
v 856.0 0.0 304.0
v 856.0 0.0 -304.0
v 248.0 0.0 -304.0
v 248.0 0.0 304.0
v 112.0 401.142822265625 256.0
v 0.0 432.0 256.0
v 0.0 432.0 -256.0
v 112.0 401.142822265625 -256.0
v -112.0 401.142822265625 -256.0
v 0.0 432.0 -256.0
v 0.0 432.0 256.0
v -112.0 401.142822265625 256.0
v -224.0 286.3929138183594 -256.0
v -112.0 401.14288330078125 -256.0
v -112.0 401.14288330078125 256.0
v -224.0 286.3929138183594 256.0
v -224.0 200.57159423828125 -256.0
v -193.7021484375 317.4346923828125 -256.0
v -193.7021484375 317.4346618652344 256.0
v -224.0 200.5716094970703 256.0
v -112.0 -7.62939453125e-06 -256.0
v -224.0 115.71424102783203 -256.0
v -224.0 115.71424102783203 256.0
v -112.0 -7.62939453125e-06 256.0
v -193.951171875 84.6689453125 -256.0
v -224.0 200.57162475585938 -256.0
v -224.0 200.57164001464844 256.0
v -193.951171875 84.6689682006836 256.0
v -64.0 392.0 232.0
v -64.0 388.0 232.0
v 64.0 388.0 232.0
v 64.0 392.0 232.0
v -64.0 388.0 -232.0
v -64.0 392.0 -232.0
v 64.0 392.0 -232.0
v 64.0 388.0 -232.0
v -64.0 388.0 -232.0
v 64.0 388.0 -232.0
v 64.0 388.0 232.0
v -64.0 388.0 232.0
v 64.0 392.0 -232.0
v 64.0 392.0 232.0
v 64.0 388.0 232.0
v 64.0 388.0 -232.0
v -64.0 392.0 232.0
v -64.0 392.0 -232.0
v -64.0 388.0 -232.0
v -64.0 388.0 232.0
v -56.0 392.0 -248.0
v -56.0 388.0 -248.0
v 56.0 388.0 -248.0
v 56.0 392.0 -248.0
v -64.0 388.0 -256.0
v -64.0 392.0 -256.0
v 64.0 392.0 -256.0
v 64.0 388.0 -256.0
v -64.0 388.0 -256.0
v 64.0 388.0 -256.0
v 56.0 388.0 -248.0
v -56.0 388.0 -248.0
v 56.0 388.0 -248.0
v 64.0 388.0 -256.0
v 64.0 388.0 -232.0
v 56.0 388.0 -232.0
v 64.0 392.0 -256.0
v 64.0 392.0 -232.0
v 64.0 388.0 -232.0
v 64.0 388.0 -256.0
v 56.0 392.0 -232.0
v 56.0 392.0 -248.0
v 56.0 388.0 -248.0
v 56.0 388.0 -232.0
v -64.0 388.0 -256.0
v -56.0 388.0 -248.0
v -56.0 388.0 -232.0
v -64.0 388.0 -232.0
v -56.0 392.0 -248.0
v -56.0 392.0 -232.0
v -56.0 388.0 -232.0
v -56.0 388.0 -248.0
v -64.0 392.0 -232.0
v -64.0 392.0 -256.0
v -64.0 388.0 -256.0
v -64.0 388.0 -232.0
v 56.0 392.0 248.0
v 56.0 388.0 248.0
v -56.0 388.0 248.0
v -56.0 392.0 248.0
v 64.0 388.0 256.0
v 64.0 392.0 256.0
v -64.0 392.0 256.0
v -64.0 388.0 256.0
v 64.0 388.0 256.0
v -64.0 388.0 256.0
v -56.0 388.0 248.0
v 56.0 388.0 248.0
v -56.0 388.0 248.0
v -64.0 388.0 256.0
v -64.0 388.0 232.0
v -56.0 388.0 232.0
v -64.0 392.0 256.0
v -64.0 392.0 232.0
v -64.0 388.0 232.0
v -64.0 388.0 256.0
v -56.0 392.0 232.0
v -56.0 392.0 248.0
v -56.0 388.0 248.0
v -56.0 388.0 232.0
v 64.0 388.0 256.0
v 56.0 388.0 248.0
v 56.0 388.0 232.0
v 64.0 388.0 232.0
v 56.0 392.0 248.0
v 56.0 392.0 232.0
v 56.0 388.0 232.0
v 56.0 388.0 248.0
v 64.0 392.0 232.0
v 64.0 392.0 256.0
v 64.0 388.0 256.0
v 64.0 388.0 232.0
v 824.0 480.0 -272.0
v 824.0 480.0 272.0
v 280.0 480.0 272.0
v 280.0 480.0 -272.0
v 280.0 319.9999694824219 96.0
v 280.0 0.0 96.0
v 248.0 0.0 96.0
v 248.0 320.0 96.0
v 280.0 0.0 -96.0
v 280.0 320.0 -96.0
v 248.0 319.9999694824219 -96.0
v 248.0 0.0 -96.0
v 280.0 171.17054748535156 244.115234375
v 824.0 171.17054748535156 244.115234375
v 824.0 170.0 244.0
v 280.0 170.0 244.0
v 280.0 172.2960968017578 244.456787109375
v 824.0 172.2960968017578 244.456787109375
v 824.0 171.17054748535156 244.115234375
v 280.0 171.17054748535156 244.115234375
v 280.0 173.3334197998047 245.01123046875
v 824.0 173.3334197998047 245.01123046875
v 824.0 172.2960968017578 244.456787109375
v 280.0 172.2960968017578 244.456787109375
v 280.0 174.24264526367188 245.75732421875
v 824.0 174.24264526367188 245.75732421875
v 824.0 173.3334197998047 245.01123046875
v 280.0 173.3334197998047 245.01123046875
v 280.0 174.98883056640625 246.6666259765625
v 824.0 174.98883056640625 246.66650390625
v 824.0 174.24264526367188 245.75732421875
v 280.0 174.24264526367188 245.75732421875
v 280.0 175.54327392578125 247.703857421875
v 824.0 175.54327392578125 247.703857421875
v 824.0 174.98883056640625 246.66650390625
v 280.0 174.98883056640625 246.6666259765625
v 280.0 175.88470458984375 248.8294677734375
v 824.0 175.88470458984375 248.8294677734375
v 824.0 175.54327392578125 247.703857421875
v 280.0 175.54327392578125 247.703857421875
v 280.0 176.0 250.0
v 824.0 176.0 250.0
v 824.0 175.88470458984375 248.8294677734375
v 280.0 175.88470458984375 248.8294677734375
v 280.0 175.88470458984375 251.1705322265625
v 824.0 175.88470458984375 251.1705322265625
v 824.0 176.0 250.0
v 280.0 176.0 250.0
v 280.0 175.54327392578125 252.296142578125
v 824.0 175.54327392578125 252.296142578125
v 824.0 175.88470458984375 251.1705322265625
v 280.0 175.88470458984375 251.1705322265625
v 280.0 174.98883056640625 253.33349609375
v 824.0 174.98883056640625 253.3333740234375
v 824.0 175.54327392578125 252.296142578125
v 280.0 175.54327392578125 252.296142578125
v 280.0 174.24264526367188 254.24267578125
v 824.0 174.24264526367188 254.24267578125
v 824.0 174.98883056640625 253.3333740234375
v 280.0 174.98883056640625 253.33349609375
v 280.0 173.3334197998047 254.98876953125
v 824.0 173.3334197998047 254.98876953125
v 824.0 174.24264526367188 254.24267578125
v 280.0 174.24264526367188 254.24267578125
v 280.0 172.2960968017578 255.543212890625
v 824.0 172.2960968017578 255.543212890625
v 824.0 173.3334197998047 254.98876953125
v 280.0 173.3334197998047 254.98876953125
v 280.0 171.17054748535156 255.884765625
v 824.0 171.17054748535156 255.884765625
v 824.0 172.2960968017578 255.543212890625
v 280.0 172.2960968017578 255.543212890625
v 280.0 170.0 256.0
v 824.0 170.0 256.0
v 824.0 171.17054748535156 255.884765625
v 280.0 171.17054748535156 255.884765625
v 280.0 168.82945251464844 255.884765625
v 824.0 168.82945251464844 255.884765625
v 824.0 170.0 256.0
v 280.0 170.0 256.0
v 280.0 167.7039031982422 255.543212890625
v 824.0 167.7039031982422 255.543212890625
v 824.0 168.82945251464844 255.884765625
v 280.0 168.82945251464844 255.884765625
v 280.0 166.6665802001953 254.98876953125
v 824.0 166.6665802001953 254.98876953125
v 824.0 167.7039031982422 255.543212890625
v 280.0 167.7039031982422 255.543212890625
v 280.0 165.75735473632812 254.24267578125
v 824.0 165.75735473632812 254.24267578125
v 824.0 166.6665802001953 254.98876953125
v 280.0 166.6665802001953 254.98876953125
v 280.0 165.01116943359375 253.33349609375
v 824.0 165.01116943359375 253.3333740234375
v 824.0 165.75735473632812 254.24267578125
v 280.0 165.75735473632812 254.24267578125
v 280.0 164.45672607421875 252.296142578125
v 824.0 164.45672607421875 252.296142578125
v 824.0 165.01116943359375 253.3333740234375
v 280.0 165.01116943359375 253.33349609375
v 280.0 164.11529541015625 251.1705322265625
v 824.0 164.11529541015625 251.1705322265625
v 824.0 164.45672607421875 252.296142578125
v 280.0 164.45672607421875 252.296142578125
v 280.0 164.0 250.0
v 824.0 164.0 250.0
v 824.0 164.11529541015625 251.1705322265625
v 280.0 164.11529541015625 251.1705322265625
v 280.0 164.11529541015625 248.8294677734375
v 824.0 164.11529541015625 248.8294677734375
v 824.0 164.0 250.0
v 280.0 164.0 250.0
v 280.0 164.45672607421875 247.703857421875
v 824.0 164.45672607421875 247.703857421875
v 824.0 164.11529541015625 248.8294677734375
v 280.0 164.11529541015625 248.8294677734375
v 280.0 165.0111846923828 246.6666259765625
v 824.0 165.0111846923828 246.66650390625
v 824.0 164.45672607421875 247.703857421875
v 280.0 164.45672607421875 247.703857421875
v 280.0 165.7573699951172 245.75732421875
v 824.0 165.7573699951172 245.75732421875
v 824.0 165.0111846923828 246.66650390625
v 280.0 165.0111846923828 246.6666259765625
v 280.0 166.6665802001953 245.01123046875
v 824.0 166.6665802001953 245.01123046875
v 824.0 165.7573699951172 245.75732421875
v 280.0 165.7573699951172 245.75732421875
v 280.0 167.7039031982422 244.456787109375
v 824.0 167.7039031982422 244.456787109375
v 824.0 166.6665802001953 245.01123046875
v 280.0 166.6665802001953 245.01123046875
v 280.0 168.8294677734375 244.115234375
v 824.0 168.8294677734375 244.115234375
v 824.0 167.7039031982422 244.456787109375
v 280.0 167.7039031982422 244.456787109375
v 280.0 170.0 244.0
v 824.0 170.0 244.0
v 824.0 168.8294677734375 244.115234375
v 280.0 168.8294677734375 244.115234375
v 414.0 172.0 252.0
v 414.0 168.0 252.0
v 414.0 168.0 272.0
v 414.0 172.0 272.0
v 418.0 168.0 252.0
v 418.0 172.0 252.0
v 418.0 172.0 272.0
v 418.0 168.0 272.0
v 418.0 168.0 252.0
v 418.0 168.0 272.0
v 414.0 168.0 272.0
v 414.0 168.0 252.0
v 418.0 172.0 272.0
v 418.0 172.0 252.0
v 414.0 172.0 252.0
v 414.0 172.0 272.0
v 686.0 172.0 252.0
v 686.0 168.0 252.0
v 686.0 168.0 272.0
v 686.0 172.0 272.0
v 690.0 168.0 252.0
v 690.0 172.0 252.0
v 690.0 172.0 272.0
v 690.0 168.0 272.0
v 690.0 168.0 252.0
v 690.0 168.0 272.0
v 686.0 168.0 272.0
v 686.0 168.0 252.0
v 690.0 172.0 272.0
v 690.0 172.0 252.0
v 686.0 172.0 252.0
v 686.0 172.0 272.0
v 550.0 172.0 252.0
v 550.0 168.0 252.0
v 550.0 168.0 272.0
v 550.0 172.0 272.0
v 554.0 168.0 252.0
v 554.0 172.0 252.0
v 554.0 172.0 272.0
v 554.0 168.0 272.0
v 554.0 168.0 252.0
v 554.0 168.0 272.0
v 550.0 168.0 272.0
v 550.0 168.0 252.0
v 554.0 172.0 272.0
v 554.0 172.0 252.0
v 550.0 172.0 252.0
v 550.0 172.0 272.0
v 280.0 320.0 304.0
v 248.0 320.0 304.0
v 248.0 320.0 -304.0
v 280.0 320.0 -304.0
v 824.0 171.17054748535156 -244.115234375
v 280.0 171.17054748535156 -244.115234375
v 280.0 170.0 -244.0
v 824.0 170.0 -244.0
v 824.0 172.2960968017578 -244.456787109375
v 280.0 172.2960968017578 -244.456787109375
v 280.0 171.17054748535156 -244.115234375
v 824.0 171.17054748535156 -244.115234375
v 824.0 173.3334197998047 -245.01123046875
v 280.0 173.3334197998047 -245.01123046875
v 280.0 172.2960968017578 -244.456787109375
v 824.0 172.2960968017578 -244.456787109375
v 824.0 174.24264526367188 -245.75732421875
v 280.0 174.24264526367188 -245.75732421875
v 280.0 173.3334197998047 -245.01123046875
v 824.0 173.3334197998047 -245.01123046875
v 824.0 174.98883056640625 -246.6666259765625
v 280.0 174.98883056640625 -246.66650390625
v 280.0 174.24264526367188 -245.75732421875
v 824.0 174.24264526367188 -245.75732421875
v 824.0 175.54327392578125 -247.703857421875
v 280.0 175.54327392578125 -247.703857421875
v 280.0 174.98883056640625 -246.66650390625
v 824.0 174.98883056640625 -246.6666259765625
v 824.0 175.88470458984375 -248.8294677734375
v 280.0 175.88470458984375 -248.8294677734375
v 280.0 175.54327392578125 -247.703857421875
v 824.0 175.54327392578125 -247.703857421875
v 824.0 176.0 -250.0
v 280.0 176.0 -250.0
v 280.0 175.88470458984375 -248.8294677734375
v 824.0 175.88470458984375 -248.8294677734375
v 824.0 175.88470458984375 -251.1705322265625
v 280.0 175.88470458984375 -251.1705322265625
v 280.0 176.0 -250.0
v 824.0 176.0 -250.0
v 824.0 175.54327392578125 -252.296142578125
v 280.0 175.54327392578125 -252.296142578125
v 280.0 175.88470458984375 -251.1705322265625
v 824.0 175.88470458984375 -251.1705322265625
v 824.0 174.98883056640625 -253.33349609375
v 280.0 174.98883056640625 -253.3333740234375
v 280.0 175.54327392578125 -252.296142578125
v 824.0 175.54327392578125 -252.296142578125
v 824.0 174.24264526367188 -254.24267578125
v 280.0 174.24264526367188 -254.24267578125
v 280.0 174.98883056640625 -253.3333740234375
v 824.0 174.98883056640625 -253.33349609375
v 824.0 173.3334197998047 -254.98876953125
v 280.0 173.3334197998047 -254.98876953125
v 280.0 174.24264526367188 -254.24267578125
v 824.0 174.24264526367188 -254.24267578125
v 824.0 172.2960968017578 -255.543212890625
v 280.0 172.2960968017578 -255.543212890625
v 280.0 173.3334197998047 -254.98876953125
v 824.0 173.3334197998047 -254.98876953125
v 824.0 171.17054748535156 -255.884765625
v 280.0 171.17054748535156 -255.884765625
v 280.0 172.2960968017578 -255.543212890625
v 824.0 172.2960968017578 -255.543212890625
v 824.0 170.0 -256.0
v 280.0 170.0 -256.0
v 280.0 171.17054748535156 -255.884765625
v 824.0 171.17054748535156 -255.884765625
v 824.0 168.82945251464844 -255.884765625
v 280.0 168.82945251464844 -255.884765625
v 280.0 170.0 -256.0
v 824.0 170.0 -256.0
v 824.0 167.7039031982422 -255.543212890625
v 280.0 167.7039031982422 -255.543212890625
v 280.0 168.82945251464844 -255.884765625
v 824.0 168.82945251464844 -255.884765625
v 824.0 166.6665802001953 -254.98876953125
v 280.0 166.6665802001953 -254.98876953125
v 280.0 167.7039031982422 -255.543212890625
v 824.0 167.7039031982422 -255.543212890625
v 824.0 165.75735473632812 -254.24267578125
v 280.0 165.75735473632812 -254.24267578125
v 280.0 166.6665802001953 -254.98876953125
v 824.0 166.6665802001953 -254.98876953125
v 824.0 165.01116943359375 -253.33349609375
v 280.0 165.01116943359375 -253.3333740234375
v 280.0 165.75735473632812 -254.24267578125
v 824.0 165.75735473632812 -254.24267578125
v 824.0 164.45672607421875 -252.296142578125
v 280.0 164.45672607421875 -252.296142578125
v 280.0 165.01116943359375 -253.3333740234375
v 824.0 165.01116943359375 -253.33349609375
v 824.0 164.11529541015625 -251.1705322265625
v 280.0 164.11529541015625 -251.1705322265625
v 280.0 164.45672607421875 -252.296142578125
v 824.0 164.45672607421875 -252.296142578125
v 824.0 164.0 -250.0
v 280.0 164.0 -250.0
v 280.0 164.11529541015625 -251.1705322265625
v 824.0 164.11529541015625 -251.1705322265625
v 824.0 164.11529541015625 -248.8294677734375
v 280.0 164.11529541015625 -248.8294677734375
v 280.0 164.0 -250.0
v 824.0 164.0 -250.0
v 824.0 164.45672607421875 -247.703857421875
v 280.0 164.45672607421875 -247.703857421875
v 280.0 164.11529541015625 -248.8294677734375
v 824.0 164.11529541015625 -248.8294677734375
v 824.0 165.0111846923828 -246.6666259765625
v 280.0 165.0111846923828 -246.66650390625
v 280.0 164.45672607421875 -247.703857421875
v 824.0 164.45672607421875 -247.703857421875
v 824.0 165.7573699951172 -245.75732421875
v 280.0 165.7573699951172 -245.75732421875
v 280.0 165.0111846923828 -246.66650390625
v 824.0 165.0111846923828 -246.6666259765625
v 824.0 166.6665802001953 -245.01123046875
v 280.0 166.6665802001953 -245.01123046875
v 280.0 165.7573699951172 -245.75732421875
v 824.0 165.7573699951172 -245.75732421875
v 824.0 167.7039031982422 -244.456787109375
v 280.0 167.7039031982422 -244.456787109375
v 280.0 166.6665802001953 -245.01123046875
v 824.0 166.6665802001953 -245.01123046875
v 824.0 168.8294677734375 -244.115234375
v 280.0 168.8294677734375 -244.115234375
v 280.0 167.7039031982422 -244.456787109375
v 824.0 167.7039031982422 -244.456787109375
v 824.0 170.0 -244.0
v 280.0 170.0 -244.0
v 280.0 168.8294677734375 -244.115234375
v 824.0 168.8294677734375 -244.115234375
v 690.0 172.0 -252.0
v 690.0 168.0 -252.0
v 690.0 168.0 -272.0
v 690.0 172.0 -272.0
v 686.0 168.0 -252.0
v 686.0 172.0 -252.0
v 686.0 172.0 -272.0
v 686.0 168.0 -272.0
v 686.0 168.0 -252.0
v 686.0 168.0 -272.0
v 690.0 168.0 -272.0
v 690.0 168.0 -252.0
v 686.0 172.0 -272.0
v 686.0 172.0 -252.0
v 690.0 172.0 -252.0
v 690.0 172.0 -272.0
v 418.0 172.0 -252.0
v 418.0 168.0 -252.0
v 418.0 168.0 -272.0
v 418.0 172.0 -272.0
v 414.0 168.0 -252.0
v 414.0 172.0 -252.0
v 414.0 172.0 -272.0
v 414.0 168.0 -272.0
v 414.0 168.0 -252.0
v 414.0 168.0 -272.0
v 418.0 168.0 -272.0
v 418.0 168.0 -252.0
v 414.0 172.0 -272.0
v 414.0 172.0 -252.0
v 418.0 172.0 -252.0
v 418.0 172.0 -272.0
v 554.0 172.0 -252.0
v 554.0 168.0 -252.0
v 554.0 168.0 -272.0
v 554.0 172.0 -272.0
v 550.0 168.0 -252.0
v 550.0 172.0 -252.0
v 550.0 172.0 -272.0
v 550.0 168.0 -272.0
v 550.0 168.0 -252.0
v 550.0 168.0 -272.0
v 554.0 168.0 -272.0
v 554.0 168.0 -252.0
v 550.0 172.0 -272.0
v 550.0 172.0 -252.0
v 554.0 172.0 -252.0
v 554.0 172.0 -272.0
v 224.0 286.3929138183594 256.0
v 112.0 401.14288330078125 256.0
v 112.0 401.14288330078125 96.0
v 224.0 286.3929138183594 96.0
v 224.0 286.3929138183594 96.0
v 112.0 401.14288330078125 96.0
v 224.0 370.2857666015625 96.0
v 224.0 200.57144165039062 256.0
v 193.7021484375 317.4346923828125 256.0
v 193.7021484375 317.4346923828125 96.0
v 224.0 200.57144165039062 96.0
v 224.0 200.57144165039062 96.0
v 193.7021484375 317.4346923828125 96.0
v 224.0 286.3928527832031 96.0
v 112.0 0.0 256.0
v 224.0 115.71426391601562 256.0
v 224.0 115.71426391601562 96.0
v 112.0 0.0 96.0
v 224.0 0.0 96.0
v 112.0 0.0 96.0
v 224.0 115.71426391601562 96.0
v 193.951171875 84.66896057128906 256.0
v 224.0 200.57147216796875 256.0
v 224.0 200.57147216796875 96.0
v 193.951171875 84.66895294189453 96.0
v 224.0 115.71426391601562 96.0
v 193.951171875 84.66895294189453 96.0
v 224.0 200.57147216796875 96.0
v 112.0 401.14288330078125 -256.0
v 224.0 286.3929138183594 -256.0
v 224.0 286.3929138183594 -96.0
v 112.0 401.14288330078125 -96.0
v 224.0 286.3929138183594 -96.0
v 224.0 370.2857666015625 -96.0
v 112.0 401.14288330078125 -96.0
v 193.7021484375 317.4347229003906 -256.0
v 224.0 200.57142639160156 -256.0
v 224.0 200.57142639160156 -96.0
v 193.7021484375 317.4347229003906 -96.0
v 224.0 200.57142639160156 -96.0
v 224.0 286.3928527832031 -96.0
v 193.7021484375 317.4347229003906 -96.0
v 224.0 115.71426391601562 -256.0
v 112.0 0.0 -256.0
v 112.0 0.0 -96.0
v 224.0 115.71426391601562 -96.0
v 112.0 0.0 -96.0
v 224.0 0.0 -96.0
v 224.0 115.71426391601562 -96.0
v 224.0 200.5714569091797 -256.0
v 193.951171875 84.66893768310547 -256.0
v 193.951171875 84.6689453125 -96.0
v 224.0 200.5714569091797 -96.0
v 193.951171875 84.6689453125 -96.0
v 224.0 115.71426391601562 -96.0
v 224.0 200.5714569091797 -96.0
v 191.1982421875 320.0 -96.0
v 191.1982421875 320.0 96.0
v 112.0 401.14288330078125 96.0
v 112.0 401.14288330078125 -96.0
v 224.0 320.0 -96.0
v 224.0 320.0 96.0
v 191.1982421875 320.0 96.0
v 191.1982421875 320.0 -96.0
v -24.0 388.0 16.0
v -24.0 384.0 16.0
v 24.0 384.0 16.0
v 24.0 388.0 16.0
v -24.0 384.0 -16.0
v -24.0 388.0 -16.0
v 24.0 388.0 -16.0
v 24.0 384.0 -16.0
v -24.0 384.0 -16.0
v 24.0 384.0 -16.0
v 24.0 384.0 16.0
v -24.0 384.0 16.0
v 24.0 388.0 -16.0
v 24.0 388.0 16.0
v 24.0 384.0 16.0
v 24.0 384.0 -16.0
v -24.0 388.0 16.0
v -24.0 388.0 -16.0
v -24.0 384.0 -16.0
v -24.0 384.0 16.0
v 544.0 480.0 20.0
v 544.0 476.0 20.0
v 568.0 476.0 20.0
v 568.0 480.0 20.0
v 544.0 476.0 -20.0
v 544.0 480.0 -20.0
v 568.0 480.0 -20.0
v 568.0 476.0 -20.0
v 544.0 476.0 -20.0
v 568.0 476.0 -20.0
v 568.0 476.0 20.0
v 544.0 476.0 20.0
v 568.0 480.0 -20.0
v 568.0 480.0 20.0
v 568.0 476.0 20.0
v 568.0 476.0 -20.0
v 544.0 480.0 20.0
v 544.0 480.0 -20.0
v 544.0 476.0 -20.0
v 544.0 476.0 20.0
v 824.0 512.0 -272.0
v 824.0 0.0 -272.0
v 824.0 0.0 272.0
v 824.0 512.0 272.0
v 280.0 512.0 272.0
v 856.0 512.0 272.0
v 856.0 0.0 272.0
v 280.0 0.0 272.0
v 856.0 512.0 -272.0
v 280.0 512.0 -272.0
v 280.0 0.0 -272.0
v 856.0 0.0 -272.0
v 280.0 0.0 96.0
v 280.0 319.9999694824219 96.0
v 280.0 319.9999694824219 272.0
v 280.0 0.0 272.0
v 280.0 320.0 -272.0
v 280.0 320.0 -96.0
v 280.0 0.0 -96.0
v 280.0 0.0 -272.0
v 280.0 512.0 -304.0
v 280.0 512.0 304.0
v 280.0 320.0 304.0
v 280.0 320.0 -304.0
vt -0.8750001192092896 2.0000001192092896
vt 0.9999998807907104 2.0000001192092896
vt 0.9999998211860657 5.960464477539063e-08
vt -0.8750001788139343 1.1920928955078125e-07
vt -0.9927159547805786 3.003054618835449
vt -0.005873881746083498 3.003054618835449
vt -0.005873955320566893 -0.004464149475097656
vt -0.9927160739898682 -0.004464149475097656
vt 1.0044643878936768 1.52279132604599
vt -2.00305438041687 1.52279132604599
vt -2.00305438041687 1.4992950856685638
vt 1.0044643878936768 1.4992950856685638
vt -2.00305438041687 1.52279132604599
vt 1.0044643878936768 1.52279132604599
vt 1.0044643878936768 1.4992950856685638
vt -2.00305438041687 1.4992950856685638
vt 8.02734375 7.2434892654418945
vt 8.02734375 5.264322757720947
vt 6.0481767654418945 5.264322757720947
vt 6.0481767654418945 7.243489742279053
vt -0.21875008940696716 0.5000000596046448
vt -8.667377215942906e-08 0.5000000596046448
vt -6.23378397790475e-08 1.5000000596046448
vt -0.21875005960464478 1.5000000596046448
vt 0.21874994039535522 1.5000000596046448
vt -6.23378397790475e-08 1.5000000596046448
vt -8.667377215942906e-08 0.5000000596046448
vt 0.21874991059303284 0.5000000298023224
vt 0.5000000596046448 1.5593611598014832
vt 0.5000000596046448 1.7834821939468384
vt -0.4999999701976776 1.7834821939468384
vt -0.4999999701976776 1.5593611598014832
vt 0.5000000596046448 1.391741394996643
vt 0.5000000596046448 1.6199896335601807
vt -0.4999999701976776 1.6199895739555359
vt -0.4999999701976776 1.3917414247989655
vt 0.5000000596046448 1.0
vt 0.5000000596046448 1.2260043919086456
vt -0.4999999701976776 1.2260043919086456
vt -0.4999999701976776 1.0
vt 0.5000000596046448 1.1653690338134766
vt 0.5000000596046448 1.3917414546012878
vt -0.4999999701976776 1.3917414844036102
vt -0.4999999701976776 1.1653690785169601
vt 0.12499991804361343 1.7578125
vt 0.12499991804361343 1.75
vt -0.12500008940696716 1.75
vt -0.12500008940696716 1.7578125
vt 0.12499993294477463 1.75
vt 0.12499993294477463 1.7578125
vt -0.12500005960464478 1.7578125
vt -0.12500005960464478 1.75
vt 0.12499993294477463 1.4375000596046448
vt -0.12500005960464478 1.4375000596046448
vt -0.12500008940696716 0.5312500596046448
vt 0.12499991804361343 0.5312500596046448
vt 0.4375000596046448 1.7578125
vt -0.4687499403953552 1.7578125
vt -0.4687499403953552 1.75
vt 0.4375000596046448 1.75
vt -0.4687499403953552 1.7578125
vt 0.4375000596046448 1.7578125
vt 0.4375000596046448 1.75
vt -0.4687499403953552 1.75
vt 0.10937494039535522 1.765625
vt 0.10937494039535522 1.7578125
vt -0.10937505960464478 1.7578125
vt -0.10937505960464478 1.765625
vt 0.12499994039535522 1.7578125
vt 0.12499994039535522 1.765625
vt -0.12500005960464478 1.765625
vt -0.12500005960464478 1.7578125
vt 0.12499994039535522 1.5000000596046448
vt -0.12500005960464478 1.5000000596046448
vt -0.10937505960464478 1.4843750596046448
vt 0.10937494039535522 1.4843750596046448
vt -0.10937505960464478 1.4843750596046448
vt -0.12500005960464478 1.5000000596046448
vt -0.12500005960464478 1.4531250596046448
vt -0.10937506705522537 1.4531250596046448
vt 0.5000000596046448 1.765625
vt 0.4531250596046448 1.765625
vt 0.4531250596046448 1.7578125
vt 0.5000000596046448 1.7578125
vt 0.4531250596046448 1.765625
vt 0.4843750596046448 1.765625
vt 0.4843750596046448 1.7578125
vt 0.4531250596046448 1.7578125
vt 0.12499994039535522 1.5000000596046448
vt 0.10937494039535522 1.4843750596046448
vt 0.10937493294477463 1.4531250596046448
vt 0.12499993294477463 1.4531250596046448
vt 0.4843750596046448 1.765625
vt 0.4531250596046448 1.765625
vt 0.4531250596046448 1.7578125
vt 0.4843750596046448 1.7578125
vt 0.4531250596046448 1.765625
vt 0.5000000596046448 1.765625
vt 0.5000000596046448 1.7578125
vt 0.4531250596046448 1.7578125
vt -0.10937508940696716 1.765625
vt -0.10937508940696716 1.7578125
vt 0.10937491059303284 1.7578125
vt 0.10937491059303284 1.765625
vt -0.12500008940696716 1.7578125
vt -0.12500008940696716 1.765625
vt 0.12499991059303284 1.765625
vt 0.12499991059303284 1.7578125
vt -0.12500008940696716 0.5000000596046448
vt 0.12499991059303284 0.5000000596046448
vt 0.10937491059303284 0.5156250596046448
vt -0.10937508940696716 0.5156250596046448
vt 0.10937491059303284 0.5156250596046448
vt 0.12499991059303284 0.5000000596046448
vt 0.12499991804361343 0.5468750596046448
vt 0.10937491804361343 0.5468750596046448
vt -0.4999999403953552 1.765625
vt -0.4531249403953552 1.765625
vt -0.4531249403953552 1.7578125
vt -0.4999999403953552 1.7578125
vt -0.4531249403953552 1.765625
vt -0.4843749403953552 1.765625
vt -0.4843749403953552 1.7578125
vt -0.4531249403953552 1.7578125
vt -0.12500008940696716 0.5000000596046448
vt -0.10937508940696716 0.5156250596046448
vt -0.10937508195638657 0.5468750596046448
vt -0.12500008940696716 0.5468750596046448
vt -0.4843749403953552 1.765625
vt -0.4531249403953552 1.765625
vt -0.4531249403953552 1.7578125
vt -0.4843749403953552 1.7578125
vt -0.4531249403953552 1.765625
vt -0.4999999403953552 1.765625
vt -0.4999999403953552 1.7578125
vt -0.4531249403953552 1.7578125
vt 10.859375 8.578125
vt 10.859375 11.234375
vt 8.203125 11.234375
vt 8.203125 8.578125
vt 0.8482145071029663 1.8928570747375488
vt 0.8482145071029663 1.0
vt 0.7589288353919983 1.0
vt 0.7589288353919983 1.8928571939468384
vt 0.8482146859169006 1.0
vt 0.8482146859169006 1.8928571939468384
vt 0.7589289546012878 1.8928570747375488
vt 0.7589289546012878 1.0
vt 2.875 1.3655674755573273
vt 3.9375 1.3655674755573273
vt 3.9375 1.36328125
vt 2.875 1.36328125
vt 2.875 1.3677658140659332
vt 3.9375 1.3677658140659332
vt 3.9375 1.3655674755573273
vt 2.875 1.3655674755573273
vt 2.875 1.3697918355464935
vt 3.9375 1.3697918355464935
vt 3.9375 1.3677658140659332
vt 2.875 1.3677658140659332
vt 2.875 1.3715676665306091
vt 3.9375 1.3715676665306091
vt 3.9375 1.3697918355464935
vt 2.875 1.3697918355464935
vt 3.28125 5.0442705154418945
vt 4.34375 5.0442705154418945
vt 4.34375 5.042494773864746
vt 3.28125 5.042494773864746
vt 3.28125 5.0462965965271
vt 4.34375 5.0462965965271
vt 4.34375 5.0442705154418945
vt 3.28125 5.0442705154418945
vt 3.28125 5.048494815826416
vt 4.34375 5.048494815826416
vt 4.34375 5.0462965965271
vt 3.28125 5.0462965965271
vt 3.28125 5.05078125
vt 4.34375 5.05078125
vt 4.34375 5.048494815826416
vt 3.28125 5.048494815826416
vt 3.28125 5.053067207336426
vt 4.34375 5.053067207336426
vt 4.34375 5.05078125
vt 3.28125 5.05078125
vt 3.28125 5.0552659034729
vt 4.34375 5.0552659034729
vt 4.34375 5.053067207336426
vt 3.28125 5.053067207336426
vt 3.28125 5.0572919845581055
vt 4.34375 5.057291507720947
vt 4.34375 5.0552659034729
vt 3.28125 5.0552659034729
vt 3.28125 5.059067726135254
vt 4.34375 5.059067726135254
vt 4.34375 5.057291507720947
vt 3.28125 5.0572919845581055
vt 2.875 1.3697918355464935
vt 3.9375 1.3697918355464935
vt 3.9375 1.3715676665306091
vt 2.875 1.3715676665306091
vt 2.875 1.3677658140659332
vt 3.9375 1.3677658140659332
vt 3.9375 1.3697918355464935
vt 2.875 1.3697918355464935
vt 2.875 1.3655674755573273
vt 3.9375 1.3655674755573273
vt 3.9375 1.3677658140659332
vt 2.875 1.3677658140659332
vt 2.875 1.36328125
vt 3.9375 1.36328125
vt 3.9375 1.3655674755573273
vt 2.875 1.3655674755573273
vt 2.875 1.3609950244426727
vt 3.9375 1.3609950244426727
vt 3.9375 1.36328125
vt 2.875 1.36328125
vt 2.875 1.3587966859340668
vt 3.9375 1.3587966859340668
vt 3.9375 1.3609950244426727
vt 2.875 1.3609950244426727
vt 2.875 1.3567706644535065
vt 3.9375 1.3567706644535065
vt 3.9375 1.3587966859340668
vt 2.875 1.3587966859340668
vt 2.875 1.3549948334693909
vt 3.9375 1.3549948334693909
vt 3.9375 1.3567706644535065
vt 2.875 1.3567706644535065
vt 3.28125 5.0572919845581055
vt 4.34375 5.057291507720947
vt 4.34375 5.059067726135254
vt 3.28125 5.059067726135254
vt 3.28125 5.0552659034729
vt 4.34375 5.0552659034729
vt 4.34375 5.057291507720947
vt 3.28125 5.0572919845581055
vt 3.28125 5.053067207336426
vt 4.34375 5.053067207336426
vt 4.34375 5.0552659034729
vt 3.28125 5.0552659034729
vt 3.28125 5.05078125
vt 4.34375 5.05078125
vt 4.34375 5.053067207336426
vt 3.28125 5.053067207336426
vt 3.28125 5.048494815826416
vt 4.34375 5.048494815826416
vt 4.34375 5.05078125
vt 3.28125 5.05078125
vt 3.28125 5.0462965965271
vt 4.34375 5.0462965965271
vt 4.34375 5.048494815826416
vt 3.28125 5.048494815826416
vt 3.28125 5.0442705154418945
vt 4.34375 5.0442705154418945
vt 4.34375 5.0462965965271
vt 3.28125 5.0462965965271
vt 3.28125 5.042494773864746
vt 4.34375 5.042494773864746
vt 4.34375 5.0442705154418945
vt 3.28125 5.0442705154418945
vt 2.875 1.3567706644535065
vt 3.9375 1.3567706644535065
vt 3.9375 1.3549948632717133
vt 2.875 1.3549948632717133
vt 2.875 1.3587966859340668
vt 3.9375 1.3587966859340668
vt 3.9375 1.3567706644535065
vt 2.875 1.3567706644535065
vt 2.875 1.3609950542449951
vt 3.9375 1.3609950542449951
vt 3.9375 1.3587966859340668
vt 2.875 1.3587966859340668
vt 2.875 1.36328125
vt 3.9375 1.36328125
vt 3.9375 1.3609950542449951
vt 2.875 1.3609950542449951
vt 4.4765625 1.375
vt 4.4765625 1.3671875
vt 4.515625 1.3671875
vt 4.515625 1.375
vt 4.4765625 1.3671875
vt 4.4765625 1.375
vt 4.515625 1.375
vt 4.515625 1.3671875
vt 3.56640625 4.85546875
vt 3.56640625 4.89453125
vt 3.55859375 4.89453125
vt 3.55859375 4.85546875
vt 3.56640625 4.89453125
vt 3.56640625 4.85546875
vt 3.55859375 4.85546875
vt 3.55859375 4.89453125
vt 4.4765625 1.375
vt 4.4765625 1.3671875
vt 4.515625 1.3671875
vt 4.515625 1.375
vt 4.4765625 1.3671875
vt 4.4765625 1.375
vt 4.515625 1.375
vt 4.515625 1.3671875
vt 4.09765625 4.32421875
vt 4.09765625 4.36328125
vt 4.08984375 4.36328125
vt 4.08984375 4.32421875
vt 4.09765625 4.36328125
vt 4.09765625 4.32421875
vt 4.08984375 4.32421875
vt 4.08984375 4.36328125
vt 4.4765625 1.375
vt 4.4765625 1.3671875
vt 4.515625 1.3671875
vt 4.515625 1.375
vt 4.4765625 1.3671875
vt 4.4765625 1.375
vt 4.515625 1.375
vt 4.515625 1.3671875
vt 3.83203125 4.58984375
vt 3.83203125 4.62890625
vt 3.82421875 4.62890625
vt 3.82421875 4.58984375
vt 3.83203125 4.62890625
vt 3.83203125 4.58984375
vt 3.82421875 4.58984375
vt 3.82421875 4.62890625
vt 0.8482142090797424 3.6785714626312256
vt 0.7589284777641296 3.6785714626312256
vt 0.7589284181594849 1.9821428656578064
vt 0.8482141494750977 1.9821428656578064
vt 3.9375 1.3655674755573273
vt 2.875 1.3655674755573273
vt 2.875 1.36328125
vt 3.9375 1.36328125
vt 3.9375 1.3677658140659332
vt 2.875 1.3677658140659332
vt 2.875 1.3655674755573273
vt 3.9375 1.3655674755573273
vt 3.9375 1.3697918355464935
vt 2.875 1.3697918355464935
vt 2.875 1.3677658140659332
vt 3.9375 1.3677658140659332
vt 3.9375 1.3715676665306091
vt 2.875 1.3715676665306091
vt 2.875 1.3697918355464935
vt 3.9375 1.3697918355464935
vt 4.34375 4.080729246139526
vt 3.28125 4.0807294845581055
vt 3.28125 4.082505226135254
vt 4.34375 4.082505226135254
vt 4.34375 4.0787034034729
vt 3.28125 4.0787034034729
vt 3.28125 4.0807294845581055
vt 4.34375 4.080729246139526
vt 4.34375 4.076504945755005
vt 3.28125 4.076504945755005
vt 3.28125 4.0787034034729
vt 4.34375 4.0787034034729
vt 4.34375 4.07421875
vt 3.28125 4.07421875
vt 3.28125 4.076504945755005
vt 4.34375 4.076504945755005
vt 4.34375 4.071932554244995
vt 3.28125 4.071932554244995
vt 3.28125 4.07421875
vt 4.34375 4.07421875
vt 4.34375 4.0697340965271
vt 3.28125 4.0697340965271
vt 3.28125 4.071932554244995
vt 4.34375 4.071932554244995
vt 4.34375 4.0677080154418945
vt 3.28125 4.067708253860474
vt 3.28125 4.0697340965271
vt 4.34375 4.0697340965271
vt 4.34375 4.065932273864746
vt 3.28125 4.065932273864746
vt 3.28125 4.067708253860474
vt 4.34375 4.0677080154418945
vt 3.9375 1.3697918355464935
vt 2.875 1.3697918355464935
vt 2.875 1.3715676665306091
vt 3.9375 1.3715676665306091
vt 3.9375 1.3677658140659332
vt 2.875 1.3677658140659332
vt 2.875 1.3697918355464935
vt 3.9375 1.3697918355464935
vt 3.9375 1.3655674755573273
vt 2.875 1.3655674755573273
vt 2.875 1.3677658140659332
vt 3.9375 1.3677658140659332
vt 3.9375 1.36328125
vt 2.875 1.36328125
vt 2.875 1.3655674755573273
vt 3.9375 1.3655674755573273
vt 3.9375 1.3609950244426727
vt 2.875 1.3609950244426727
vt 2.875 1.36328125
vt 3.9375 1.36328125
vt 3.9375 1.3587966859340668
vt 2.875 1.3587966859340668
vt 2.875 1.3609950244426727
vt 3.9375 1.3609950244426727
vt 3.9375 1.3567706644535065
vt 2.875 1.3567706644535065
vt 2.875 1.3587966859340668
vt 3.9375 1.3587966859340668
vt 3.9375 1.3549948334693909
vt 2.875 1.3549948334693909
vt 2.875 1.3567706644535065
vt 3.9375 1.3567706644535065
vt 4.34375 4.0677080154418945
vt 3.28125 4.067708253860474
vt 3.28125 4.065932273864746
vt 4.34375 4.065932273864746
vt 4.34375 4.0697340965271
vt 3.28125 4.0697340965271
vt 3.28125 4.067708253860474
vt 4.34375 4.0677080154418945
vt 4.34375 4.071932554244995
vt 3.28125 4.071932554244995
vt 3.28125 4.0697340965271
vt 4.34375 4.0697340965271
vt 4.34375 4.07421875
vt 3.28125 4.07421875
vt 3.28125 4.071932554244995
vt 4.34375 4.071932554244995
vt 4.34375 4.076504945755005
vt 3.28125 4.076504945755005
vt 3.28125 4.07421875
vt 4.34375 4.07421875
vt 4.34375 4.0787034034729
vt 3.28125 4.0787034034729
vt 3.28125 4.076504945755005
vt 4.34375 4.076504945755005
vt 4.34375 4.080729246139526
vt 3.28125 4.0807294845581055
vt 3.28125 4.0787034034729
vt 4.34375 4.0787034034729
vt 4.34375 4.082505226135254
vt 3.28125 4.082505226135254
vt 3.28125 4.0807294845581055
vt 4.34375 4.080729246139526
vt 3.9375 1.3567706644535065
vt 2.875 1.3567706644535065
vt 2.875 1.3549948632717133
vt 3.9375 1.3549948632717133
vt 3.9375 1.3587966859340668
vt 2.875 1.3587966859340668
vt 2.875 1.3567706644535065
vt 3.9375 1.3567706644535065
vt 3.9375 1.3609950542449951
vt 2.875 1.3609950542449951
vt 2.875 1.3587966859340668
vt 3.9375 1.3587966859340668
vt 3.9375 1.36328125
vt 2.875 1.36328125
vt 2.875 1.3609950542449951
vt 3.9375 1.3609950542449951
vt 3.4921875 1.375
vt 3.4921875 1.3671875
vt 3.453125 1.3671875
vt 3.453125 1.375
vt 3.4921875 1.3671875
vt 3.4921875 1.375
vt 3.453125 1.375
vt 3.453125 1.3671875
vt 4.08984375 3.87109375
vt 4.08984375 3.83203125
vt 4.09765625 3.83203125
vt 4.09765625 3.87109375
vt 4.08984375 3.83203125
vt 4.08984375 3.87109375
vt 4.09765625 3.87109375
vt 4.09765625 3.83203125
vt 3.4921875 1.375
vt 3.4921875 1.3671875
vt 3.453125 1.3671875
vt 3.453125 1.375
vt 3.4921875 1.3671875
vt 3.4921875 1.375
vt 3.453125 1.375
vt 3.453125 1.3671875
vt 3.55859375 3.33984375
vt 3.55859375 3.30078125
vt 3.56640625 3.30078125
vt 3.56640625 3.33984375
vt 3.55859375 3.30078125
vt 3.55859375 3.33984375
vt 3.56640625 3.33984375
vt 3.56640625 3.30078125
vt 3.4921875 1.375
vt 3.4921875 1.3671875
vt 3.453125 1.3671875
vt 3.453125 1.375
vt 3.4921875 1.3671875
vt 3.4921875 1.375
vt 3.453125 1.375
vt 3.453125 1.3671875
vt 3.82421875 3.60546875
vt 3.82421875 3.56640625
vt 3.83203125 3.56640625
vt 3.83203125 3.60546875
vt 3.82421875 3.56640625
vt 3.82421875 3.60546875
vt 3.83203125 3.60546875
vt 3.83203125 3.56640625
vt 2.5 1.5593611598014832
vt 2.5 1.7834821939468384
vt 2.8125 1.7834821939468384
vt 2.8125 1.5593611598014832
vt 1.5624998807907104 1.5593611598014832
vt 1.7812498807907104 1.7834821939468384
vt 1.5624998807907104 1.7232143878936768
vt 2.5 1.3917410969734192
vt 2.5 1.6199896335601807
vt 2.8125 1.6199896335601807
vt 2.8125 1.3917410969734192
vt 1.5624998807907104 1.3917410969734192
vt 1.6216753721237183 1.6199896335601807
vt 1.5624998807907104 1.5593610405921936
vt 2.5 1.0
vt 2.5 1.226004421710968
vt 2.8125 1.226004421710968
vt 2.8125 1.0
vt 1.5624998807907104 1.0
vt 1.7812498807907104 1.0
vt 1.5624998807907104 1.226004421710968
vt 2.5 1.165369063615799
vt 2.5 1.391741156578064
vt 2.8125 1.391741156578064
vt 2.8125 1.1653690487146378
vt 1.5624998807907104 1.226004421710968
vt 1.621188998222351 1.1653690487146378
vt 1.5624998807907104 1.391741156578064
vt 3.5 1.7834821939468384
vt 3.5 1.5593611598014832
vt 3.1875 1.5593611598014832
vt 3.1875 1.7834821939468384
vt 1.5624998807907104 1.5593611598014832
vt 1.5624998807907104 1.7232143878936768
vt 1.7812498807907104 1.7834821939468384
vt 3.5 1.6199896931648254
vt 3.5 1.3917410671710968
vt 3.1875 1.3917410671710968
vt 3.1875 1.6199896931648254
vt 1.5624998807907104 1.3917410671710968
vt 1.5624998807907104 1.5593610405921936
vt 1.6216753721237183 1.6199896931648254
vt 3.5 1.226004421710968
vt 3.5 1.0
vt 3.1875 1.0
vt 3.1875 1.226004421710968
vt 1.7812498807907104 1.0
vt 1.5624998807907104 1.0
vt 1.5624998807907104 1.226004421710968
vt 3.5 1.3917411267757416
vt 3.5 1.1653690189123154
vt 3.1875 1.1653690338134766
vt 3.1875 1.3917411267757416
vt 1.621188998222351 1.1653690338134766
vt 1.5624998807907104 1.226004421710968
vt 1.5624998807907104 1.3917411267757416
vt 3.1875 1.625
vt 2.8125 1.625
vt 2.8125 1.7834821939468384
vt 3.1875 1.7834821939468384
vt 1.5624998807907104 4.1875
vt 1.5624998807907104 3.8125
vt 1.6265658140182495 3.8125
vt 1.6265658140182495 4.1875
vt 0.34374985098838806 2.53125
vt 0.34374985098838806 2.515625
vt 0.15624985098838806 2.515625
vt 0.15624985098838806 2.53125
vt 0.34374985098838806 2.515625
vt 0.34374985098838806 2.53125
vt 0.15624985098838806 2.53125
vt 0.15624985098838806 2.515625
vt 0.34374985098838806 0.8671876043081284
vt 0.15624985098838806 0.8671876043081284
vt 0.15624985098838806 0.7421876192092896
vt 0.34374985098838806 0.7421875894069672
vt -0.13281239569187164 2.53125
vt -0.25781238079071045 2.53125
vt -0.25781238079071045 2.515625
vt -0.13281239569187164 2.515625
vt -0.25781241059303284 2.53125
vt -0.13281239569187164 2.53125
vt -0.13281239569187164 2.515625
vt -0.25781241059303284 2.515625
vt 9.170160293579102 -6.0931782722473145
vt 9.170160293579102 -6.1122331619262695
vt 9.284489631652832 -6.1122331619262695
vt 9.284489631652832 -6.0931782722473145
vt 9.327363014221191 -6.10746955871582
vt 9.327363014221191 -6.088414669036865
vt 9.441692352294922 -6.088414669036865
vt 9.441692352294922 -6.10746955871582
vt 4.654153823852539 -4.144817352294922
vt 4.654153823852539 -4.259146690368652
vt 4.84470272064209 -4.259146690368652
vt 4.84470272064209 -4.144817352294922
vt 5.34965705871582 -20.91787338256836
vt 5.540205955505371 -20.91787338256836
vt 5.540205955505371 -20.936927795410156
vt 5.34965705871582 -20.936927795410156
vt 5.540205955505371 -20.91787338256836
vt 5.34965705871582 -20.91787338256836
vt 5.34965705871582 -20.936927795410156
vt 5.540205955505371 -20.936927795410156
vt 4.841549396514893 2.3561840057373047
vt 4.841549396514893 0.9477332718670368
vt 6.338028430938721 0.9477332718670368
vt 6.338028430938721 2.3561840057373047
vt 2.7288734912872314 2.3561840057373047
vt 4.313380241394043 2.3561840057373047
vt 4.313380241394043 0.9477332718670368
vt 2.7288734912872314 0.9477332718670368
vt 4.313380718231201 2.3561840057373047
vt 2.7288734912872314 2.3561840057373047
vt 2.7288734912872314 0.9477332718670368
vt 4.313380718231201 0.9477332718670368
vt 1.46875 1.0
vt 1.46875 1.6249999403953552
vt 1.8125 1.6249999403953552
vt 1.8125 1.0
vt 0.7500001192092896 1.625
vt 1.0937501192092896 1.625
vt 1.0937501192092896 1.0
vt 0.7500001192092896 1.0
vt 0.6875 2.0
vt 1.875 2.0
vt 1.875 1.625
vt 0.6875 1.625

g RoomMesh_Geometry
f 1/1 2/2 3/3
f 4/4 1/1 3/3
f 5/5 6/6 7/7
f 8/8 5/5 7/7
f 9/9 10/10 11/11
f 12/12 9/9 11/11
f 13/13 14/14 15/15
f 16/16 13/13 15/15
f 17/17 18/18 19/19
f 20/20 17/17 19/19
f 21/21 22/22 23/23
f 24/24 21/21 23/23
f 25/25 26/26 27/27
f 28/28 25/25 27/27
f 29/29 30/30 31/31
f 32/32 29/29 31/31
f 33/33 34/34 35/35
f 36/36 33/33 35/35
f 37/37 38/38 39/39
f 40/40 37/37 39/39
f 41/41 42/42 43/43
f 44/44 41/41 43/43
f 45/45 46/46 47/47
f 48/48 45/45 47/47
f 49/49 50/50 51/51
f 52/52 49/49 51/51
f 53/53 54/54 55/55
f 56/56 53/53 55/55
f 57/57 58/58 59/59
f 60/60 57/57 59/59
f 61/61 62/62 63/63
f 64/64 61/61 63/63
f 65/65 66/66 67/67
f 68/68 65/65 67/67
f 69/69 70/70 71/71
f 72/72 69/69 71/71
f 73/73 74/74 75/75
f 76/76 73/73 75/75
f 77/77 78/78 79/79
f 80/80 77/77 79/79
f 81/81 82/82 83/83
f 84/84 81/81 83/83
f 85/85 86/86 87/87
f 88/88 85/85 87/87
f 89/89 90/90 91/91
f 92/92 89/89 91/91
f 93/93 94/94 95/95
f 96/96 93/93 95/95
f 97/97 98/98 99/99
f 100/100 97/97 99/99
f 101/101 102/102 103/103
f 104/104 101/101 103/103
f 105/105 106/106 107/107
f 108/108 105/105 107/107
f 109/109 110/110 111/111
f 112/112 109/109 111/111
f 113/113 114/114 115/115
f 116/116 113/113 115/115
f 117/117 118/118 119/119
f 120/120 117/117 119/119
f 121/121 122/122 123/123
f 124/124 121/121 123/123
f 125/125 126/126 127/127
f 128/128 125/125 127/127
f 129/129 130/130 131/131
f 132/132 129/129 131/131
f 133/133 134/134 135/135
f 136/136 133/133 135/135
f 137/137 138/138 139/139
f 140/140 137/137 139/139
f 141/141 142/142 143/143
f 144/144 141/141 143/143
f 145/145 146/146 147/147
f 148/148 145/145 147/147
f 149/149 150/150 151/151
f 152/152 149/149 151/151
f 153/153 154/154 155/155
f 156/156 153/153 155/155
f 157/157 158/158 159/159
f 160/160 157/157 159/159
f 161/161 162/162 163/163
f 164/164 161/161 163/163
f 165/165 166/166 167/167
f 168/168 165/165 167/167
f 169/169 170/170 171/171
f 172/172 169/169 171/171
f 173/173 174/174 175/175
f 176/176 173/173 175/175
f 177/177 178/178 179/179
f 180/180 177/177 179/179
f 181/181 182/182 183/183
f 184/184 181/181 183/183
f 185/185 186/186 187/187
f 188/188 185/185 187/187
f 189/189 190/190 191/191
f 192/192 189/189 191/191
f 193/193 194/194 195/195
f 196/196 193/193 195/195
f 197/197 198/198 199/199
f 200/200 197/197 199/199
f 201/201 202/202 203/203
f 204/204 201/201 203/203
f 205/205 206/206 207/207
f 208/208 205/205 207/207
f 209/209 210/210 211/211
f 212/212 209/209 211/211
f 213/213 214/214 215/215
f 216/216 213/213 215/215
f 217/217 218/218 219/219
f 220/220 217/217 219/219
f 221/221 222/222 223/223
f 224/224 221/221 223/223
f 225/225 226/226 227/227
f 228/228 225/225 227/227
f 229/229 230/230 231/231
f 232/232 229/229 231/231
f 233/233 234/234 235/235
f 236/236 233/233 235/235
f 237/237 238/238 239/239
f 240/240 237/237 239/239
f 241/241 242/242 243/243
f 244/244 241/241 243/243
f 245/245 246/246 247/247
f 248/248 245/245 247/247
f 249/249 250/250 251/251
f 252/252 249/249 251/251
f 253/253 254/254 255/255
f 256/256 253/253 255/255
f 257/257 258/258 259/259
f 260/260 257/257 259/259
f 261/261 262/262 263/263
f 264/264 261/261 263/263
f 265/265 266/266 267/267
f 268/268 265/265 267/267
f 269/269 270/270 271/271
f 272/272 269/269 271/271
f 273/273 274/274 275/275
f 276/276 273/273 275/275
f 277/277 278/278 279/279
f 280/280 277/277 279/279
f 281/281 282/282 283/283
f 284/284 281/281 283/283
f 285/285 286/286 287/287
f 288/288 285/285 287/287
f 289/289 290/290 291/291
f 292/292 289/289 291/291
f 293/293 294/294 295/295
f 296/296 293/293 295/295
f 297/297 298/298 299/299
f 300/300 297/297 299/299
f 301/301 302/302 303/303
f 304/304 301/301 303/303
f 305/305 306/306 307/307
f 308/308 305/305 307/307
f 309/309 310/310 311/311
f 312/312 309/309 311/311
f 313/313 314/314 315/315
f 316/316 313/313 315/315
f 317/317 318/318 319/319
f 320/320 317/317 319/319
f 321/321 322/322 323/323
f 324/324 321/321 323/323
f 325/325 326/326 327/327
f 328/328 325/325 327/327
f 329/329 330/330 331/331
f 332/332 329/329 331/331
f 333/333 334/334 335/335
f 336/336 333/333 335/335
f 337/337 338/338 339/339
f 340/340 337/337 339/339
f 341/341 342/342 343/343
f 344/344 341/341 343/343
f 345/345 346/346 347/347
f 348/348 345/345 347/347
f 349/349 350/350 351/351
f 352/352 349/349 351/351
f 353/353 354/354 355/355
f 356/356 353/353 355/355
f 357/357 358/358 359/359
f 360/360 357/357 359/359
f 361/361 362/362 363/363
f 364/364 361/361 363/363
f 365/365 366/366 367/367
f 368/368 365/365 367/367
f 369/369 370/370 371/371
f 372/372 369/369 371/371
f 373/373 374/374 375/375
f 376/376 373/373 375/375
f 377/377 378/378 379/379
f 380/380 377/377 379/379
f 381/381 382/382 383/383
f 384/384 381/381 383/383
f 385/385 386/386 387/387
f 388/388 385/385 387/387
f 389/389 390/390 391/391
f 392/392 389/389 391/391
f 393/393 394/394 395/395
f 396/396 393/393 395/395
f 397/397 398/398 399/399
f 400/400 397/397 399/399
f 401/401 402/402 403/403
f 404/404 401/401 403/403
f 405/405 406/406 407/407
f 408/408 405/405 407/407
f 409/409 410/410 411/411
f 412/412 409/409 411/411
f 413/413 414/414 415/415
f 416/416 413/413 415/415
f 417/417 418/418 419/419
f 420/420 417/417 419/419
f 421/421 422/422 423/423
f 424/424 421/421 423/423
f 425/425 426/426 427/427
f 428/428 425/425 427/427
f 429/429 430/430 431/431
f 432/432 429/429 431/431
f 433/433 434/434 435/435
f 436/436 433/433 435/435
f 437/437 438/438 439/439
f 440/440 437/437 439/439
f 441/441 442/442 443/443
f 444/444 441/441 443/443
f 445/445 446/446 447/447
f 448/448 445/445 447/447
f 449/449 450/450 451/451
f 452/452 449/449 451/451
f 453/453 454/454 455/455
f 456/456 453/453 455/455
f 457/457 458/458 459/459
f 460/460 457/457 459/459
f 461/461 462/462 463/463
f 464/464 461/461 463/463
f 465/465 466/466 467/467
f 468/468 465/465 467/467
f 469/469 470/470 471/471
f 472/472 469/469 471/471
f 473/473 474/474 475/475
f 476/476 473/473 475/475
f 477/477 478/478 479/479
f 480/480 477/477 479/479
f 481/481 482/482 483/483
f 484/484 481/481 483/483
f 485/485 486/486 487/487
f 488/488 485/485 487/487
f 489/489 490/490 491/491
f 492/492 489/489 491/491
f 493/493 494/494 495/495
f 496/496 493/493 495/495
f 497/497 498/498 499/499
f 500/500 497/497 499/499
f 501/501 502/502 503/503
f 504/504 501/501 503/503
f 505/505 506/506 507/507
f 508/508 505/505 507/507
f 509/509 510/510 511/511
f 512/512 513/513 514/514
f 515/515 512/512 514/514
f 516/516 517/517 518/518
f 519/519 520/520 521/521
f 522/522 519/519 521/521
f 523/523 524/524 525/525
f 526/526 527/527 528/528
f 529/529 526/526 528/528
f 530/530 531/531 532/532
f 533/533 534/534 535/535
f 536/536 533/533 535/535
f 537/537 538/538 539/539
f 540/540 541/541 542/542
f 543/543 540/540 542/542
f 544/544 545/545 546/546
f 547/547 548/548 549/549
f 550/550 547/547 549/549
f 551/551 552/552 553/553
f 554/554 555/555 556/556
f 557/557 554/554 556/556
f 558/558 559/559 560/560
f 561/561 562/562 563/563
f 564/564 561/561 563/563
f 565/565 566/566 567/567
f 568/568 565/565 567/567
f 569/569 570/570 571/571
f 572/572 569/569 571/571
f 573/573 574/574 575/575
f 576/576 573/573 575/575
f 577/577 578/578 579/579
f 580/580 577/577 579/579
f 581/581 582/582 583/583
f 584/584 581/581 583/583
f 585/585 586/586 587/587
f 588/588 585/585 587/587
f 589/589 590/590 591/591
f 592/592 589/589 591/591
f 593/593 594/594 595/595
f 596/596 593/593 595/595
f 597/597 598/598 599/599
f 600/600 597/597 599/599
f 601/601 602/602 603/603
f 604/604 601/601 603/603
f 605/605 606/606 607/607
f 608/608 605/605 607/607
f 609/609 610/610 611/611
f 612/612 609/609 611/611
f 613/613 614/614 615/615
f 616/616 613/613 615/615
f 617/617 618/618 619/619
f 620/620 617/617 619/619
f 621/621 622/622 623/623
f 624/624 621/621 623/623
f 625/625 626/626 627/627
f 628/628 625/625 627/627
f 629/629 630/630 631/631
f 632/632 629/629 631/631
