# SCP CB Converted Room Mesh

v -96.0 544.0 992.0
v 96.0 544.0 992.0
v 96.0 319.99993896484375 992.0
v -96.0 319.99993896484375 992.0
v 96.0 319.99993896484375 992.0
v 96.0 319.99993896484375 1024.0
v -96.0 319.99993896484375 1024.0
v -96.0 319.99993896484375 992.0
v -96.0 544.0 992.0
v -96.0 0.0 992.0
v -320.0 0.0 992.0
v -320.0 544.0 992.0
v -96.0 0.0 992.0
v -96.0 544.0 992.0
v -96.0 544.0 1024.0
v -96.0 0.0 1024.0
v 320.0 544.0 992.0
v 320.0 0.0 992.0
v 96.00001525878906 0.0 992.0
v 96.00001525878906 544.0 992.0
v 96.00001525878906 0.0 1024.0
v 96.00001525878906 544.0 1024.0
v 96.00001525878906 544.0 992.0
v 96.00001525878906 0.0 992.0
v 416.0 547.272705078125 -512.0
v 416.0 -1.090911865234375 -512.0
v 320.0 -1.090911865234375 -512.0
v 320.0 547.272705078125 -512.0
v 416.0 -1.090911865234375 -128.0
v 416.0 547.272705078125 -128.0
v 320.0 547.272705078125 -128.0
v 320.0 -1.090911865234375 -128.0
v 320.0 547.272705078125 -128.0
v 320.0 547.272705078125 -512.0
v 320.0 -1.090911865234375 -512.0
v 320.0 -1.090911865234375 -128.0
v 416.0 -1.090911865234375 -768.0
v 416.0 547.272705078125 -768.0
v 320.0 547.272705078125 -768.0
v 320.0 -1.090911865234375 -768.0
v 320.0 547.272705078125 -768.0
v 320.0 547.272705078125 -1024.0
v 320.0 -1.090911865234375 -1024.0
v 320.0 -1.090911865234375 -768.0
v -416.0 -1.090911865234375 -512.0
v -416.0 547.272705078125 -512.0
v -320.0 547.272705078125 -512.0
v -320.0 -1.090911865234375 -512.0
v -416.0 547.272705078125 -128.0
v -416.0 -1.090911865234375 -128.0
v -320.0 -1.090911865234375 -128.0
v -320.0 547.272705078125 -128.0
v -320.0 547.272705078125 -512.0
v -320.0 547.272705078125 -128.0
v -320.0 -1.090911865234375 -128.0
v -320.0 -1.090911865234375 -512.0
v -416.0 547.272705078125 -768.0
v -416.0 -1.090911865234375 -768.0
v -320.0 -1.090911865234375 -768.0
v -320.0 547.272705078125 -768.0
v -320.0 547.272705078125 -1024.0
v -320.0 547.272705078125 -768.0
v -320.0 -1.090911865234375 -768.0
v -320.0 -1.090911865234375 -1024.0
v 416.0 547.272705078125 768.0
v 416.0 -1.090911865234375 768.0
v 320.0 -1.090911865234375 768.0
v 320.0 547.272705078125 768.0
v 320.0 547.272705078125 1024.0
v 320.0 547.272705078125 768.0
v 320.0 -1.090911865234375 768.0
v 320.0 -1.090911865234375 1024.0
v -416.0 -1.090911865234375 768.0
v -416.0 547.272705078125 768.0
v -320.0 547.272705078125 768.0
v -320.0 -1.090911865234375 768.0
v -320.0 547.272705078125 768.0
v -320.0 547.272705078125 1024.0
v -320.0 -1.090911865234375 1024.0
v -320.0 -1.090911865234375 768.0
v -416.0 -1.090911865234375 128.0
v -416.0 547.272705078125 128.0
v -320.0 547.272705078125 128.0
v -320.0 -1.090911865234375 128.0
v -416.0 547.272705078125 512.0
v -416.0 -1.090911865234375 512.0
v -320.0 -1.090911865234375 512.0
v -320.0 547.272705078125 512.0
v -320.0 547.272705078125 128.0
v -320.0 547.272705078125 512.0
v -320.0 -1.090911865234375 512.0
v -320.0 -1.090911865234375 128.0
v 313.34588623046875 596.2386474609375 768.0
v 313.34588623046875 596.2386474609375 -768.0
v 391.1402587890625 -20.0 -768.0
v 391.1402587890625 -20.0 768.0
v -313.34588623046875 596.2386474609375 -768.0
v -313.34588623046875 596.2386474609375 768.0
v -391.1402587890625 -20.0 768.0
v -391.1402587890625 -20.0 -768.0
v 96.0 320.0 -992.0
v -96.0 320.0 -992.0
v -96.0 320.0 -1024.0
v 96.0 320.0 -1024.0
v 96.0 320.0 -992.0
v 96.0 544.0 -992.0
v -96.0 544.0 -992.0
v -96.0 320.0 -992.0
v -96.0 0.0 -1024.0
v -96.0 544.0 -1024.0
v -96.0 544.0 -992.0
v -96.0 0.0 -992.0
v -96.0 0.0 -992.0
v -96.0 544.0 -992.0
v -320.0 544.0 -992.0
v -320.0 0.0 -992.0
v 96.0 544.0 -992.0
v 96.0 544.0 -1024.0
v 96.0 0.0 -1024.0
v 96.0 0.0 -992.0
v 320.0 0.0 -992.0
v 320.0 544.0 -992.0
v 96.0 544.0 -992.0
v 96.0 0.0 -992.0
v 416.0 -1.090911865234375 512.0
v 416.0 547.272705078125 512.0
v 320.0 547.272705078125 512.0
v 320.0 -1.090911865234375 512.0
v 416.0 547.272705078125 128.0
v 416.0 -1.090911865234375 128.0
v 320.0 -1.090911865234375 128.0
v 320.0 547.272705078125 128.0
v 320.0 547.272705078125 512.0
v 320.0 547.272705078125 128.0
v 320.0 -1.090911865234375 128.0
v 320.0 -1.090911865234375 512.0
v 320.0 0.0 -1024.0
v 320.0 -20.0 -1024.0
v -320.0 -20.0 -1024.0
v -320.0 0.0 -1024.0
v 320.0 -20.0 1024.0
v 320.0 0.0 1024.0
v -320.0 0.0 1024.0
v -320.0 -20.0 1024.0
v -320.0 0.0 1024.0
v 320.0 0.0 1024.0
v 320.0 0.0 -1024.0
v -320.0 0.0 -1024.0
v -320.0 0.0 1024.0
v -320.0 0.0 -1024.0
v -320.0 -20.0 -1024.0
v -320.0 -20.0 1024.0
v 320.0 0.0 -1024.0
v 320.0 0.0 1024.0
v 320.0 -20.0 1024.0
v 320.0 -20.0 -1024.0
v 320.0 544.0 1024.0
v -320.0 544.0 1024.0
v -320.0 544.0 -1024.0
v 320.0 544.0 -1024.0
v -415.9999694824219 0.0 768.0
v -319.9999694824219 0.0 768.0
v -320.0000305175781 0.0 -768.0
v -416.0000305175781 0.0 -768.0
v 320.0 0.0 768.0
v 416.0 0.0 768.0
v 415.99993896484375 0.0 -768.0
v 319.99993896484375 0.0 -768.0
vt -0.1875 2.0078125
vt 0.1875 2.0078125
vt 0.1875 1.5703123807907104
vt -0.1875 1.5703123807907104
vt 0.1875 2.8828125
vt 0.1875 2.9453125
vt -0.1875 2.9453125
vt -0.1875 2.8828125
vt -0.1875 2.0078125
vt -0.1875 0.9453125
vt -0.625 0.9453125
vt -0.625 2.0078125
vt 1.9375 0.9453125
vt 1.9375 2.0078125
vt 2.0 2.0078125
vt 2.0 0.9453125
vt 0.625 2.0078125
vt 0.625 0.9453125
vt 0.1875000298023224 0.9453125
vt 0.1875000298023224 2.0078125
vt 2.0 0.9453125
vt 2.0 2.0078125
vt 1.9375 2.0078125
vt 1.9375 0.9453125
vt 0.8125 2.014204502105713
vt 0.8125 0.9431818127632141
vt 0.625 0.9431818127632141
vt 0.625 2.014204502105713
vt 0.8125 0.9431818127632141
vt 0.8125 2.014204502105713
vt 0.625 2.014204502105713
vt 0.625 0.9431818127632141
vt -0.25 2.014204502105713
vt -1.0 2.014204502105713
vt -1.0 0.9431818127632141
vt -0.25 0.9431818127632141
vt 0.8125 0.9431818127632141
vt 0.8125 2.014204502105713
vt 0.625 2.014204502105713
vt 0.625 0.9431818127632141
vt -1.5 2.014204502105713
vt -2.0 2.014204502105713
vt -2.0 0.9431818127632141
vt -1.5 0.9431818127632141
vt -0.8125 0.9431818127632141
vt -0.8125 2.014204502105713
vt -0.625 2.014204502105713
vt -0.625 0.9431818127632141
vt -0.8125 2.014204502105713
vt -0.8125 0.9431818127632141
vt -0.625 0.9431818127632141
vt -0.625 2.014204502105713
vt -1.0 2.014204502105713
vt -0.25 2.014204502105713
vt -0.25 0.9431818127632141
vt -1.0 0.9431818127632141
vt -0.8125 2.014204502105713
vt -0.8125 0.9431818127632141
vt -0.625 0.9431818127632141
vt -0.625 2.014204502105713
vt -2.0 2.014204502105713
vt -1.5 2.014204502105713
vt -1.5 0.9431818127632141
vt -2.0 0.9431818127632141
vt 0.8125 2.014204502105713
vt 0.8125 0.9431818127632141
vt 0.625 0.9431818127632141
vt 0.625 2.014204502105713
vt 2.0 2.014204502105713
vt 1.5 2.014204502105713
vt 1.5 0.9431818127632141
vt 2.0 0.9431818127632141
vt -0.8125 0.9431818127632141
vt -0.8125 2.014204502105713
vt -0.625 2.014204502105713
vt -0.625 0.9431818127632141
vt 1.5 2.014204502105713
vt 2.0 2.014204502105713
vt 2.0 0.9431818127632141
vt 1.5 0.9431818127632141
vt -0.8125 0.9431818127632141
vt -0.8125 2.014204502105713
vt -0.625 2.014204502105713
vt -0.625 0.9431818127632141
vt -0.8125 2.014204502105713
vt -0.8125 0.9431818127632141
vt -0.625 0.9431818127632141
vt -0.625 2.014204502105713
vt 0.25 2.014204502105713
vt 1.0 2.014204502105713
vt 1.0 0.9431818127632141
vt 0.25 0.9431818127632141
vt 1.5 2.1098411083221436
vt -1.5 2.1098411083221436
vt -1.5 0.90625
vt 1.5 0.90625
vt -1.5 2.1098411083221436
vt 1.5 2.1098411083221436
vt 1.5 0.90625
vt -1.5 0.90625
vt 0.1875 -0.9921875
vt -0.1875 -0.9921875
vt -0.1875 -1.0546875
vt 0.1875 -1.0546875
vt 0.1875 1.5703125
vt 0.1875 2.0078125
vt -0.1875 2.0078125
vt -0.1875 1.5703125
vt -2.0 0.9453125
vt -2.0 2.0078125
vt -1.9375 2.0078125
vt -1.9375 0.9453125
vt -0.1875 0.9453125
vt -0.1875 2.0078125
vt -0.625 2.0078125
vt -0.625 0.9453125
vt -1.9375 2.0078125
vt -2.0 2.0078125
vt -2.0 0.9453125
vt -1.9375 0.9453125
vt 0.625 0.9453125
vt 0.625 2.0078125
vt 0.1875 2.0078125
vt 0.1875 0.9453125
vt 2.25 0.9431818127632141
vt 2.25 2.014204502105713
vt 2.0625 2.014204502105713
vt 2.0625 0.9431818127632141
vt 2.25 2.014204502105713
vt 2.25 0.9431818127632141
vt 2.0625 0.9431818127632141
vt 2.0625 2.014204502105713
vt 2.25 2.014204502105713
vt 1.5 2.014204502105713
vt 1.5 0.9431818127632141
vt 2.25 0.9431818127632141
vt 0.625 1.0078125
vt 0.625 0.96875
vt -0.625 0.96875
vt -0.625 1.0078125
vt 0.625 0.96875
vt 0.625 1.0078125
vt -0.625 1.0078125
vt -0.625 0.96875
vt -0.625 3.0
vt 0.625 3.0
vt 0.625 -1.0
vt -0.625 -1.0
vt 2.0 1.0078125
vt -2.0 1.0078125
vt -2.0 0.96875
vt 2.0 0.96875
vt -2.0 1.0078125
vt 2.0 1.0078125
vt 2.0 0.96875
vt -2.0 0.96875
vt 0.625 3.0
vt -0.625 3.0
vt -0.625 -1.0
vt 0.625 -1.0
vt 3.0 5.84765625
vt 3.0 5.47265625
vt -3.0 5.47265625
vt -3.0 5.84765625
vt 3.000000238418579 -0.265625
vt 3.000000238418579 -0.640625
vt -2.999999761581421 -0.6406247615814209
vt -2.999999761581421 -0.2656247615814209

g RoomMesh_Geometry
f 1/1 2/2 3/3
f 4/4 1/1 3/3
f 5/5 6/6 7/7
f 8/8 5/5 7/7
f 9/9 10/10 11/11
f 12/12 9/9 11/11
f 13/13 14/14 15/15
f 16/16 13/13 15/15
f 17/17 18/18 19/19
f 20/20 17/17 19/19
f 21/21 22/22 23/23
f 24/24 21/21 23/23
f 25/25 26/26 27/27
f 28/28 25/25 27/27
f 29/29 30/30 31/31
f 32/32 29/29 31/31
f 33/33 34/34 35/35
f 36/36 33/33 35/35
f 37/37 38/38 39/39
f 40/40 37/37 39/39
f 41/41 42/42 43/43
f 44/44 41/41 43/43
f 45/45 46/46 47/47
f 48/48 45/45 47/47
f 49/49 50/50 51/51
f 52/52 49/49 51/51
f 53/53 54/54 55/55
f 56/56 53/53 55/55
f 57/57 58/58 59/59
f 60/60 57/57 59/59
f 61/61 62/62 63/63
f 64/64 61/61 63/63
f 65/65 66/66 67/67
f 68/68 65/65 67/67
f 69/69 70/70 71/71
f 72/72 69/69 71/71
f 73/73 74/74 75/75
f 76/76 73/73 75/75
f 77/77 78/78 79/79
f 80/80 77/77 79/79
f 81/81 82/82 83/83
f 84/84 81/81 83/83
f 85/85 86/86 87/87
f 88/88 85/85 87/87
f 89/89 90/90 91/91
f 92/92 89/89 91/91
f 93/93 94/94 95/95
f 96/96 93/93 95/95
f 97/97 98/98 99/99
f 100/100 97/97 99/99
f 101/101 102/102 103/103
f 104/104 101/101 103/103
f 105/105 106/106 107/107
f 108/108 105/105 107/107
f 109/109 110/110 111/111
f 112/112 109/109 111/111
f 113/113 114/114 115/115
f 116/116 113/113 115/115
f 117/117 118/118 119/119
f 120/120 117/117 119/119
f 121/121 122/122 123/123
f 124/124 121/121 123/123
f 125/125 126/126 127/127
f 128/128 125/125 127/127
f 129/129 130/130 131/131
f 132/132 129/129 131/131
f 133/133 134/134 135/135
f 136/136 133/133 135/135
f 137/137 138/138 139/139
f 140/140 137/137 139/139
f 141/141 142/142 143/143
f 144/144 141/141 143/143
f 145/145 146/146 147/147
f 148/148 145/145 147/147
f 149/149 150/150 151/151
f 152/152 149/149 151/151
f 153/153 154/154 155/155
f 156/156 153/153 155/155
f 157/157 158/158 159/159
f 160/160 157/157 159/159
f 161/161 162/162 163/163
f 164/164 161/161 163/163
f 165/165 166/166 167/167
f 168/168 165/165 167/167
