# SCP CB Converted Room Mesh

v -1024.0 0.0 -576.0000610351562
v -1024.0 -32.0 -576.0000610351562
v -1024.0 -32.0 239.99990844726562
v -1024.0 0.0 239.99990844726562
v 1024.000244140625 -32.0 -576.0003051757812
v 1024.000244140625 0.0 -576.0003051757812
v 1024.000244140625 0.0 239.99966430664062
v 1024.000244140625 -32.0 239.99966430664062
v 1024.000244140625 0.0 239.99966430664062
v 1024.000244140625 0.0 -576.0003051757812
v -1024.0 0.0 -576.0000610351562
v -1024.0 0.0 239.99990844726562
v 1024.000244140625 0.0 239.99966430664062
v -1024.0 0.0 239.99990844726562
v -1024.0 -32.0 239.99990844726562
v 1024.000244140625 -32.0 239.99966430664062
v -1024.0 0.0 -576.0000610351562
v 1024.000244140625 0.0 -576.0003051757812
v 1024.000244140625 -32.0 -576.0003051757812
v -1024.0 -32.0 -576.0000610351562
v -335.9999694824219 0.0 -1024.0001220703125
v -335.9999694824219 -32.0 -1024.0001220703125
v -335.9999694824219 -32.0 -576.0001220703125
v -335.9999694824219 0.0 -576.0001220703125
v 336.0 -32.0 -1024.0001220703125
v 336.0 0.0 -1024.0001220703125
v 336.00006103515625 0.0 -576.0001220703125
v 336.00006103515625 -32.0 -576.0001220703125
v 336.00006103515625 0.0 -576.0001220703125
v 336.0 0.0 -1024.0001220703125
v -335.9999694824219 0.0 -1024.0001220703125
v -335.9999694824219 0.0 -576.0001220703125
v 336.00006103515625 0.0 -576.0001220703125
v -335.9999694824219 0.0 -576.0001220703125
v -335.9999694824219 -32.0 -576.0001220703125
v 336.00006103515625 -32.0 -576.0001220703125
v -335.9999694824219 0.0 -1024.0001220703125
v 336.0 0.0 -1024.0001220703125
v 336.0 -32.0 -1024.0001220703125
v -335.9999694824219 -32.0 -1024.0001220703125
v -1024.0 384.0 96.00003051757812
v -1024.0 384.0 -96.00003051757812
v -1024.0 320.0 -96.00003051757812
v -1024.0 320.0 96.00003051757812
v -1024.0 384.0 -96.00003051757812
v -1024.0 384.0 96.00003051757812
v -992.0 384.0 96.00003051757812
v -992.0 384.0 -96.00003051757812
v -992.0 320.0 96.00003051757812
v -992.0 384.0 96.00003051757812
v -1024.0 384.0 96.00003051757812
v -1024.0 320.0 96.00003051757812
v -1024.0 320.0 -96.00003051757812
v -1024.0 384.0 -96.00003051757812
v -992.0 384.0 -96.00003051757812
v -992.0 320.0 -96.00003051757812
v -992.0 320.0 -96.00003051757812
v -992.0 320.0 96.00003051757812
v -1024.0 320.0 96.00003051757812
v -1024.0 320.0 -96.00003051757812
v -992.0 320.0 -96.00003051757812
v -992.0 384.0 -96.00003051757812
v -992.0 384.0 96.00003051757812
v -992.0 320.0 96.00003051757812
v -992.0 0.0 95.99978637695312
v -992.0 0.0 255.99984741210938
v -1024.0 0.0 255.99984741210938
v -1024.0 0.0 95.99978637695312
v -992.0 384.0 255.99984741210938
v -1024.0 384.0 255.99984741210938
v -1024.0 0.0 255.99984741210938
v -992.0 0.0 255.99984741210938
v -992.0 384.0 255.99984741210938
v -992.0 384.0 95.99978637695312
v -1024.0 384.0 95.99978637695312
v -1024.0 384.0 255.99984741210938
v -1024.0 0.0 95.99978637695312
v -1024.0 384.0 95.99978637695312
v -992.0 384.0 95.99978637695312
v -992.0 0.0 95.99978637695312
v -992.0 0.0 95.99978637695312
v -992.0 384.0 95.99978637695312
v -992.0 384.0 255.99984741210938
v -992.0 0.0 255.99984741210938
v -992.0 0.0 -256.0000305175781
v -992.0 0.0 -95.99996948242188
v -1024.0 0.0 -95.99996948242188
v -1024.0 0.0 -256.0000305175781
v -992.0 384.0 -256.0000305175781
v -992.0 0.0 -256.0000305175781
v -1024.0 0.0 -256.0000305175781
v -1024.0 384.0 -256.0000305175781
v -1024.0 384.0 -256.0000305175781
v -1024.0 384.0 -95.99996948242188
v -992.0 384.0 -95.99996948242188
v -992.0 384.0 -256.0000305175781
v -992.0 384.0 -95.99996948242188
v -1024.0 384.0 -95.99996948242188
v -1024.0 0.0 -95.99996948242188
v -992.0 0.0 -95.99996948242188
v -992.0 0.0 -256.0000305175781
v -992.0 384.0 -256.0000305175781
v -992.0 384.0 -95.99996948242188
v -992.0 0.0 -95.99996948242188
v 1023.9998779296875 320.0 -256.0003356933594
v 1023.9998779296875 384.0 -256.0003356933594
v 1023.9998779296875 384.0 255.99966430664062
v 1023.9998779296875 320.0 255.99966430664062
v 1023.9998779296875 384.0 255.99966430664062
v 992.0 384.0 255.99966430664062
v 992.0 320.0 255.99966430664062
v 1023.9998779296875 320.0 255.99966430664062
v 1023.9998779296875 320.0 -256.0003356933594
v 992.0 320.0 -256.0003356933594
v 992.0 384.0 -256.0003356933594
v 1023.9998779296875 384.0 -256.0003356933594
v 992.0 384.0 255.99966430664062
v 992.0 384.0 -256.0003356933594
v 992.0 320.0 -256.0003356933594
v 992.0 320.0 255.99966430664062
v 992.0 320.0 -256.0003356933594
v 1023.9998779296875 320.0 -256.0003356933594
v 1023.9998779296875 320.0 255.99966430664062
v 992.0 320.0 255.99966430664062
v 1023.9998779296875 0.0 255.99978637695312
v 992.0 0.0 255.99978637695312
v 992.0 0.0 95.99978637695312
v 1023.9998779296875 0.0 95.99978637695312
v 992.0 320.0 255.99978637695312
v 992.0 0.0 255.99978637695312
v 1023.9998779296875 0.0 255.99978637695312
v 1023.9998779296875 320.0 255.99978637695312
v 992.0 320.0 95.99978637695312
v 992.0 0.0 95.99978637695312
v 992.0 0.0 255.99978637695312
v 992.0 320.0 255.99978637695312
v 992.0 320.0 255.99978637695312
v 1023.9998779296875 320.0 255.99978637695312
v 1023.9998779296875 320.0 95.99978637695312
v 992.0 320.0 95.99978637695312
v 992.0 0.0 95.99978637695312
v 992.0 320.0 95.99978637695312
v 1023.9998779296875 320.0 95.99978637695312
v 1023.9998779296875 0.0 95.99978637695312
v 992.0 0.0 -256.0003356933594
v 1023.9998779296875 0.0 -256.0003356933594
v 1023.9998779296875 0.0 -96.00033569335938
v 992.0 0.0 -96.00033569335938
v 992.0 320.0 -256.0003356933594
v 1023.9998779296875 320.0 -256.0003356933594
v 1023.9998779296875 0.0 -256.0003356933594
v 992.0 0.0 -256.0003356933594
v 992.0 320.0 -256.0003356933594
v 992.0 0.0 -256.0003356933594
v 992.0 0.0 -96.00033569335938
v 992.0 320.0 -96.00033569335938
v 1023.9998779296875 320.0 -256.0003356933594
v 992.0 320.0 -256.0003356933594
v 992.0 320.0 -96.00033569335938
v 1023.9998779296875 320.0 -96.00033569335938
v 1023.9998779296875 0.0 -96.00033569335938
v 1023.9998779296875 320.0 -96.00033569335938
v 992.0 320.0 -96.00033569335938
v 992.0 0.0 -96.00033569335938
v -992.0 0.0 -256.0000915527344
v -992.0 0.0 -224.00009155273438
v -992.0 384.0 -224.00009155273438
v -992.0 384.0 -256.0000915527344
v -640.0 0.0 -224.00009155273438
v -992.0 0.0 -224.00009155273438
v -992.0 0.0 -256.0000915527344
v -640.0 0.0 -256.0000915527344
v -992.0 384.0 -224.00009155273438
v -992.0 0.0 -224.00009155273438
v -640.0 0.0 -224.00009155273438
v -640.0 384.0 -224.00009155273438
v -640.0 0.0 -256.0000915527344
v -640.0 384.0 -256.0000915527344
v -640.0 384.0 -224.00009155273438
v -640.0 0.0 -224.00009155273438
v 992.0 48.0 223.99966430664062
v -992.0 48.0 223.99996948242188
v -992.0 336.0 223.99996948242188
v 992.0 336.0 223.99966430664062
v 639.9998779296875 0.0 -256.0002746582031
v 639.9998779296875 0.0 -224.00027465820312
v 639.9998779296875 384.0 -224.00027465820312
v 639.9998779296875 384.0 -256.0002746582031
v 991.9998779296875 0.0 -224.00027465820312
v 639.9998779296875 0.0 -224.00027465820312
v 639.9998779296875 0.0 -256.0002746582031
v 991.9998779296875 0.0 -256.0002746582031
v 639.9998779296875 384.0 -224.00027465820312
v 639.9998779296875 0.0 -224.00027465820312
v 991.9998779296875 0.0 -224.00027465820312
v 991.9998779296875 384.0 -224.00027465820312
v 991.9998779296875 0.0 -256.0002746582031
v 991.9998779296875 384.0 -256.0002746582031
v 991.9998779296875 384.0 -224.00027465820312
v 991.9998779296875 0.0 -224.00027465820312
v 255.99996948242188 0.0 -992.000244140625
v 255.99996948242188 0.0 -419.25445556640625
v 255.99996948242188 384.0 -419.25445556640625
v 255.99996948242188 384.0 -992.000244140625
v 640.0 0.0 -224.000244140625
v 255.99996948242188 0.0 -419.25445556640625
v 255.99996948242188 0.0 -992.000244140625
v 640.0 0.0 -250.0341796875
v 255.99996948242188 384.0 -419.25445556640625
v 255.99996948242188 0.0 -419.25445556640625
v 640.0 0.0 -224.000244140625
v 640.0 384.0 -224.000244140625
v 640.0 0.0 -250.0341796875
v 640.0 384.0 -250.0341796875
v 640.0 384.0 -224.000244140625
v 640.0 0.0 -224.000244140625
v -640.0 0.0 -250.03396606445312
v -640.0 0.0 -224.00009155273438
v -640.0 384.0 -224.00009155273438
v -640.0 384.0 -250.03396606445312
v -255.99996948242188 0.0 -419.2543640136719
v -640.0 0.0 -224.00009155273438
v -640.0 0.0 -250.03396606445312
v -255.99996948242188 0.0 -992.0001220703125
v -640.0 384.0 -224.00009155273438
v -640.0 0.0 -224.00009155273438
v -255.99996948242188 0.0 -419.2543640136719
v -255.99996948242188 384.0 -419.2543640136719
v -255.99996948242188 0.0 -992.0001220703125
v -255.99996948242188 384.0 -992.0001220703125
v -255.99996948242188 384.0 -419.2543640136719
v -255.99996948242188 0.0 -419.2543640136719
v -320.0001525878906 320.0 -1024.0001220703125
v -320.0001525878906 384.0 -1024.0001220703125
v 319.9998474121094 384.0 -1024.0001220703125
v 319.9998474121094 320.0 -1024.0001220703125
v 319.9998474121094 384.0 -1024.0001220703125
v 319.9998474121094 384.0 -992.0001220703125
v 319.9998474121094 320.0 -992.0001220703125
v 319.9998474121094 320.0 -1024.0001220703125
v -320.0001525878906 320.0 -1024.0001220703125
v -320.0001525878906 320.0 -992.0001220703125
v -320.0001525878906 384.0 -992.0001220703125
v -320.0001525878906 384.0 -1024.0001220703125
v 319.9998474121094 384.0 -992.0001220703125
v -320.0001525878906 384.0 -992.0001220703125
v -320.0001525878906 320.0 -992.0001220703125
v 319.9998474121094 320.0 -992.0001220703125
v -320.0001525878906 320.0 -992.0001220703125
v -320.0001525878906 320.0 -1024.0001220703125
v 319.9998474121094 320.0 -1024.0001220703125
v 319.9998474121094 320.0 -992.0001220703125
v 319.9999084472656 0.0 -1024.000244140625
v 319.9999084472656 0.0 -992.000244140625
v 95.99990844726562 0.0 -992.000244140625
v 95.99990844726562 0.0 -1024.000244140625
v 319.9999084472656 320.0 -992.000244140625
v 319.9999084472656 0.0 -992.000244140625
v 319.9999084472656 0.0 -1024.000244140625
v 319.9999084472656 320.0 -1024.000244140625
v 95.99990844726562 320.0 -992.000244140625
v 95.99990844726562 0.0 -992.000244140625
v 319.9999084472656 0.0 -992.000244140625
v 319.9999084472656 320.0 -992.000244140625
v 319.9999084472656 320.0 -992.000244140625
v 319.9999084472656 320.0 -1024.000244140625
v 95.99990844726562 320.0 -1024.000244140625
v 95.99990844726562 320.0 -992.000244140625
v 95.99990844726562 0.0 -992.000244140625
v 95.99990844726562 320.0 -992.000244140625
v 95.99990844726562 320.0 -1024.000244140625
v 95.99990844726562 0.0 -1024.000244140625
v -320.0000305175781 0.0 -992.0001220703125
v -320.0000305175781 0.0 -1024.0001220703125
v -95.99996948242188 0.0 -1024.0001220703125
v -95.99996948242188 0.0 -992.0001220703125
v -320.0000305175781 320.0 -992.0001220703125
v -320.0000305175781 320.0 -1024.0001220703125
v -320.0000305175781 0.0 -1024.0001220703125
v -320.0000305175781 0.0 -992.0001220703125
v -320.0000305175781 320.0 -992.0001220703125
v -320.0000305175781 0.0 -992.0001220703125
v -95.99996948242188 0.0 -992.0001220703125
v -95.99996948242188 320.0 -992.0001220703125
v -320.0000305175781 320.0 -1024.0001220703125
v -320.0000305175781 320.0 -992.0001220703125
v -95.99996948242188 320.0 -992.0001220703125
v -95.99996948242188 320.0 -1024.0001220703125
v -95.99996948242188 0.0 -1024.0001220703125
v -95.99996948242188 320.0 -1024.0001220703125
v -95.99996948242188 320.0 -992.0001220703125
v -95.99996948242188 0.0 -992.0001220703125
v -1024.0 384.0000305175781 239.99990844726562
v -1024.0 416.0000305175781 239.99990844726562
v -1024.0 415.9999694824219 -576.0000610351562
v -1024.0 383.9999694824219 -576.0000610351562
v 1024.0 416.0000305175781 239.99966430664062
v 1024.0 384.0000305175781 239.99966430664062
v 1024.0 383.9999694824219 -576.0003051757812
v 1024.0 415.9999694824219 -576.0003051757812
v 1024.0 383.9999694824219 -576.0003051757812
v 1024.0 384.0000305175781 239.99966430664062
v -1024.0 384.0000305175781 239.99990844726562
v -1024.0 383.9999694824219 -576.0000610351562
v 1024.0 383.9999694824219 -576.0003051757812
v -1024.0 383.9999694824219 -576.0000610351562
v -1024.0 415.9999694824219 -576.0000610351562
v 1024.0 415.9999694824219 -576.0003051757812
v -1024.0 384.0000305175781 239.99990844726562
v 1024.0 384.0000305175781 239.99966430664062
v 1024.0 416.0000305175781 239.99966430664062
v -1024.0 416.0000305175781 239.99990844726562
v -351.9999694824219 384.0000305175781 -576.0001220703125
v -351.9999694824219 416.0000305175781 -576.0001220703125
v -351.9999694824219 415.9999694824219 -992.0001220703125
v -351.9999694824219 383.9999694824219 -992.0001220703125
v 336.0000305175781 416.0000305175781 -576.0001220703125
v 336.0000305175781 384.0000305175781 -576.0001220703125
v 335.9999694824219 383.9999694824219 -992.0001220703125
v 335.9999694824219 415.9999694824219 -992.0001220703125
v 335.9999694824219 383.9999694824219 -992.0001220703125
v 336.0000305175781 384.0000305175781 -576.0001220703125
v -351.9999694824219 384.0000305175781 -576.0001220703125
v -351.9999694824219 383.9999694824219 -992.0001220703125
v 335.9999694824219 383.9999694824219 -992.0001220703125
v -351.9999694824219 383.9999694824219 -992.0001220703125
v -351.9999694824219 415.9999694824219 -992.0001220703125
v 335.9999694824219 415.9999694824219 -992.0001220703125
v -351.9999694824219 384.0000305175781 -576.0001220703125
v 336.0000305175781 384.0000305175781 -576.0001220703125
v 336.0000305175781 416.0000305175781 -576.0001220703125
v -351.9999694824219 416.0000305175781 -576.0001220703125
v 992.0001220703125 80.0 223.99966430664062
v 992.0001220703125 48.0 191.99966430664062
v -991.9998779296875 48.0 191.99990844726562
v -991.9998779296875 80.0 223.99990844726562
v -991.9998779296875 48.0 191.99990844726562
v 992.0001220703125 48.0 191.99966430664062
v 992.0001220703125 0.0 191.99966430664062
v -991.9998779296875 0.0 191.99990844726562
v -991.9998779296875 304.0 223.99978637695312
v -991.9998779296875 336.0 191.99978637695312
v 992.0001220703125 336.0 191.99978637695312
v 992.0001220703125 304.0 223.99978637695312
v 992.0001220703125 336.0 191.99978637695312
v -991.9998779296875 336.0 191.99978637695312
v -991.9998779296875 384.0 191.99978637695312
v 992.0001220703125 384.0 191.99978637695312
v -784.0 336.0 191.99978637695312
v -784.0 48.0 191.99978637695312
v -816.0 48.0 223.99978637695312
v -816.0 336.0 223.99978637695312
v -704.0 48.0 191.99978637695312
v -704.0 336.0 191.99978637695312
v -672.0 336.0 223.99978637695312
v -672.0 48.0 223.99978637695312
v -784.0 336.0 191.99978637695312
v -704.0 336.0 191.99978637695312
v -704.0 48.0 191.99978637695312
v -784.0 48.0 191.99978637695312
v -47.999969482421875 336.0 191.99978637695312
v -47.999969482421875 48.0 191.99978637695312
v -79.99996948242188 48.0 223.99978637695312
v -79.99996948242188 336.0 223.99978637695312
v 32.000030517578125 48.0 191.99978637695312
v 32.000030517578125 336.0 191.99978637695312
v 64.00003051757812 336.0 223.99978637695312
v 64.00003051757812 48.0 223.99978637695312
v -47.999969482421875 336.0 191.99978637695312
v 32.000030517578125 336.0 191.99978637695312
v 32.000030517578125 48.0 191.99978637695312
v -47.999969482421875 48.0 191.99978637695312
v 704.0 336.0 191.99972534179688
v 704.0 48.0 191.99972534179688
v 672.0 48.0 223.99972534179688
v 672.0 336.0 223.99972534179688
v 784.0 48.0 191.99972534179688
v 784.0 336.0 191.99972534179688
v 816.0 336.0 223.99972534179688
v 816.0 48.0 223.99972534179688
v 704.0 336.0 191.99972534179688
v 784.0 336.0 191.99972534179688
v 784.0 48.0 191.99972534179688
v 704.0 48.0 191.99972534179688
v 236.0 380.0 11.999786376953125
v 236.0 380.0 -12.000213623046875
v 276.0 380.0 -12.000213623046875
v 276.0 380.0 11.999786376953125
v -147.99996948242188 380.0 11.999786376953125
v -147.99996948242188 380.0 -12.000213623046875
v -107.99996948242188 380.0 -12.000213623046875
v -107.99996948242188 380.0 11.999786376953125
v 12.0 380.0 -364.00018310546875
v -12.0 380.0 -364.00018310546875
v -12.0 380.0 -404.00018310546875
v 12.0 380.0 -404.00018310546875
v 276.0 383.82421875 11.999786376953125
v 276.0 380.0 11.999786376953125
v 276.0 380.0 -12.000213623046875
v 276.0 383.82421875 -12.000213623046875
v 236.0 380.0 11.999786376953125
v 236.0 383.82421875 11.999786376953125
v 236.0 383.82421875 -12.000213623046875
v 236.0 380.0 -12.000213623046875
v 236.0 383.82421875 -12.000213623046875
v 236.0 383.82421875 11.999786376953125
v 276.0 383.82421875 11.999786376953125
v 276.0 383.82421875 -12.000213623046875
v 236.0 383.82421875 -12.000213623046875
v 276.0 383.82421875 -12.000213623046875
v 276.0 380.0 -12.000213623046875
v 236.0 380.0 -12.000213623046875
v 276.0 383.82421875 11.999786376953125
v 236.0 383.82421875 11.999786376953125
v 236.0 380.0 11.999786376953125
v 276.0 380.0 11.999786376953125
v -107.99996948242188 383.82421875 11.999786376953125
v -107.99996948242188 380.0 11.999786376953125
v -107.99996948242188 380.0 -12.000213623046875
v -107.99996948242188 383.82421875 -12.000213623046875
v -147.99996948242188 380.0 11.999786376953125
v -147.99996948242188 383.82421875 11.999786376953125
v -147.99996948242188 383.82421875 -12.000213623046875
v -147.99996948242188 380.0 -12.000213623046875
v -147.99996948242188 383.82421875 -12.000213623046875
v -147.99996948242188 383.82421875 11.999786376953125
v -107.99996948242188 383.82421875 11.999786376953125
v -107.99996948242188 383.82421875 -12.000213623046875
v -147.99996948242188 383.82421875 -12.000213623046875
v -107.99996948242188 383.82421875 -12.000213623046875
v -107.99996948242188 380.0 -12.000213623046875
v -147.99996948242188 380.0 -12.000213623046875
v -107.99996948242188 383.82421875 11.999786376953125
v -147.99996948242188 383.82421875 11.999786376953125
v -147.99996948242188 380.0 11.999786376953125
v -107.99996948242188 380.0 11.999786376953125
v 12.0 383.82421875 -404.00018310546875
v 12.0 380.0 -404.00018310546875
v -12.0 380.0 -404.00018310546875
v -12.0 383.82421875 -404.00018310546875
v 12.0 380.0 -364.00018310546875
v 12.0 383.82421875 -364.00018310546875
v -12.0 383.82421875 -364.00018310546875
v -12.0 380.0 -364.00018310546875
v -12.0 383.82421875 -364.00018310546875
v 12.0 383.82421875 -364.00018310546875
v 12.0 383.82421875 -404.00018310546875
v -12.0 383.82421875 -404.00018310546875
v -12.0 383.82421875 -364.00018310546875
v -12.0 383.82421875 -404.00018310546875
v -12.0 380.0 -404.00018310546875
v -12.0 380.0 -364.00018310546875
v 12.0 383.82421875 -404.00018310546875
v 12.0 383.82421875 -364.00018310546875
v 12.0 380.0 -364.00018310546875
v 12.0 380.0 -404.00018310546875
vt 2.905273199081421 1.0
vt 2.905273199081421 0.84375
vt -1.0791016817092896 0.84375
vt -1.0791016817092896 1.0
vt 2.9052734375 0.84375
vt 2.9052734375 1.0
vt -1.0791014432907104 1.0
vt -1.0791014432907104 0.84375
vt -1.2402342557907104 6.000000953674316
vt 2.744140625 6.000001430511475
vt 2.744140386581421 -4.0
vt -1.240234375 -4.000000476837158
vt 5.092774391174316 1.0
vt -4.907227039337158 1.0
vt -4.907227039337158 0.84375
vt 5.092774391174316 0.84375
vt -4.9072265625 1.0
vt 5.092774868011475 1.0
vt 5.092774868011475 0.84375
vt -4.9072265625 0.84375
vt 5.0927734375 1.0
vt 5.0927734375 0.84375
vt 2.9052734375 0.84375
vt 2.9052734375 1.0
vt 5.092772960662842 0.84375
vt 5.092772960662842 1.0
vt 2.905273199081421 1.0
vt 2.905273199081421 0.84375
vt 2.744140386581421 2.640625238418579
vt 4.931640148162842 2.6406251192092896
vt 4.931640625 -0.6406246423721313
vt 2.744140625 -0.6406248807907104
vt 1.733398675918579 1.0
vt -1.5478514432907104 1.0
vt -1.5478514432907104 0.84375
vt 1.733398675918579 0.84375
vt -1.5478512048721313 1.0
vt 1.7333985567092896 1.0
vt 1.7333985567092896 0.84375
vt -1.5478512048721313 0.84375
vt -0.26785752177238464 2.0714285373687744
vt 0.2678569555282593 2.0714285373687744
vt 0.2678569555282593 1.8928571939468384
vt -0.26785752177238464 1.8928571939468384
vt 0.2678569555282593 -1.857142686843872
vt -0.26785752177238464 -1.857142686843872
vt -0.26785752177238464 -1.7678570747375488
vt 0.2678569257259369 -1.7678570747375488
vt -2.767857074737549 1.8928571939468384
vt -2.767857074737549 2.0714285373687744
vt -2.857142686843872 2.0714285373687744
vt -2.857142686843872 1.8928571939468384
vt -2.857142686843872 1.8928571939468384
vt -2.857142686843872 2.0714285373687744
vt -2.767857074737549 2.0714285373687744
vt -2.767857074737549 1.8928571939468384
vt 0.2678569257259369 -1.7678570747375488
vt -0.26785752177238464 -1.7678570747375488
vt -0.26785752177238464 -1.857142686843872
vt 0.2678569555282593 -1.857142686843872
vt 0.2678569257259369 1.8928571939468384
vt 0.2678569257259369 2.0714285373687744
vt -0.26785752177238464 2.0714285373687744
vt -0.26785752177238464 1.8928571939468384
vt -0.2678568363189697 -1.7678570747375488
vt -0.7142856121063232 -1.767857313156128
vt -0.7142856121063232 -1.8571429252624512
vt -0.2678568363189697 -1.8571429252624512
vt -2.767857313156128 2.0714285373687744
vt -2.857142925262451 2.0714285373687744
vt -2.857142925262451 1.0
vt -2.767857313156128 1.0
vt -0.7142856121063232 -1.767857313156128
vt -0.2678568363189697 -1.7678570747375488
vt -0.2678568363189697 -1.8571429252624512
vt -0.7142856121063232 -1.8571429252624512
vt -2.857142925262451 1.0
vt -2.857142925262451 2.0714285373687744
vt -2.767857074737549 2.0714285373687744
vt -2.767857074737549 1.0
vt -0.2678568363189697 1.0
vt -0.2678568363189697 2.0714285373687744
vt -0.7142856121063232 2.0714285373687744
vt -0.7142856121063232 1.0
vt 0.7142856121063232 -1.767857313156128
vt 0.2678568661212921 -1.767857551574707
vt 0.2678568661212921 -1.8571431636810303
vt 0.7142856121063232 -1.8571431636810303
vt -2.767857313156128 2.0714285373687744
vt -2.767857313156128 1.0
vt -2.8571431636810303 1.0
vt -2.8571431636810303 2.0714285373687744
vt 0.7142856121063232 -1.8571431636810303
vt 0.2678568661212921 -1.8571431636810303
vt 0.2678568661212921 -1.767857551574707
vt 0.7142856121063232 -1.767857313156128
vt -2.767857551574707 2.0714285373687744
vt -2.8571431636810303 2.0714285373687744
vt -2.8571431636810303 1.0
vt -2.767857551574707 1.0
vt 0.7142856121063232 1.0
vt 0.7142856121063232 2.0714285373687744
vt 0.2678568661212921 2.0714285373687744
vt 0.2678568661212921 1.0
vt 0.7142859101295471 1.8928571939468384
vt 0.7142859101295471 2.0714285373687744
vt -0.7142855525016785 2.0714285373687744
vt -0.7142855525016785 1.8928571939468384
vt 2.857142686843872 2.0714285373687744
vt 2.767857313156128 2.0714285373687744
vt 2.767857313156128 1.8928571939468384
vt 2.857142686843872 1.8928571939468384
vt 2.857142925262451 1.8928571939468384
vt 2.767857551574707 1.8928571939468384
vt 2.767857551574707 2.0714285373687744
vt 2.857142925262451 2.0714285373687744
vt -0.7142855525016785 2.0714285373687744
vt 0.7142859101295471 2.0714285373687744
vt 0.7142859101295471 1.8928571939468384
vt -0.7142855525016785 1.8928571939468384
vt 0.7142859101295471 3.767857551574707
vt 0.7142859101295471 3.857142925262451
vt -0.7142855525016785 3.857142686843872
vt -0.7142855525016785 3.767857313156128
vt -0.7142861485481262 3.857142686843872
vt -0.7142861485481262 3.767857313156128
vt -0.2678575813770294 3.767857313156128
vt -0.2678575813770294 3.857142686843872
vt 2.767857313156128 1.8928571939468384
vt 2.767857313156128 1.0
vt 2.857142686843872 1.0
vt 2.857142686843872 1.8928571939468384
vt -0.2678575813770294 1.8928571939468384
vt -0.2678575813770294 1.0
vt -0.7142861485481262 1.0
vt -0.7142861485481262 1.8928571939468384
vt -0.7142861485481262 3.767857313156128
vt -0.7142861485481262 3.857142686843872
vt -0.2678575813770294 3.857142686843872
vt -0.2678575813770294 3.767857313156128
vt 2.767857313156128 1.0
vt 2.767857313156128 1.8928571939468384
vt 2.857142686843872 1.8928571939468384
vt 2.857142686843872 1.0
vt 0.7142858505249023 3.767857074737549
vt 0.7142857909202576 3.857142448425293
vt 0.26785722374916077 3.857142448425293
vt 0.26785725355148315 3.767857074737549
vt 2.767857074737549 1.8928571939468384
vt 2.857142448425293 1.8928571939468384
vt 2.857142448425293 1.0
vt 2.767857074737549 1.0
vt 0.7142858505249023 1.8928571939468384
vt 0.7142858505249023 1.0
vt 0.26785725355148315 1.0
vt 0.26785725355148315 1.8928571939468384
vt 0.7142857909202576 3.857142448425293
vt 0.7142858505249023 3.767857074737549
vt 0.26785725355148315 3.767857074737549
vt 0.26785722374916077 3.857142448425293
vt 2.857142448425293 1.0
vt 2.857142448425293 1.8928571939468384
vt 2.767857074737549 1.8928571939468384
vt 2.767857074737549 1.0
vt 0.714285671710968 1.0
vt 0.625 1.0
vt 0.625 2.0714285373687744
vt 0.714285671710968 2.0714285373687744
vt 0.6249998807907104 -0.7857146263122559
vt 0.625 -1.767857551574707
vt 0.714285671710968 -1.767857551574707
vt 0.7142856121063232 -0.7857146263122559
vt -2.767857551574707 2.0714285373687744
vt -2.767857551574707 1.0
vt -1.7857146263122559 1.0
vt -1.7857146263122559 2.0714285373687744
vt 0.7142856121063232 1.0
vt 0.7142856121063232 2.0714285373687744
vt 0.6249998807907104 2.0714285373687744
vt 0.6249998807907104 1.0
vt 2.767857074737549 1.1339285671710968
vt -2.767857313156128 1.1339285671710968
vt -2.767857313156128 1.9375
vt 2.767857074737549 1.9375
vt 0.714285671710968 1.0
vt 0.6249999403953552 1.0
vt 0.6249999403953552 2.0714285373687744
vt 0.714285671710968 2.0714285373687744
vt 0.6249998211860657 3.7678568363189697
vt 0.6249999403953552 2.7857139110565186
vt 0.714285671710968 2.7857139110565186
vt 0.7142855525016785 3.7678568363189697
vt 1.7857139110565186 2.0714285373687744
vt 1.7857139110565186 1.0
vt 2.7678568363189697 1.0
vt 2.7678568363189697 2.0714285373687744
vt 0.7142855525016785 1.0
vt 0.7142855525016785 2.0714285373687744
vt 0.6249998211860657 2.0714285373687744
vt 0.6249998211860657 1.0
vt 2.767857313156128 1.0
vt 1.1697942018508911 1.0
vt 1.1697942018508911 2.0714285373687744
vt 2.767857313156128 2.0714285373687744
vt 0.6249999403953552 2.7857145071029663
vt 1.1697942018508911 1.7142858505249023
vt 2.767857313156128 1.714285969734192
vt 0.6976392865180969 2.7857145071029663
vt 0.7142858505249023 2.0714285373687744
vt 0.7142858505249023 1.0
vt 1.7857145071029663 1.0
vt 1.7857145071029663 2.0714285373687744
vt 0.6976392865180969 1.0
vt 0.6976392865180969 2.0714285373687744
vt 0.6249999403953552 2.0714285373687744
vt 0.6249999403953552 1.0
vt 0.6976394057273865 1.0
vt 0.6250002384185791 1.0
vt 0.6250002384185791 2.0714285373687744
vt 0.6976394057273865 2.0714285373687744
vt 1.1697944402694702 0.28571420907974243
vt 0.6250002384185791 -0.7857145071029663
vt 0.6976394057273865 -0.7857145071029663
vt 2.767857313156128 0.285714328289032
vt -1.7857145071029663 2.0714285373687744
vt -1.7857145071029663 1.0
vt -0.7142857909202576 1.0
vt -0.7142857909202576 2.0714285373687744
vt 2.767857313156128 1.0
vt 2.767857313156128 2.0714285373687744
vt 1.1697944402694702 2.0714285373687744
vt 1.1697944402694702 1.0
vt 0.8928573131561279 1.8928571939468384
vt 0.8928573131561279 2.0714285373687744
vt -0.892857015132904 2.0714285373687744
vt -0.892857015132904 1.8928571939468384
vt 2.857142925262451 2.0714285373687744
vt 2.767857313156128 2.0714285373687744
vt 2.767857313156128 1.8928571939468384
vt 2.857142925262451 1.8928571939468384
vt 2.8571431636810303 1.8928571939468384
vt 2.767857551574707 1.8928571939468384
vt 2.767857551574707 2.0714285373687744
vt 2.8571431636810303 2.0714285373687744
vt -0.8928569555282593 2.0714285373687744
vt 0.8928573727607727 2.0714285373687744
vt 0.8928573727607727 1.8928571939468384
vt -0.8928569555282593 1.8928571939468384
vt 0.8928573727607727 3.767857551574707
vt 0.8928573131561279 3.8571431636810303
vt -0.892857015132904 3.857142925262451
vt -0.8928569555282593 3.767857313156128
vt -0.8928572535514832 3.8571431636810303
vt -0.8928572535514832 3.767857551574707
vt -0.26785722374916077 3.767857551574707
vt -0.26785722374916077 3.8571434020996094
vt 2.767857313156128 1.8928571939468384
vt 2.767857313156128 1.0
vt 2.857142925262451 1.0
vt 2.857142925262451 1.8928571939468384
vt -0.26785722374916077 1.8928571939468384
vt -0.26785722374916077 1.0
vt -0.8928572535514832 1.0
vt -0.8928572535514832 1.8928571939468384
vt -0.8928572535514832 3.767857551574707
vt -0.8928572535514832 3.8571431636810303
vt -0.26785722374916077 3.8571434020996094
vt -0.26785722374916077 3.767857551574707
vt 2.767857313156128 1.0
vt 2.767857313156128 1.8928571939468384
vt 2.8571431636810303 1.8928571939468384
vt 2.8571431636810303 1.0
vt 0.8928572535514832 3.767857313156128
vt 0.8928572535514832 3.857142925262451
vt 0.26785707473754883 3.857142925262451
vt 0.26785707473754883 3.767857074737549
vt 2.767857313156128 1.8928571939468384
vt 2.857142925262451 1.8928571939468384
vt 2.857142925262451 1.0
vt 2.767857313156128 1.0
vt 0.8928572535514832 1.8928571939468384
vt 0.8928572535514832 1.0
vt 0.26785707473754883 1.0
vt 0.26785707473754883 1.8928571939468384
vt 0.8928572535514832 3.857142925262451
vt 0.8928572535514832 3.767857313156128
vt 0.26785707473754883 3.767857074737549
vt 0.26785707473754883 3.857142925262451
vt 2.857142925262451 1.0
vt 2.857142925262451 1.8928571939468384
vt 2.767857074737549 1.8928571939468384
vt 2.767857074737549 1.0
vt -1.1574074029922485 2.8518519401550293
vt -1.1574074029922485 3.0061728954315186
vt 2.7777774333953857 3.0061726570129395
vt 2.7777774333953857 2.85185170173645
vt -1.157407283782959 3.0061728954315186
vt -1.157407283782959 2.8518519401550293
vt 2.777777671813965 2.85185170173645
vt 2.777777671813965 3.0061726570129395
vt 2.777777671813965 5.938271522521973
vt -1.157407283782959 5.9382710456848145
vt -1.1574074029922485 -3.938271999359131
vt 2.7777774333953857 -3.9382715225219727
vt 4.938271522521973 2.85185170173645
vt -4.938271522521973 2.85185170173645
vt -4.938271522521973 3.0061726570129395
vt 4.938271522521973 3.0061726570129395
vt -4.938271999359131 2.8518519401550293
vt 4.9382710456848145 2.8518519401550293
vt 4.9382710456848145 3.0061728954315186
vt -4.938271999359131 3.0061728954315186
vt 2.777777910232544 2.8518519401550293
vt 2.777777910232544 3.0061728954315186
vt 4.7839508056640625 3.0061726570129395
vt 4.7839508056640625 2.85185170173645
vt 2.7777774333953857 3.0061728954315186
vt 2.7777774333953857 2.8518519401550293
vt 4.783950328826904 2.85185170173645
vt 4.783950328826904 3.0061726570129395
vt 4.783950328826904 2.620370388031006
vt 2.7777774333953857 2.620370388031006
vt 2.777777910232544 -0.6975307464599609
vt 4.7839508056640625 -0.6975305080413818
vt 1.6203703880310059 2.85185170173645
vt -1.6975305080413818 2.85185170173645
vt -1.6975305080413818 3.0061726570129395
vt 1.6203703880310059 3.0061726570129395
vt -1.697530746459961 2.8518519401550293
vt 1.6203703880310059 2.8518519401550293
vt 1.6203703880310059 3.0061728954315186
vt -1.697530746459961 3.0061728954315186
vt -0.8749998807907104 4.875
vt -0.7499998807907104 4.875
vt -0.7500000596046448 -2.875
vt -0.8750000596046448 -2.875
vt -3.875 1.1875
vt 3.875 1.1875
vt 3.875 1.0
vt -3.875 1.0
vt -0.8749995827674866 -2.875
vt -0.7499995827674866 -2.875
vt -0.7500003576278687 4.875
vt -0.8750003576278687 4.875
vt 3.875 2.3125
vt -3.875 2.3125
vt -3.875 2.5
vt 3.875 2.5
vt -0.8710936307907104 2.3125
vt -0.8710936307907104 1.1875
vt -0.9960936307907104 1.1875
vt -0.9960936307907104 2.3125
vt -0.8710936903953552 1.1875
vt -0.8710936903953552 2.3125
vt -0.9960936903953552 2.3125
vt -0.9960936903953552 1.1875
vt 2.59765625 2.3125
vt 2.91015625 2.3125
vt 2.91015625 1.1875
vt 2.59765625 1.1875
vt -0.8710936903953552 2.3125
vt -0.8710936903953552 1.1875
vt -0.9960936903953552 1.1875
vt -0.9960936903953552 2.3125
vt -0.87109375 1.1875
vt -0.87109375 2.3125
vt -0.99609375 2.3125
vt -0.99609375 1.1875
vt 2.597656488418579 2.3125
vt 2.910156488418579 2.3125
vt 2.910156488418579 1.1875
vt 2.597656488418579 1.1875
vt -0.8710938692092896 2.3125
vt -0.8710938692092896 1.1875
vt -0.9960938692092896 1.1875
vt -0.9960938692092896 2.3125
vt -0.8710938692092896 1.1875
vt -0.8710938692092896 2.3125
vt -0.9960939288139343 2.3125
vt -0.9960939288139343 1.1875
vt 2.597656726837158 2.3125
vt 2.910156726837158 2.3125
vt 2.910156726837158 1.1875
vt 2.597656726837158 1.1875
vt 0.15243875980377197 -6.136051654815674
vt 0.15243875980377197 -6.250380992889404
vt 0.3429875373840332 -6.250380992889404
vt 0.3429875373840332 -6.136051654815674
vt 0.15243859589099884 -6.136051654815674
vt 0.15243861079216003 -6.250380992889404
vt 0.34298738837242126 -6.250380992889404
vt 0.34298738837242126 -6.136051654815674
vt 0.15243873000144958 -6.136053085327148
vt 0.15243874490261078 -6.250382423400879
vt 0.3429875373840332 -6.250382423400879
vt 0.3429875075817108 -6.136053085327148
vt 1.266730546951294 -2.568025588989258
vt 1.2576218843460083 -2.568025588989258
vt 1.2576218843460083 -2.625190258026123
vt 1.266730546951294 -2.625190258026123
vt 1.2576218843460083 -2.568025588989258
vt 1.266730546951294 -2.568025588989258
vt 1.266730546951294 -2.625190258026123
vt 1.2576218843460083 -2.625190258026123
vt 0.07621937990188599 -2.625190496444702
vt 0.07621937990188599 -2.568025827407837
vt 0.1714937686920166 -2.568025827407837
vt 0.1714937686920166 -2.625190496444702
vt 1.266730785369873 1.0428733713924885
vt 1.266730785369873 0.9475989788770676
vt 1.2576220035552979 0.9475989788770676
vt 1.2576220035552979 1.0428733713924885
vt 1.266730785369873 0.9475989863276482
vt 1.266730785369873 1.042873378843069
vt 1.2576220035552979 1.042873378843069
vt 1.2576220035552979 0.9475989863276482
vt 1.266730546951294 -2.568025588989258
vt 1.2576218843460083 -2.568025588989258
vt 1.2576218843460083 -2.625190258026123
vt 1.266730546951294 -2.625190258026123
vt 1.2576218843460083 -2.568025827407837
vt 1.266730546951294 -2.568025827407837
vt 1.266730546951294 -2.625190258026123
vt 1.2576218843460083 -2.625190258026123
vt 0.07621930539608002 -2.625190496444702
vt 0.07621929794549942 -2.568025827407837
vt 0.17149369418621063 -2.568025827407837
vt 0.17149369418621063 -2.625190496444702
vt 1.266730785369873 1.0428733564913273
vt 1.266730785369873 0.9475989639759064
vt 1.2576220035552979 0.9475989677011967
vt 1.2576220035552979 1.0428733602166176
vt 1.266730785369873 0.947598971426487
vt 1.266730785369873 1.0428733639419079
vt 1.2576220035552979 1.0428733639419079
vt 1.2576220035552979 0.947598971426487
vt 1.2667304277420044 -2.568026542663574
vt 1.2576216459274292 -2.568026542663574
vt 1.2576216459274292 -2.6251912117004395
vt 1.2667304277420044 -2.6251912117004395
vt 1.2576216459274292 -2.568026542663574
vt 1.2667304277420044 -2.568026542663574
vt 1.2667304277420044 -2.6251912117004395
vt 1.2576216459274292 -2.6251912117004395
vt 0.07621937245130539 -2.6251912117004395
vt 0.07621936500072479 -2.568026542663574
vt 0.1714937537908554 -2.568026542663574
vt 0.1714937686920166 -2.6251912117004395
vt 1.2667306661605835 1.0428734123706818
vt 1.2667306661605835 0.9475990198552608
vt 1.2576220035552979 0.9475990198552608
vt 1.2576220035552979 1.0428734123706818
vt 1.2667306661605835 0.9475990273058414
vt 1.2667306661605835 1.0428734198212624
vt 1.2576220035552979 1.0428734198212624
vt 1.2576220035552979 0.9475990273058414

g RoomMesh_Geometry
f 1/1 2/2 3/3
f 4/4 1/1 3/3
f 5/5 6/6 7/7
f 8/8 5/5 7/7
f 9/9 10/10 11/11
f 12/12 9/9 11/11
f 13/13 14/14 15/15
f 16/16 13/13 15/15
f 17/17 18/18 19/19
f 20/20 17/17 19/19
f 21/21 22/22 23/23
f 24/24 21/21 23/23
f 25/25 26/26 27/27
f 28/28 25/25 27/27
f 29/29 30/30 31/31
f 32/32 29/29 31/31
f 33/33 34/34 35/35
f 36/36 33/33 35/35
f 37/37 38/38 39/39
f 40/40 37/37 39/39
f 41/41 42/42 43/43
f 44/44 41/41 43/43
f 45/45 46/46 47/47
f 48/48 45/45 47/47
f 49/49 50/50 51/51
f 52/52 49/49 51/51
f 53/53 54/54 55/55
f 56/56 53/53 55/55
f 57/57 58/58 59/59
f 60/60 57/57 59/59
f 61/61 62/62 63/63
f 64/64 61/61 63/63
f 65/65 66/66 67/67
f 68/68 65/65 67/67
f 69/69 70/70 71/71
f 72/72 69/69 71/71
f 73/73 74/74 75/75
f 76/76 73/73 75/75
f 77/77 78/78 79/79
f 80/80 77/77 79/79
f 81/81 82/82 83/83
f 84/84 81/81 83/83
f 85/85 86/86 87/87
f 88/88 85/85 87/87
f 89/89 90/90 91/91
f 92/92 89/89 91/91
f 93/93 94/94 95/95
f 96/96 93/93 95/95
f 97/97 98/98 99/99
f 100/100 97/97 99/99
f 101/101 102/102 103/103
f 104/104 101/101 103/103
f 105/105 106/106 107/107
f 108/108 105/105 107/107
f 109/109 110/110 111/111
f 112/112 109/109 111/111
f 113/113 114/114 115/115
f 116/116 113/113 115/115
f 117/117 118/118 119/119
f 120/120 117/117 119/119
f 121/121 122/122 123/123
f 124/124 121/121 123/123
f 125/125 126/126 127/127
f 128/128 125/125 127/127
f 129/129 130/130 131/131
f 132/132 129/129 131/131
f 133/133 134/134 135/135
f 136/136 133/133 135/135
f 137/137 138/138 139/139
f 140/140 137/137 139/139
f 141/141 142/142 143/143
f 144/144 141/141 143/143
f 145/145 146/146 147/147
f 148/148 145/145 147/147
f 149/149 150/150 151/151
f 152/152 149/149 151/151
f 153/153 154/154 155/155
f 156/156 153/153 155/155
f 157/157 158/158 159/159
f 160/160 157/157 159/159
f 161/161 162/162 163/163
f 164/164 161/161 163/163
f 165/165 166/166 167/167
f 168/168 165/165 167/167
f 169/169 170/170 171/171
f 172/172 169/169 171/171
f 173/173 174/174 175/175
f 176/176 173/173 175/175
f 177/177 178/178 179/179
f 180/180 177/177 179/179
f 181/181 182/182 183/183
f 184/184 181/181 183/183
f 185/185 186/186 187/187
f 188/188 185/185 187/187
f 189/189 190/190 191/191
f 192/192 189/189 191/191
f 193/193 194/194 195/195
f 196/196 193/193 195/195
f 197/197 198/198 199/199
f 200/200 197/197 199/199
f 201/201 202/202 203/203
f 204/204 201/201 203/203
f 205/205 206/206 207/207
f 208/208 205/205 207/207
f 209/209 210/210 211/211
f 212/212 209/209 211/211
f 213/213 214/214 215/215
f 216/216 213/213 215/215
f 217/217 218/218 219/219
f 220/220 217/217 219/219
f 221/221 222/222 223/223
f 224/224 221/221 223/223
f 225/225 226/226 227/227
f 228/228 225/225 227/227
f 229/229 230/230 231/231
f 232/232 229/229 231/231
f 233/233 234/234 235/235
f 236/236 233/233 235/235
f 237/237 238/238 239/239
f 240/240 237/237 239/239
f 241/241 242/242 243/243
f 244/244 241/241 243/243
f 245/245 246/246 247/247
f 248/248 245/245 247/247
f 249/249 250/250 251/251
f 252/252 249/249 251/251
f 253/253 254/254 255/255
f 256/256 253/253 255/255
f 257/257 258/258 259/259
f 260/260 257/257 259/259
f 261/261 262/262 263/263
f 264/264 261/261 263/263
f 265/265 266/266 267/267
f 268/268 265/265 267/267
f 269/269 270/270 271/271
f 272/272 269/269 271/271
f 273/273 274/274 275/275
f 276/276 273/273 275/275
f 277/277 278/278 279/279
f 280/280 277/277 279/279
f 281/281 282/282 283/283
f 284/284 281/281 283/283
f 285/285 286/286 287/287
f 288/288 285/285 287/287
f 289/289 290/290 291/291
f 292/292 289/289 291/291
f 293/293 294/294 295/295
f 296/296 293/293 295/295
f 297/297 298/298 299/299
f 300/300 297/297 299/299
f 301/301 302/302 303/303
f 304/304 301/301 303/303
f 305/305 306/306 307/307
f 308/308 305/305 307/307
f 309/309 310/310 311/311
f 312/312 309/309 311/311
f 313/313 314/314 315/315
f 316/316 313/313 315/315
f 317/317 318/318 319/319
f 320/320 317/317 319/319
f 321/321 322/322 323/323
f 324/324 321/321 323/323
f 325/325 326/326 327/327
f 328/328 325/325 327/327
f 329/329 330/330 331/331
f 332/332 329/329 331/331
f 333/333 334/334 335/335
f 336/336 333/333 335/335
f 337/337 338/338 339/339
f 340/340 337/337 339/339
f 341/341 342/342 343/343
f 344/344 341/341 343/343
f 345/345 346/346 347/347
f 348/348 345/345 347/347
f 349/349 350/350 351/351
f 352/352 349/349 351/351
f 353/353 354/354 355/355
f 356/356 353/353 355/355
f 357/357 358/358 359/359
f 360/360 357/357 359/359
f 361/361 362/362 363/363
f 364/364 361/361 363/363
f 365/365 366/366 367/367
f 368/368 365/365 367/367
f 369/369 370/370 371/371
f 372/372 369/369 371/371
f 373/373 374/374 375/375
f 376/376 373/373 375/375
f 377/377 378/378 379/379
f 380/380 377/377 379/379
f 381/381 382/382 383/383
f 384/384 381/381 383/383
f 385/385 386/386 387/387
f 388/388 385/385 387/387
f 389/389 390/390 391/391
f 392/392 389/389 391/391
f 393/393 394/394 395/395
f 396/396 393/393 395/395
f 397/397 398/398 399/399
f 400/400 397/397 399/399
f 401/401 402/402 403/403
f 404/404 401/401 403/403
f 405/405 406/406 407/407
f 408/408 405/405 407/407
f 409/409 410/410 411/411
f 412/412 409/409 411/411
f 413/413 414/414 415/415
f 416/416 413/413 415/415
f 417/417 418/418 419/419
f 420/420 417/417 419/419
f 421/421 422/422 423/423
f 424/424 421/421 423/423
f 425/425 426/426 427/427
f 428/428 425/425 427/427
f 429/429 430/430 431/431
f 432/432 429/429 431/431
f 433/433 434/434 435/435
f 436/436 433/433 435/435
f 437/437 438/438 439/439
f 440/440 437/437 439/439
f 441/441 442/442 443/443
f 444/444 441/441 443/443
f 445/445 446/446 447/447
f 448/448 445/445 447/447
f 449/449 450/450 451/451
f 452/452 449/449 451/451
f 453/453 454/454 455/455
f 456/456 453/453 455/455
