# SCP CB Converted Room Mesh

v 96.0 320.0 -992.0
v -96.0 320.0 -992.0
v -96.0 320.0 -1024.0
v 96.0 320.0 -1024.0
v 96.0 320.0 -992.0
v 96.0 384.0 -992.0
v -96.0 384.0 -992.0
v -96.0 320.0 -992.0
v -96.0 0.0 -1024.0
v -96.0 384.0 -1024.0
v -96.0 384.0 -992.0
v -96.0 0.0 -992.0
v -96.0 0.0 -992.0
v -96.0 384.0 -992.0
v -256.0 384.0 -992.0
v -256.0 0.0 -992.0
v 96.0 384.0 -992.0
v 96.0 384.0 -1024.0
v 96.0 0.0 -1024.0
v 96.0 0.0 -992.0
v 256.0 0.0 -992.0
v 256.0 384.0 -992.0
v 96.0 384.0 -992.0
v 96.0 0.0 -992.0
v -96.0 320.0 992.0
v 96.0 320.0 992.0
v 96.0 320.0 1024.0
v -96.0 320.0 1024.0
v -96.0 320.0 992.0
v -96.0 384.0 992.0
v 96.0 384.0 992.0
v 96.0 320.0 992.0
v 96.0 0.0 1024.0
v 96.0 384.0 1024.0
v 96.0 384.0 992.0
v 96.0 0.0 992.0
v 84.0 416.0 -684.0
v -84.0 416.0 -684.0
v -84.0 416.0 -852.0
v 84.0 416.0 -852.0
v -84.0 384.0 -852.0
v -84.0 384.0 -1024.0
v 84.0 384.0 -1024.0
v 84.0 384.0 -852.0
v 84.0 384.0 -852.0
v 84.0 416.0 -852.0
v -84.0 416.0 -852.0
v -84.0 384.0 -852.0
v 256.0 -1.0 1024.0
v 256.0 -1.0 -1024.0
v 256.0 0.0 -1024.0
v 256.0 0.0 1024.0
v -256.0 -1.0 -1024.0
v 256.0 -1.0 -1024.0
v 256.0 -1.0 1024.0
v -256.0 -1.0 1024.0
v -256.0 0.0 1024.0
v 256.0 0.0 1024.0
v 256.0 0.0 -1024.0
v -256.0 0.0 -1024.0
v 256.0 0.0 -1024.0
v 256.0 -1.0 -1024.0
v -256.0 -1.0 -1024.0
v -256.0 0.0 -1024.0
v -256.0 0.0 1024.0
v -256.0 -1.0 1024.0
v 256.0 -1.0 1024.0
v 256.0 0.0 1024.0
v -256.0 -1.0 1024.0
v -256.0 0.0 1024.0
v -256.0 0.0 -1024.0
v -256.0 -1.0 -1024.0
v 96.0 0.0 992.0
v 96.0 384.0 992.0
v 256.0 384.0 992.0
v 256.0 0.0 992.0
v -95.9998779296875 384.0 992.0
v -95.9998779296875 384.0 1024.0
v -95.9998779296875 0.0 1024.0
v -95.9998779296875 0.0 992.0
v -256.0 0.0 992.0
v -256.0 384.0 992.0
v -95.9998779296875 384.0 992.0
v -95.9998779296875 0.0 992.0
v -84.0 416.0 684.0
v 84.0 416.0 684.0
v 84.0 416.0 852.0
v -84.0 416.0 852.0
v 84.0 384.0 852.0
v 84.0 384.0 1024.0
v -84.0 384.0 1024.0
v -84.0 384.0 852.0
v 304.0 384.0 1024.0
v 84.0 384.0 1024.0
v 84.0 384.0 -992.0
v 304.0 384.0 -992.0
v -84.0 384.0 852.0
v -84.0 416.0 852.0
v 84.0 416.0 852.0
v 84.0 384.0 852.0
v 84.0 384.0 1024.0
v 84.0 416.0 1024.0
v 84.0 416.0 -992.0
v 84.0 384.0 -992.0
v -304.0 384.0 -992.0
v -84.0 384.0 -992.0
v -84.0 384.0 1024.0
v -304.0 384.0 1024.0
v 84.0 416.0 168.0
v -84.0 416.0 168.0
v -84.0 416.0 0.0
v 84.0 416.0 0.0
v 84.0 384.0 684.0
v -84.0 384.0 684.0
v -84.0 384.0 168.0
v 84.0 384.0 168.0
v 84.0 416.0 0.0
v -84.0 416.0 0.0
v -84.0 416.0 -168.0
v 84.0 416.0 -168.0
v 84.0 384.0 -168.0
v -84.0 384.0 -168.0
v -84.0 384.0 -684.0
v 84.0 384.0 -684.0
v -84.0 416.0 -992.0
v -84.0 416.0 1024.0
v -84.0 384.0 1024.0
v -84.0 384.0 -992.0
v -84.0 384.0 684.0
v 84.0 384.0 684.0
v 84.0 416.0 684.0
v -84.0 416.0 684.0
v -84.0 384.0 168.0
v -84.0 416.0 168.0
v 84.0 416.0 168.0
v 84.0 384.0 168.0
v -84.0 384.0 -168.0
v 84.0 384.0 -168.0
v 84.0 416.0 -168.0
v -84.0 416.0 -168.0
v -84.0 384.0 -684.0
v -84.0 416.0 -684.0
v 84.0 416.0 -684.0
v 84.0 384.0 -684.0
v -224.0008544921875 384.0 64.0
v -224.0008544921875 0.0 64.0
v -304.0 0.0 64.0
v -304.0 384.0 64.0
v -224.0008544921875 0.0 64.0
v -224.0008544921875 384.0 64.0
v -223.9998779296875 384.0 320.0
v -223.9998779296875 0.0 320.0
v -223.9998779296875 0.0 320.0
v -223.9998779296875 384.0 320.0
v -304.0 384.0 320.0
v -304.0 0.0 320.0
v -240.0005340576172 0.0 320.00018310546875
v -240.0005340576172 128.0 320.00018310546875
v -240.0 128.0 448.00006103515625
v -240.0 0.0 448.00006103515625
v -296.8893737792969 192.0 320.00018310546875
v -296.8893737792969 384.0 320.00018310546875
v -296.88885498046875 384.0 448.00006103515625
v -296.88885498046875 192.0 448.00006103515625
v -240.0005340576172 128.0 320.00018310546875
v -296.8889465332031 192.0 320.00018310546875
v -296.8889465332031 192.0 448.00006103515625
v -240.0 128.0 448.00006103515625
v -224.0008544921875 384.0 -320.0
v -224.0008544921875 0.0 -320.0
v -304.0 0.0 -320.0
v -304.0 384.0 -320.0
v -224.0008544921875 0.0 -320.0
v -224.0008544921875 384.0 -320.0
v -223.9998779296875 384.0 -64.0
v -223.9998779296875 0.0 -64.0
v -223.9998779296875 0.0 -64.0
v -223.9998779296875 384.0 -64.0
v -304.0 384.0 -64.0
v -304.0 0.0 -64.0
v -240.0005340576172 0.0 -63.99993896484375
v -240.0005340576172 128.0 -63.99993896484375
v -240.0 128.0 63.99993896484375
v -240.0 0.0 63.99993896484375
v -296.8893737792969 192.0 -63.99993896484375
v -296.8893737792969 384.0 -63.99993896484375
v -296.88885498046875 384.0 63.99993896484375
v -296.88885498046875 192.0 63.99993896484375
v -240.0005340576172 128.0 -63.99993896484375
v -296.8889465332031 192.0 -63.99993896484375
v -296.8889465332031 192.0 63.99993896484375
v -240.0 128.0 63.99993896484375
v -224.0008544921875 384.0 -704.0
v -224.0008544921875 0.0 -704.0
v -304.0 0.0 -704.0
v -304.0 384.0 -704.0
v -224.0008544921875 0.0 -704.0
v -224.0008544921875 384.0 -704.0
v -223.9998779296875 384.0 -448.0
v -223.9998779296875 0.0 -448.0
v -223.9998779296875 0.0 -448.0
v -223.9998779296875 384.0 -448.0
v -304.0 384.0 -448.0
v -304.0 0.0 -448.0
v -240.0005340576172 0.0 -447.9998779296875
v -240.0005340576172 128.0 -447.9998779296875
v -240.0 128.0 -320.0
v -240.0 0.0 -320.0
v -296.8893737792969 192.0 -447.9998779296875
v -296.8893737792969 384.0 -447.9998779296875
v -296.88885498046875 384.0 -320.0
v -296.88885498046875 192.0 -320.0
v -240.0005340576172 128.0 -447.9998779296875
v -296.8889465332031 192.0 -447.9998779296875
v -296.8889465332031 192.0 -320.0
v -240.0 128.0 -320.0
v -224.0008544921875 0.0 -992.0
v -224.0008544921875 384.0 -992.0
v -223.9998779296875 384.0 -832.0
v -223.9998779296875 0.0 -832.0
v -223.9998779296875 0.0 -832.0
v -223.9998779296875 384.0 -832.0
v -304.0 384.0 -832.0
v -304.0 0.0 -832.0
v -240.0005340576172 0.0 -831.9998779296875
v -240.0005340576172 128.0 -831.9998779296875
v -240.0 128.0 -704.0
v -240.0 0.0 -704.0
v -296.8893737792969 192.0 -831.9998779296875
v -296.8893737792969 384.0 -831.9998779296875
v -296.88885498046875 384.0 -704.0
v -296.88885498046875 192.0 -704.0
v -240.0005340576172 128.0 -831.9998779296875
v -296.8889465332031 192.0 -831.9998779296875
v -296.8889465332031 192.0 -704.0
v -240.0 128.0 -704.0
v -224.0008544921875 384.0 448.0
v -224.0008544921875 0.0 448.0
v -304.0 0.0 448.0
v -304.0 384.0 448.0
v -224.0008544921875 0.0 448.0
v -224.0008544921875 384.0 448.0
v -223.9998779296875 384.0 704.0
v -223.9998779296875 0.0 704.0
v -223.9998779296875 0.0 704.0
v -223.9998779296875 384.0 704.0
v -304.0 384.0 704.0
v -304.0 0.0 704.0
v -240.0005340576172 0.0 704.0001831054688
v -240.0005340576172 128.0 704.0001831054688
v -240.0 128.0 832.0000610351562
v -240.0 0.0 832.0000610351562
v -296.8893737792969 192.0 704.0001831054688
v -296.8893737792969 384.0 704.0001831054688
v -296.88885498046875 384.0 832.0000610351562
v -296.88885498046875 192.0 832.0000610351562
v -240.0005340576172 128.0 704.0001831054688
v -296.8889465332031 192.0 704.0001831054688
v -296.8889465332031 192.0 832.0000610351562
v -240.0 128.0 832.0000610351562
v -224.0008544921875 384.0 832.0
v -224.0008544921875 0.0 832.0
v -304.0 0.0 832.0
v -304.0 384.0 832.0
v -224.0008544921875 0.0 832.0
v -224.0008544921875 384.0 832.0
v -223.9998779296875 384.0 992.0
v -223.9998779296875 0.0 992.0
v 224.0009307861328 384.0 -64.0
v 224.0009307861328 0.0 -64.0
v 304.0001220703125 0.0 -64.0
v 304.0001220703125 384.0 -64.0
v 224.0009307861328 0.0 -64.0
v 224.0009307861328 384.0 -64.0
v 223.9999542236328 384.0 -320.0
v 223.9999542236328 0.0 -320.0
v 223.9999542236328 0.0 -320.0
v 223.9999542236328 384.0 -320.0
v 304.00006103515625 384.0 -320.0
v 304.00006103515625 0.0 -320.0
v 240.0006103515625 0.0 -320.00018310546875
v 240.0006103515625 128.0 -320.00018310546875
v 240.00006103515625 128.0 -448.00006103515625
v 240.00006103515625 0.0 -448.00006103515625
v 296.88946533203125 192.0 -320.00018310546875
v 296.88946533203125 384.0 -320.00018310546875
v 296.8889465332031 384.0 -448.00006103515625
v 296.8889465332031 192.0 -448.00006103515625
v 240.0006103515625 128.0 -320.00018310546875
v 296.8890380859375 192.0 -320.00018310546875
v 296.8890380859375 192.0 -448.00006103515625
v 240.00006103515625 128.0 -448.00006103515625
v 224.0009765625 384.0 320.0
v 224.0009765625 0.0 320.0
v 304.0001220703125 0.0 320.0
v 304.0001220703125 384.0 320.0
v 224.0009765625 0.0 320.0
v 224.0009765625 384.0 320.0
v 224.0 384.0 64.0
v 224.0 0.0 64.0
v 224.0 0.0 64.0
v 224.0 384.0 64.0
v 304.0001220703125 384.0 64.0
v 304.0001220703125 0.0 64.0
v 240.00067138671875 0.0 63.99993896484375
v 240.00067138671875 128.0 63.99993896484375
v 240.0001220703125 128.0 -63.99993896484375
v 240.0001220703125 0.0 -63.99993896484375
v 296.88946533203125 192.0 63.99993896484375
v 296.88946533203125 384.0 63.99993896484375
v 296.8889465332031 384.0 -63.99993896484375
v 296.8889465332031 192.0 -63.99993896484375
v 240.00067138671875 128.0 63.99993896484375
v 296.8890686035156 192.0 63.99993896484375
v 296.8890686035156 192.0 -63.99993896484375
v 240.0001220703125 128.0 -63.99993896484375
v 224.00099182128906 384.0 704.0
v 224.00099182128906 0.0 704.0
v 304.00018310546875 0.0 704.0
v 304.00018310546875 384.0 704.0
v 224.00099182128906 0.0 704.0
v 224.00099182128906 384.0 704.0
v 224.00001525878906 384.0 448.0
v 224.00001525878906 0.0 448.0
v 224.00001525878906 0.0 448.0
v 224.00001525878906 384.0 448.0
v 304.0001220703125 384.0 448.0
v 304.0001220703125 0.0 448.0
v 240.00070190429688 0.0 447.99993896484375
v 240.00070190429688 128.0 447.99993896484375
v 240.00015258789062 128.0 320.00006103515625
v 240.00015258789062 0.0 320.00006103515625
v 296.8895263671875 192.0 447.99993896484375
v 296.8895263671875 384.0 447.99993896484375
v 296.8890075683594 384.0 320.00006103515625
v 296.8890075683594 192.0 320.00006103515625
v 240.00070190429688 128.0 447.99993896484375
v 296.88909912109375 192.0 447.99993896484375
v 296.88909912109375 192.0 320.00006103515625
v 240.00015258789062 128.0 320.00006103515625
v 224.0010528564453 0.0 992.0
v 224.0010528564453 384.0 992.0
v 224.0000762939453 384.0 832.0
v 224.0000762939453 0.0 832.0
v 224.0000762939453 0.0 832.0
v 224.0000762939453 384.0 832.0
v 304.00018310546875 384.0 832.0
v 304.00018310546875 0.0 832.0
v 240.000732421875 0.0 831.9999389648438
v 240.000732421875 128.0 831.9999389648438
v 240.00018310546875 128.0 704.0000610351562
v 240.00018310546875 0.0 704.0000610351562
v 296.8895263671875 192.0 831.9999389648438
v 296.8895263671875 384.0 831.9999389648438
v 296.8890075683594 384.0 704.0000610351562
v 296.8890075683594 192.0 704.0000610351562
v 240.000732421875 128.0 831.9999389648438
v 296.8891296386719 192.0 831.9999389648438
v 296.8891296386719 192.0 704.0000610351562
v 240.00018310546875 128.0 704.0000610351562
v 224.00091552734375 384.0 -448.0
v 224.00091552734375 0.0 -448.0
v 304.00006103515625 0.0 -448.0
v 304.00006103515625 384.0 -448.0
v 224.00091552734375 0.0 -448.0
v 224.00091552734375 384.0 -448.0
v 223.99993896484375 384.0 -704.0
v 223.99993896484375 0.0 -704.0
v 223.99993896484375 0.0 -704.0
v 223.99993896484375 384.0 -704.0
v 304.00006103515625 384.0 -704.0
v 304.00006103515625 0.0 -704.0
v 240.0006103515625 0.0 -704.0001831054688
v 240.0006103515625 128.0 -704.0001831054688
v 240.00006103515625 128.0 -832.0000610351562
v 240.00006103515625 0.0 -832.0000610351562
v 296.8893737792969 192.0 -704.0001831054688
v 296.8893737792969 384.0 -704.0001831054688
v 296.8888854980469 384.0 -832.0000610351562
v 296.8888854980469 192.0 -832.0000610351562
v 240.0006103515625 128.0 -704.0001831054688
v 296.88897705078125 192.0 -704.0001831054688
v 296.88897705078125 192.0 -832.0000610351562
v 240.00006103515625 128.0 -832.0000610351562
v 224.0008544921875 384.0 -832.0
v 224.0008544921875 0.0 -832.0
v 304.0 0.0 -832.0
v 304.0 384.0 -832.0
v 224.0008544921875 0.0 -832.0
v 224.0008544921875 384.0 -832.0
v 223.9998779296875 384.0 -992.0
v 223.9998779296875 0.0 -992.0
vt -0.23382481932640076 -1.7261223793029785
vt -0.7619938850402832 -1.7261223793029785
vt -0.7619938850402832 -1.8141505718231201
vt -0.23382481932640076 -1.8141505718231201
vt -0.23382481932640076 1.8830325603485107
vt -0.23382481932640076 2.059088945388794
vt -0.7619938850402832 2.059088945388794
vt -0.7619938850402832 1.8830325603485107
vt -3.3148107528686523 1.0027508803177625
vt -3.3148107528686523 2.059088945388794
vt -3.2267825603485107 2.059088945388794
vt -3.2267825603485107 1.0027508803177625
vt -0.7619938850402832 1.0027508803177625
vt -0.7619938850402832 2.059088945388794
vt -1.2021347284317017 2.059088945388794
vt -1.2021347284317017 1.0027508803177625
vt -3.2267825603485107 2.059088945388794
vt -3.3148107528686523 2.059088945388794
vt -3.3148107528686523 1.0027508803177625
vt -3.2267825603485107 1.0027508803177625
vt 0.2063160240650177 1.0027508803177625
vt 0.2063160240650177 2.059088945388794
vt -0.23382481932640076 2.059088945388794
vt -0.23382481932640076 1.0027508803177625
vt -0.23382484912872314 -1.7261226177215576
vt -0.7619938850402832 -1.7261226177215576
vt -0.7619938850402832 -1.8141508102416992
vt -0.23382484912872314 -1.8141508102416992
vt -0.23382484912872314 1.8830325603485107
vt -0.23382484912872314 2.059088945388794
vt -0.7619938850402832 2.059088945388794
vt -0.7619938850402832 1.8830325603485107
vt -3.3148107528686523 1.0027508803177625
vt -3.3148107528686523 2.059088945388794
vt -3.2267825603485107 2.059088945388794
vt -3.2267825603485107 1.0027508803177625
vt -0.3359375 -0.3359375
vt -0.6640625 -0.3359375
vt -0.6640625 -0.6640625
vt -0.3359375 -0.6640625
vt -0.6640625 -0.6640625
vt -0.6640625 -1.0
vt -0.3359375 -1.0
vt -0.3359375 -0.6640625
vt 0.203125 2.484375
vt 0.203125 2.609375
vt -0.453125 2.609375
vt -0.453125 2.484375
vt 2.0 0.998046875
vt -2.0 0.998046875
vt -2.0 1.0
vt 2.0 1.0
vt -0.5 -1.0
vt 0.4999999701976776 -1.0
vt 0.4999999701976776 3.0
vt -0.5 3.0
vt -0.5000000596046448 3.0
vt 0.4999999701976776 3.0
vt 0.4999999701976776 -1.0
vt -0.5000000596046448 -1.0
vt 0.5 1.0
vt 0.5 0.998046875
vt -0.5 0.998046875
vt -0.5 1.0
vt -0.5 1.0
vt -0.5 0.998046875
vt 0.5 0.998046875
vt 0.5 1.0
vt 2.0 0.998046875
vt 2.0 1.0
vt -2.0 1.0
vt -2.0 0.998046875
vt -0.7619938850402832 1.0027508803177625
vt -0.7619938850402832 2.059088945388794
vt -1.2021347284317017 2.059088945388794
vt -1.2021347284317017 1.0027508803177625
vt -3.22678279876709 2.059088945388794
vt -3.3148109912872314 2.059088945388794
vt -3.3148109912872314 1.0027508803177625
vt -3.22678279876709 1.0027508803177625
vt 0.20631635189056396 1.0027508803177625
vt 0.20631635189056396 2.059088945388794
vt -0.23382484912872314 2.059088945388794
vt -0.23382484912872314 1.0027508803177625
vt -0.3359373211860657 -0.33593738079071045
vt -0.6640623211860657 -0.33593738079071045
vt -0.6640622615814209 -0.6640623807907104
vt -0.3359372913837433 -0.6640623807907104
vt -0.6640622615814209 -0.6640623807907104
vt -0.6640622615814209 -0.9999998807907104
vt -0.3359372615814209 -0.9999998807907104
vt -0.3359372913837433 -0.6640623807907104
vt -1.093749761581421 -0.9999998807907104
vt -0.6640622615814209 -0.9999998807907104
vt -0.6640626192092896 2.9375001192092896
vt -1.0937501192092896 2.9375001192092896
vt 0.20312494039535522 2.484375
vt 0.20312494039535522 2.609375
vt -0.4531250596046448 2.609375
vt -0.4531250596046448 2.484375
vt -4.125 2.484375
vt -4.125 2.609375
vt 3.75 2.609375
vt 3.75 2.484375
vt -1.09375 -0.9375
vt -0.6640624403953552 -0.9375
vt -0.6640624403953552 3.0
vt -1.09375 3.0
vt -0.3359375 -0.3359375
vt -0.6640625 -0.3359375
vt -0.6640625 -0.6640625
vt -0.3359375 -0.6640625
vt 3.330078125 2.3359375
vt 3.001953125 2.3359375
vt 3.001953125 1.328125
vt 3.330078125 1.328125
vt -0.3359375 -0.3359375
vt -0.6640625 -0.3359375
vt -0.6640625 -0.6640625
vt -0.3359375 -0.6640625
vt 3.330078125 2.3359375
vt 3.001953125 2.3359375
vt 3.001953125 1.328125
vt 3.330078125 1.328125
vt -4.0 2.609375
vt 3.875 2.609375
vt 3.875 2.484375
vt -4.0 2.484375
vt 5.921875 2.484375
vt 6.578125 2.484375
vt 6.578125 2.609375
vt 5.921875 2.609375
vt 5.921875 2.484375
vt 5.921875 2.609375
vt 6.578125 2.609375
vt 6.578125 2.484375
vt 5.921875 2.484375
vt 6.578125 2.484375
vt 6.578125 2.609375
vt 5.921875 2.609375
vt 5.921875 2.484375
vt 5.921875 2.609375
vt 6.578125 2.609375
vt 6.578125 2.484375
vt -0.6161995530128479 2.059088945388794
vt -0.6161995530128479 1.0027508803177625
vt -0.8362675905227661 1.0027508803177625
vt -0.8362675905227661 2.059088945388794
vt 0.35211268067359924 1.0027508803177625
vt 0.35211268067359924 2.059088945388794
vt 1.0563380718231201 2.059088945388794
vt 1.0563380718231201 1.0027508803177625
vt -0.616196870803833 1.0027508803177625
vt -0.616196870803833 2.059088945388794
vt -0.8362675905227661 2.059088945388794
vt -0.8362675905227661 1.0027508803177625
vt 1.0563385486602783 1.0027508803177625
vt 1.0563385486602783 1.354863554239273
vt 1.408450961112976 1.354863554239273
vt 1.408450961112976 1.0027508803177625
vt 1.0563385486602783 1.5309199094772339
vt 1.0563385486602783 2.059088945388794
vt 1.408450961112976 2.059088945388794
vt 1.408450961112976 1.5309199094772339
vt 1.0563385486602783 1.354863554239273
vt 1.0563385486602783 1.5309199094772339
vt 1.408450961112976 1.5309199094772339
vt 1.408450961112976 1.354863554239273
vt -0.6161995530128479 2.059088945388794
vt -0.6161995530128479 1.0027508803177625
vt -0.8362675905227661 1.0027508803177625
vt -0.8362675905227661 2.059088945388794
vt -0.7042253613471985 1.0027508803177625
vt -0.7042253613471985 2.059088945388794
vt 0.0 2.059088945388794
vt 0.0 1.0027508803177625
vt -0.616196870803833 1.0027508803177625
vt -0.616196870803833 2.059088945388794
vt -0.8362675905227661 2.059088945388794
vt -0.8362675905227661 1.0027508803177625
vt 3.2782554626464844e-07 1.0027508803177625
vt 3.2782554626464844e-07 1.354863554239273
vt 0.35211268067359924 1.354863554239273
vt 0.35211268067359924 1.0027508803177625
vt 3.2782554626464844e-07 1.5309199094772339
vt 3.2782554626464844e-07 2.059088945388794
vt 0.35211268067359924 2.059088945388794
vt 0.35211268067359924 1.5309199094772339
vt 3.2782554626464844e-07 1.354863554239273
vt 3.2782554626464844e-07 1.5309199094772339
vt 0.35211268067359924 1.5309199094772339
vt 0.35211268067359924 1.354863554239273
vt -0.6161995530128479 2.059088945388794
vt -0.6161995530128479 1.0027508803177625
vt -0.8362675905227661 1.0027508803177625
vt -0.8362675905227661 2.059088945388794
vt -1.7605633735656738 1.0027508803177625
vt -1.7605633735656738 2.059088945388794
vt -1.0563379526138306 2.059088945388794
vt -1.0563379526138306 1.0027508803177625
vt -0.616196870803833 1.0027508803177625
vt -0.616196870803833 2.059088945388794
vt -0.8362675905227661 2.059088945388794
vt -0.8362675905227661 1.0027508803177625
vt -1.0563377141952515 1.0027508803177625
vt -1.0563377141952515 1.354863554239273
vt -0.7042253613471985 1.354863554239273
vt -0.7042253613471985 1.0027508803177625
vt -1.0563377141952515 1.5309199094772339
vt -1.0563377141952515 2.059088945388794
vt -0.7042253613471985 2.059088945388794
vt -0.7042253613471985 1.5309199094772339
vt -1.0563377141952515 1.354863554239273
vt -1.0563377141952515 1.5309199094772339
vt -0.7042253613471985 1.5309199094772339
vt -0.7042253613471985 1.354863554239273
vt -2.552816867828369 1.0027508803177625
vt -2.552816867828369 2.059088945388794
vt -2.1126761436462402 2.059088945388794
vt -2.1126761436462402 1.0027508803177625
vt -0.616196870803833 1.0027508803177625
vt -0.616196870803833 2.059088945388794
vt -0.8362675905227661 2.059088945388794
vt -0.8362675905227661 1.0027508803177625
vt -2.112675666809082 1.0027508803177625
vt -2.112675666809082 1.354863554239273
vt -1.7605633735656738 1.354863554239273
vt -1.7605633735656738 1.0027508803177625
vt -2.112675666809082 1.5309199094772339
vt -2.112675666809082 2.059088945388794
vt -1.7605633735656738 2.059088945388794
vt -1.7605633735656738 1.5309199094772339
vt -2.112675666809082 1.354863554239273
vt -2.112675666809082 1.5309199094772339
vt -1.7605633735656738 1.5309199094772339
vt -1.7605633735656738 1.354863554239273
vt -0.6161995530128479 2.059088945388794
vt -0.6161995530128479 1.0027508803177625
vt -0.8362675905227661 1.0027508803177625
vt -0.8362675905227661 2.059088945388794
vt 1.408450722694397 1.0027508803177625
vt 1.408450722694397 2.059088945388794
vt 2.1126761436462402 2.059088945388794
vt 2.1126761436462402 1.0027508803177625
vt -0.616196870803833 1.0027508803177625
vt -0.616196870803833 2.059088945388794
vt -0.8362675905227661 2.059088945388794
vt -0.8362675905227661 1.0027508803177625
vt 2.1126766204833984 1.0027508803177625
vt 2.1126766204833984 1.354863554239273
vt 2.4647889137268066 1.354863554239273
vt 2.4647889137268066 1.0027508803177625
vt 2.1126766204833984 1.5309199094772339
vt 2.1126766204833984 2.059088945388794
vt 2.4647889137268066 2.059088945388794
vt 2.4647889137268066 1.5309199094772339
vt 2.1126766204833984 1.354863554239273
vt 2.1126766204833984 1.5309199094772339
vt 2.4647889137268066 1.5309199094772339
vt 2.4647889137268066 1.354863554239273
vt -0.6161995530128479 2.059088945388794
vt -0.6161995530128479 1.0027508803177625
vt -0.8362675905227661 1.0027508803177625
vt -0.8362675905227661 2.059088945388794
vt 2.4647889137268066 1.0027508803177625
vt 2.4647889137268066 2.059088945388794
vt 2.9049296379089355 2.059088945388794
vt 2.9049296379089355 1.0027508803177625
vt -0.6161994338035583 2.059088945388794
vt -0.6161994338035583 1.0027508803177625
vt -0.8362676501274109 1.0027508803177625
vt -0.8362676501274109 2.059088945388794
vt 0.35211265087127686 1.0027508803177625
vt 0.35211265087127686 2.059088945388794
vt 1.0563380718231201 2.059088945388794
vt 1.0563380718231201 1.0027508803177625
vt -0.6161968111991882 1.0027508803177625
vt -0.6161968111991882 2.059088945388794
vt -0.8362675309181213 2.059088945388794
vt -0.8362675309181213 1.0027508803177625
vt 1.0563386678695679 1.0027508803177625
vt 1.0563386678695679 1.354863554239273
vt 1.4084510803222656 1.354863554239273
vt 1.4084510803222656 1.0027508803177625
vt 1.0563386678695679 1.5309199094772339
vt 1.0563386678695679 2.059088945388794
vt 1.408450961112976 2.059088945388794
vt 1.408450961112976 1.5309199094772339
vt 1.0563386678695679 1.354863554239273
vt 1.0563386678695679 1.5309199094772339
vt 1.408450961112976 1.5309199094772339
vt 1.4084510803222656 1.354863554239273
vt -0.6161994934082031 2.059088945388794
vt -0.6161994934082031 1.0027508803177625
vt -0.8362675905227661 1.0027508803177625
vt -0.8362675905227661 2.059088945388794
vt -0.7042253613471985 1.0027508803177625
vt -0.7042253613471985 2.059088945388794
vt -1.4901161193847656e-08 2.059088945388794
vt -1.4901161193847656e-08 1.0027508803177625
vt -0.616196870803833 1.0027508803177625
vt -0.616196870803833 2.059088945388794
vt -0.8362676501274109 2.059088945388794
vt -0.8362676501274109 1.0027508803177625
vt 3.129243850708008e-07 1.0027508803177625
vt 3.129243850708008e-07 1.354863554239273
vt 0.35211265087127686 1.354863554239273
vt 0.35211265087127686 1.0027508803177625
vt 3.2782554626464844e-07 1.5309199094772339
vt 3.2782554626464844e-07 2.059088945388794
vt 0.35211268067359924 2.059088945388794
vt 0.35211268067359924 1.5309199094772339
vt 3.129243850708008e-07 1.354863554239273
vt 2.980232238769531e-07 1.5309199094772339
vt 0.35211265087127686 1.5309199094772339
vt 0.35211265087127686 1.354863554239273
vt -0.6161996126174927 2.059088945388794
vt -0.6161996126174927 1.0027508803177625
vt -0.8362678289413452 1.0027508803177625
vt -0.8362678289413452 2.059088945388794
vt -1.7605632543563843 1.0027508803177625
vt -1.7605632543563843 2.059088945388794
vt -1.056337833404541 2.059088945388794
vt -1.056337833404541 1.0027508803177625
vt -0.6161969900131226 1.0027508803177625
vt -0.6161969900131226 2.059088945388794
vt -0.8362677097320557 2.059088945388794
vt -0.8362677097320557 1.0027508803177625
vt -1.056337594985962 1.0027508803177625
vt -1.056337594985962 1.354863554239273
vt -0.7042253017425537 1.354863554239273
vt -0.7042253017425537 1.0027508803177625
vt -1.0563377141952515 1.5309199094772339
vt -1.0563377141952515 2.059088945388794
vt -0.7042253017425537 2.059088945388794
vt -0.7042253017425537 1.5309199094772339
vt -1.056337594985962 1.354863554239273
vt -1.0563377141952515 1.5309199094772339
vt -0.7042253017425537 1.5309199094772339
vt -0.7042253017425537 1.354863554239273
vt -2.552816867828369 1.0027508803177625
vt -2.552816867828369 2.059088945388794
vt -2.1126761436462402 2.059088945388794
vt -2.1126761436462402 1.0027508803177625
vt -0.6161968111991882 1.0027508803177625
vt -0.6161968111991882 2.059088945388794
vt -0.8362675309181213 2.059088945388794
vt -0.8362675309181213 1.0027508803177625
vt -2.112675666809082 1.0027508803177625
vt -2.112675666809082 1.354863554239273
vt -1.7605632543563843 1.354863554239273
vt -1.7605632543563843 1.0027508803177625
vt -2.112675666809082 1.5309199094772339
vt -2.112675666809082 2.059088945388794
vt -1.7605633735656738 2.059088945388794
vt -1.7605633735656738 1.5309199094772339
vt -2.112675666809082 1.354863554239273
vt -2.112675666809082 1.5309199094772339
vt -1.7605633735656738 1.5309199094772339
vt -1.7605632543563843 1.354863554239273
vt -0.6161995530128479 2.059088945388794
vt -0.6161995530128479 1.0027508803177625
vt -0.8362675905227661 1.0027508803177625
vt -0.8362675905227661 2.059088945388794
vt 1.4084508419036865 1.0027508803177625
vt 1.4084508419036865 2.059088945388794
vt 2.1126761436462402 2.059088945388794
vt 2.1126761436462402 1.0027508803177625
vt -0.6161969304084778 1.0027508803177625
vt -0.6161969304084778 2.059088945388794
vt -0.8362676501274109 2.059088945388794
vt -0.8362676501274109 1.0027508803177625
vt 2.1126766204833984 1.0027508803177625
vt 2.1126766204833984 1.354863554239273
vt 2.4647889137268066 1.354863554239273
vt 2.4647889137268066 1.0027508803177625
vt 2.1126766204833984 1.5309199094772339
vt 2.1126766204833984 2.059088945388794
vt 2.4647889137268066 2.059088945388794
vt 2.4647889137268066 1.5309199094772339
vt 2.1126766204833984 1.354863554239273
vt 2.1126766204833984 1.5309199094772339
vt 2.4647889137268066 1.5309199094772339
vt 2.4647889137268066 1.354863554239273
vt -0.6161996722221375 2.059088945388794
vt -0.6161996722221375 1.0027508803177625
vt -0.8362677097320557 1.0027508803177625
vt -0.8362677097320557 2.059088945388794
vt 2.4647889137268066 1.0027508803177625
vt 2.4647889137268066 2.059088945388794
vt 2.9049296379089355 2.059088945388794
vt 2.9049296379089355 1.0027508803177625

g RoomMesh_Geometry
f 1/1 2/2 3/3
f 4/4 1/1 3/3
f 5/5 6/6 7/7
f 8/8 5/5 7/7
f 9/9 10/10 11/11
f 12/12 9/9 11/11
f 13/13 14/14 15/15
f 16/16 13/13 15/15
f 17/17 18/18 19/19
f 20/20 17/17 19/19
f 21/21 22/22 23/23
f 24/24 21/21 23/23
f 25/25 26/26 27/27
f 28/28 25/25 27/27
f 29/29 30/30 31/31
f 32/32 29/29 31/31
f 33/33 34/34 35/35
f 36/36 33/33 35/35
f 37/37 38/38 39/39
f 40/40 37/37 39/39
f 41/41 42/42 43/43
f 44/44 41/41 43/43
f 45/45 46/46 47/47
f 48/48 45/45 47/47
f 49/49 50/50 51/51
f 52/52 49/49 51/51
f 53/53 54/54 55/55
f 56/56 53/53 55/55
f 57/57 58/58 59/59
f 60/60 57/57 59/59
f 61/61 62/62 63/63
f 64/64 61/61 63/63
f 65/65 66/66 67/67
f 68/68 65/65 67/67
f 69/69 70/70 71/71
f 72/72 69/69 71/71
f 73/73 74/74 75/75
f 76/76 73/73 75/75
f 77/77 78/78 79/79
f 80/80 77/77 79/79
f 81/81 82/82 83/83
f 84/84 81/81 83/83
f 85/85 86/86 87/87
f 88/88 85/85 87/87
f 89/89 90/90 91/91
f 92/92 89/89 91/91
f 93/93 94/94 95/95
f 96/96 93/93 95/95
f 97/97 98/98 99/99
f 100/100 97/97 99/99
f 101/101 102/102 103/103
f 104/104 101/101 103/103
f 105/105 106/106 107/107
f 108/108 105/105 107/107
f 109/109 110/110 111/111
f 112/112 109/109 111/111
f 113/113 114/114 115/115
f 116/116 113/113 115/115
f 117/117 118/118 119/119
f 120/120 117/117 119/119
f 121/121 122/122 123/123
f 124/124 121/121 123/123
f 125/125 126/126 127/127
f 128/128 125/125 127/127
f 129/129 130/130 131/131
f 132/132 129/129 131/131
f 133/133 134/134 135/135
f 136/136 133/133 135/135
f 137/137 138/138 139/139
f 140/140 137/137 139/139
f 141/141 142/142 143/143
f 144/144 141/141 143/143
f 145/145 146/146 147/147
f 148/148 145/145 147/147
f 149/149 150/150 151/151
f 152/152 149/149 151/151
f 153/153 154/154 155/155
f 156/156 153/153 155/155
f 157/157 158/158 159/159
f 160/160 157/157 159/159
f 161/161 162/162 163/163
f 164/164 161/161 163/163
f 165/165 166/166 167/167
f 168/168 165/165 167/167
f 169/169 170/170 171/171
f 172/172 169/169 171/171
f 173/173 174/174 175/175
f 176/176 173/173 175/175
f 177/177 178/178 179/179
f 180/180 177/177 179/179
f 181/181 182/182 183/183
f 184/184 181/181 183/183
f 185/185 186/186 187/187
f 188/188 185/185 187/187
f 189/189 190/190 191/191
f 192/192 189/189 191/191
f 193/193 194/194 195/195
f 196/196 193/193 195/195
f 197/197 198/198 199/199
f 200/200 197/197 199/199
f 201/201 202/202 203/203
f 204/204 201/201 203/203
f 205/205 206/206 207/207
f 208/208 205/205 207/207
f 209/209 210/210 211/211
f 212/212 209/209 211/211
f 213/213 214/214 215/215
f 216/216 213/213 215/215
f 217/217 218/218 219/219
f 220/220 217/217 219/219
f 221/221 222/222 223/223
f 224/224 221/221 223/223
f 225/225 226/226 227/227
f 228/228 225/225 227/227
f 229/229 230/230 231/231
f 232/232 229/229 231/231
f 233/233 234/234 235/235
f 236/236 233/233 235/235
f 237/237 238/238 239/239
f 240/240 237/237 239/239
f 241/241 242/242 243/243
f 244/244 241/241 243/243
f 245/245 246/246 247/247
f 248/248 245/245 247/247
f 249/249 250/250 251/251
f 252/252 249/249 251/251
f 253/253 254/254 255/255
f 256/256 253/253 255/255
f 257/257 258/258 259/259
f 260/260 257/257 259/259
f 261/261 262/262 263/263
f 264/264 261/261 263/263
f 265/265 266/266 267/267
f 268/268 265/265 267/267
f 269/269 270/270 271/271
f 272/272 269/269 271/271
f 273/273 274/274 275/275
f 276/276 273/273 275/275
f 277/277 278/278 279/279
f 280/280 277/277 279/279
f 281/281 282/282 283/283
f 284/284 281/281 283/283
f 285/285 286/286 287/287
f 288/288 285/285 287/287
f 289/289 290/290 291/291
f 292/292 289/289 291/291
f 293/293 294/294 295/295
f 296/296 293/293 295/295
f 297/297 298/298 299/299
f 300/300 297/297 299/299
f 301/301 302/302 303/303
f 304/304 301/301 303/303
f 305/305 306/306 307/307
f 308/308 305/305 307/307
f 309/309 310/310 311/311
f 312/312 309/309 311/311
f 313/313 314/314 315/315
f 316/316 313/313 315/315
f 317/317 318/318 319/319
f 320/320 317/317 319/319
f 321/321 322/322 323/323
f 324/324 321/321 323/323
f 325/325 326/326 327/327
f 328/328 325/325 327/327
f 329/329 330/330 331/331
f 332/332 329/329 331/331
f 333/333 334/334 335/335
f 336/336 333/333 335/335
f 337/337 338/338 339/339
f 340/340 337/337 339/339
f 341/341 342/342 343/343
f 344/344 341/341 343/343
f 345/345 346/346 347/347
f 348/348 345/345 347/347
f 349/349 350/350 351/351
f 352/352 349/349 351/351
f 353/353 354/354 355/355
f 356/356 353/353 355/355
f 357/357 358/358 359/359
f 360/360 357/357 359/359
f 361/361 362/362 363/363
f 364/364 361/361 363/363
f 365/365 366/366 367/367
f 368/368 365/365 367/367
f 369/369 370/370 371/371
f 372/372 369/369 371/371
f 373/373 374/374 375/375
f 376/376 373/373 375/375
f 377/377 378/378 379/379
f 380/380 377/377 379/379
f 381/381 382/382 383/383
f 384/384 381/381 383/383
f 385/385 386/386 387/387
f 388/388 385/385 387/387
f 389/389 390/390 391/391
f 392/392 389/389 391/391
